<svg width="1646" height="820" viewBox="0 0 1646 820" fill="none" xmlns="http://www.w3.org/2000/svg">
<path d="M1136.05 340.012C1139.42 340.549 1142.93 341.981 1146.58 344.309C1147.22 344.738 1147.83 344.953 1148.41 344.953C1149.01 344.953 1149.59 344.631 1150.12 343.986C1150.66 343.306 1151.25 342.536 1151.9 341.677H1156.73V367.727H1152.65C1151.65 366.652 1150.57 364.862 1149.43 362.355C1148.28 359.813 1147.33 357.808 1146.58 356.34C1145.86 354.836 1145.02 353.439 1144.06 352.15C1141.87 349.286 1139.2 347.531 1136.05 346.887V340.012ZM1115.48 414.724C1114.16 414.724 1113.05 415.798 1112.15 417.946H1106.73V389.855H1110.32C1111.65 390.679 1112.88 392.451 1114.03 395.173C1115.21 397.858 1116.22 400.061 1117.04 401.779C1117.9 403.462 1118.94 405.038 1120.15 406.506C1122.98 409.872 1126.69 411.77 1131.27 412.199V419.074C1127.94 418.859 1125.06 418.286 1122.62 417.355C1120.19 416.389 1118.52 415.708 1117.63 415.314C1116.73 414.921 1116.02 414.724 1115.48 414.724ZM1136.05 412.199C1139.53 411.805 1142.25 410.66 1144.22 408.762C1146.22 406.828 1147.22 404.447 1147.22 401.618C1147.22 398.789 1146.63 396.551 1145.45 394.904C1144.31 393.257 1142.78 391.807 1140.89 390.554C1138.99 389.3 1136.82 388.173 1134.39 387.17C1131.95 386.167 1129.46 385.147 1126.92 384.108C1124.38 383.07 1121.89 381.96 1119.46 380.778C1117.02 379.561 1114.85 378.129 1112.96 376.481C1108.73 372.829 1106.62 368.192 1106.62 362.57C1106.62 356.805 1108.73 351.739 1112.96 347.37C1117.68 342.536 1123.79 340.083 1131.27 340.012V346.887C1128.37 347.173 1126.03 348.104 1124.24 349.68C1122.48 351.255 1121.6 353.189 1121.6 355.48C1121.6 357.772 1122.18 359.67 1123.32 361.174C1124.5 362.678 1126.04 364.021 1127.94 365.202C1129.84 366.348 1132.01 367.404 1134.44 368.371C1136.88 369.302 1139.35 370.287 1141.85 371.325C1144.4 372.328 1146.88 373.456 1149.32 374.709C1151.75 375.926 1153.92 377.395 1155.82 379.113C1160.04 382.945 1162.16 387.761 1162.16 393.562C1162.16 400.365 1160.01 406.076 1155.71 410.695C1150.95 415.887 1144.4 418.68 1136.05 419.074V412.199ZM1211.02 412.199C1215.5 412.128 1219.12 410.695 1221.87 407.902C1225.42 404.393 1227.46 398.592 1228 390.5L1234.17 392.595C1233.17 404.554 1228.89 412.557 1221.34 416.604C1218.51 418.107 1215.07 418.931 1211.02 419.074V412.199ZM1193.09 379.167C1193.09 399.255 1197.47 410.266 1206.24 412.199V419.074C1196.29 418.645 1188.25 414.759 1182.13 407.419C1176.15 400.186 1173.16 391.019 1173.16 379.919C1173.16 368.425 1176.29 358.9 1182.56 351.345C1185.53 347.8 1189.04 345.025 1193.09 343.02C1197.13 341.014 1201.52 340.012 1206.24 340.012V346.887C1199.19 347.997 1195.02 354.549 1193.73 366.545C1193.3 370.34 1193.09 374.548 1193.09 379.167ZM1211.02 340.012C1213.96 340.441 1216.43 341.14 1218.44 342.106C1220.48 343.073 1221.86 343.754 1222.57 344.147C1223.32 344.541 1223.95 344.738 1224.45 344.738C1224.95 344.738 1225.38 344.452 1225.74 343.879C1226.14 343.306 1226.55 342.572 1226.98 341.677H1232.08V369.392H1228C1227.1 368.138 1226.06 366.062 1224.88 363.161C1223.7 360.225 1222.72 357.951 1221.93 356.34C1221.18 354.729 1220.3 353.26 1219.3 351.936C1216.97 348.964 1214.21 347.281 1211.02 346.887V340.012ZM1253.61 354.621C1253.61 351.685 1253.32 349.823 1252.75 349.035C1252.21 348.212 1251.69 347.692 1251.19 347.478C1250.73 347.263 1250.21 347.084 1249.64 346.94C1249.06 346.797 1248.45 346.654 1247.81 346.511C1247.2 346.368 1246.57 346.099 1245.93 345.705V341.677H1278.96V345.705C1278.32 346.099 1277.69 346.368 1277.08 346.511C1276.47 346.654 1275.88 346.797 1275.31 346.94C1274.74 347.084 1274.22 347.263 1273.75 347.478C1273.29 347.692 1272.87 348.068 1272.52 348.605C1271.76 349.68 1271.39 351.685 1271.39 354.621V405.109C1271.39 408.081 1271.66 409.979 1272.19 410.803C1272.77 411.59 1273.29 412.092 1273.75 412.307C1274.25 412.521 1274.79 412.701 1275.36 412.844C1277.08 413.202 1278.28 413.596 1278.96 414.025V418H1245.93V414.025C1246.9 413.632 1247.83 413.345 1248.72 413.166C1249.65 412.951 1250.48 412.665 1251.19 412.307C1252.8 411.519 1253.61 410.015 1253.61 407.795V354.621ZM1315.75 341.677V418H1290.34V414.025C1291.31 413.632 1292.24 413.345 1293.13 413.166C1294.06 412.951 1294.89 412.665 1295.6 412.307C1297.22 411.519 1298.02 410.015 1298.02 407.795V351.989C1298.02 349.733 1297.22 348.212 1295.6 347.424C1294.89 347.066 1294.06 346.797 1293.13 346.618C1292.24 346.403 1291.31 346.099 1290.34 345.705V341.677H1315.75ZM1320.53 412.629C1322.32 412.772 1324.59 412.844 1327.35 412.844C1330.1 412.844 1332.58 412.414 1334.76 411.555C1336.98 410.695 1338.77 409.603 1340.13 408.278C1341.53 406.918 1342.62 405.414 1343.41 403.767C1344.19 402.119 1344.87 400.508 1345.45 398.933C1346.02 397.321 1346.59 395.853 1347.17 394.528C1347.78 393.168 1348.6 392.111 1349.64 391.359H1353.29V418H1320.53V412.629ZM1337.18 350.915C1335.92 349.698 1334.35 348.713 1332.45 347.961C1330.59 347.209 1328.4 346.833 1325.9 346.833C1323.39 346.833 1321.6 346.887 1320.53 346.994V341.677H1332.66C1340.72 341.677 1346.58 341.408 1350.23 340.871V366.867H1346.47C1345.57 366.008 1344.82 364.916 1344.21 363.591C1343.6 362.266 1342.98 360.869 1342.33 359.401C1341.72 357.897 1341.03 356.411 1340.24 354.943C1339.45 353.439 1338.43 352.097 1337.18 350.915ZM1320.53 372.561H1338.41V386.311H1320.53V372.561ZM1422.78 382.121V351.989C1422.78 349.769 1421.91 348.247 1420.15 347.424C1419.36 347.03 1418.47 346.726 1417.47 346.511C1416.46 346.26 1415.44 345.92 1414.4 345.49V341.677H1438.25V345.49C1437.25 345.92 1436.25 346.26 1435.24 346.511C1434.28 346.726 1433.4 347.03 1432.61 347.424C1430.86 348.247 1429.98 349.769 1429.98 351.989V392.756L1422.78 382.121ZM1379.92 366.115V406.452C1379.92 409.782 1381.89 411.984 1385.83 413.059C1386.87 413.345 1387.85 413.703 1388.78 414.133V418H1364.24V414.133C1365.13 413.703 1366.06 413.345 1367.03 413.059C1368.03 412.772 1368.95 412.378 1369.77 411.877C1371.74 410.767 1372.73 408.959 1372.73 406.452V355.427L1379.92 366.115ZM1375.03 350.324C1373.32 350.002 1371.79 349.715 1370.47 349.465C1367.46 348.964 1365.55 348.605 1364.72 348.391V341.677H1389.7L1429.98 401.296V418H1420.69L1375.03 350.324ZM1483.2 412.199C1487.68 412.128 1491.29 410.695 1494.05 407.902C1497.6 404.393 1499.64 398.592 1500.17 390.5L1506.35 392.595C1505.35 404.554 1501.07 412.557 1493.51 416.604C1490.68 418.107 1487.25 418.931 1483.2 419.074V412.199ZM1465.26 379.167C1465.26 399.255 1469.65 410.266 1478.42 412.199V419.074C1468.47 418.645 1460.43 414.759 1454.3 407.419C1448.32 400.186 1445.33 391.019 1445.33 379.919C1445.33 368.425 1448.47 358.9 1454.73 351.345C1457.71 347.8 1461.22 345.025 1465.26 343.02C1469.31 341.014 1473.69 340.012 1478.42 340.012V346.887C1471.37 347.997 1467.19 354.549 1465.91 366.545C1465.48 370.34 1465.26 374.548 1465.26 379.167ZM1483.2 340.012C1486.14 340.441 1488.61 341.14 1490.61 342.106C1492.65 343.073 1494.03 343.754 1494.75 344.147C1495.5 344.541 1496.13 344.738 1496.63 344.738C1497.13 344.738 1497.56 344.452 1497.92 343.879C1498.31 343.306 1498.72 342.572 1499.15 341.677H1504.26V369.392H1500.17C1499.28 368.138 1498.24 366.062 1497.06 363.161C1495.88 360.225 1494.89 357.951 1494.1 356.34C1493.35 354.729 1492.47 353.26 1491.47 351.936C1489.14 348.964 1486.39 347.281 1483.2 346.887V340.012ZM1543.67 341.677V418H1518.27V414.025C1519.23 413.632 1520.16 413.345 1521.06 413.166C1521.99 412.951 1522.81 412.665 1523.53 412.307C1525.14 411.519 1525.95 410.015 1525.95 407.795V351.989C1525.95 349.733 1525.14 348.212 1523.53 347.424C1522.81 347.066 1521.99 346.797 1521.06 346.618C1520.16 346.403 1519.23 346.099 1518.27 345.705V341.677H1543.67ZM1548.45 412.629C1550.24 412.772 1552.52 412.844 1555.27 412.844C1558.03 412.844 1560.5 412.414 1562.69 411.555C1564.91 410.695 1566.7 409.603 1568.06 408.278C1569.45 406.918 1570.54 405.414 1571.33 403.767C1572.12 402.119 1572.8 400.508 1573.37 398.933C1573.95 397.321 1574.52 395.853 1575.09 394.528C1575.7 393.168 1576.52 392.111 1577.56 391.359H1581.22V418H1548.45V412.629ZM1565.1 350.915C1563.85 349.698 1562.27 348.713 1560.38 347.961C1558.51 347.209 1556.33 346.833 1553.82 346.833C1551.32 346.833 1549.53 346.887 1548.45 346.994V341.677H1560.59C1568.65 341.677 1574.5 341.408 1578.15 340.871V366.867H1574.39C1573.5 366.008 1572.75 364.916 1572.14 363.591C1571.53 362.266 1570.9 360.869 1570.26 359.401C1569.65 357.897 1568.95 356.411 1568.16 354.943C1567.38 353.439 1566.36 352.097 1565.1 350.915ZM1548.45 372.561H1566.34V386.311H1548.45V372.561Z" fill="#C0C0C0" fill-opacity="0.29"/>
<path d="M128.224 163.813L123.302 162.31C123.438 161.353 123.53 160.498 123.575 159.746C123.621 158.971 123.712 158.288 123.849 157.695C125.831 156.807 129.124 156.077 133.727 155.508C134.456 155.417 135.094 155.371 135.641 155.371C136.21 156.055 136.62 156.704 136.871 157.319L152.696 197.173C153.38 198.927 154.166 200.226 155.055 201.069C155.966 201.89 157.105 202.357 158.473 202.471V205H136.632V202.847C137.201 202.505 137.783 202.254 138.375 202.095C138.99 201.912 139.549 201.742 140.05 201.582C141.144 201.263 141.69 200.693 141.69 199.873C141.69 199.417 141.474 198.631 141.041 197.515L128.224 163.813ZM128.805 174.375L121.114 196.387C120.75 197.412 120.567 198.267 120.567 198.95C120.567 199.634 120.761 200.169 121.148 200.557C121.536 200.921 122.014 201.217 122.584 201.445C123.176 201.65 123.803 201.833 124.464 201.992C125.125 202.152 125.74 202.38 126.31 202.676V205H109.938V202.676C110.393 202.38 110.883 202.14 111.407 201.958C111.954 201.776 112.501 201.536 113.048 201.24C114.324 200.488 115.281 199.246 115.919 197.515L126.549 168.325L128.805 174.375ZM134.957 190.439H126.549L127.677 186.816H133.59L134.957 190.439ZM206.897 200.625C205.006 204.02 201.862 205.718 197.464 205.718C193.522 205.718 190.73 203.861 189.09 200.146C188.338 198.438 187.688 196.512 187.142 194.37C186.595 192.205 186.116 190.542 185.706 189.38C184.772 186.714 183.541 184.8 182.015 183.638V178.613C184.726 178.363 186.663 177.633 187.825 176.426C189.192 174.967 189.876 172.666 189.876 169.521C189.876 165.944 189.249 163.438 187.996 162.002C186.834 160.635 184.84 159.883 182.015 159.746V156.431H186.048C191.38 156.431 195.459 157.65 198.284 160.088C200.836 162.275 202.112 165.181 202.112 168.804C202.112 174.272 199.275 177.907 193.602 179.707C191.779 180.299 189.705 180.653 187.381 180.767V181.074C189.5 181.416 191.038 181.917 191.995 182.578C194.137 184.059 195.8 186.258 196.985 189.175C197.396 190.155 197.783 191.157 198.147 192.183C198.535 193.208 198.911 194.211 199.275 195.19C199.64 196.17 200.027 197.048 200.438 197.822C201.349 199.531 202.283 200.386 203.24 200.386C203.719 200.386 204.14 200.112 204.505 199.565C204.892 198.996 205.211 198.586 205.462 198.335C205.713 198.062 205.997 197.925 206.316 197.925C206.635 197.925 206.829 197.936 206.897 197.959V200.625ZM178.973 156.431V198.506C178.973 199.919 179.485 200.876 180.511 201.377C180.989 201.605 181.513 201.787 182.083 201.924C182.675 202.038 183.279 202.22 183.895 202.471V205H162.806V202.471C163.421 202.22 164.013 202.038 164.583 201.924C165.175 201.787 165.7 201.605 166.155 201.377C167.181 200.876 167.693 199.919 167.693 198.506V162.993C167.693 161.558 167.181 160.589 166.155 160.088C165.7 159.86 165.175 159.689 164.583 159.575C164.013 159.438 163.421 159.245 162.806 158.994V156.431H178.973ZM212.563 155.918C215.503 156.26 217.132 156.431 217.451 156.431H224.731V159.883C221.2 160.225 218.921 162.002 217.896 165.215C217.622 166.126 217.349 167.015 217.075 167.881C216.369 170.16 215.571 171.663 214.683 172.393H212.563V155.918ZM239.155 196.523C239.155 199.076 239.725 200.648 240.864 201.24C241.388 201.491 241.981 201.662 242.642 201.753C243.325 201.844 244.032 202.083 244.761 202.471V205H222.065V202.471C222.795 202.22 223.501 202.015 224.185 201.855C224.868 201.673 225.483 201.445 226.03 201.172C227.192 200.534 227.773 199.497 227.773 198.062V156.431H239.155V196.523ZM249.478 156.431C249.797 156.431 251.426 156.26 254.365 155.918V172.393H252.246C251.357 171.663 250.662 170.513 250.161 168.94C249.683 167.368 249.295 166.138 248.999 165.249C248.703 164.338 248.293 163.506 247.769 162.754C246.606 161.09 244.749 160.133 242.197 159.883V156.431H249.478ZM280.3 155.371C282.442 155.713 284.675 156.624 286.999 158.105C287.409 158.379 287.797 158.516 288.161 158.516C288.549 158.516 288.913 158.311 289.255 157.9C289.597 157.467 289.973 156.978 290.383 156.431H293.459V173.008H290.861C290.223 172.324 289.54 171.185 288.811 169.59C288.081 167.972 287.478 166.696 286.999 165.762C286.543 164.805 286.008 163.916 285.393 163.096C284.003 161.273 282.305 160.156 280.3 159.746V155.371ZM267.209 202.915C266.366 202.915 265.66 203.599 265.09 204.966H261.638V187.09H263.928C264.771 187.614 265.557 188.742 266.286 190.474C267.038 192.183 267.676 193.584 268.2 194.678C268.747 195.749 269.408 196.751 270.183 197.686C271.983 199.827 274.341 201.035 277.258 201.309V205.684C275.139 205.547 273.304 205.182 271.755 204.59C270.205 203.975 269.146 203.542 268.576 203.291C268.007 203.04 267.551 202.915 267.209 202.915ZM280.3 201.309C282.51 201.058 284.242 200.329 285.495 199.121C286.771 197.891 287.409 196.375 287.409 194.575C287.409 192.775 287.033 191.351 286.281 190.303C285.552 189.255 284.584 188.332 283.376 187.534C282.168 186.737 280.79 186.019 279.24 185.381C277.691 184.743 276.107 184.093 274.489 183.433C272.871 182.772 271.288 182.065 269.738 181.313C268.189 180.539 266.81 179.627 265.603 178.579C262.914 176.255 261.569 173.304 261.569 169.727C261.569 166.058 262.914 162.834 265.603 160.054C268.61 156.978 272.495 155.417 277.258 155.371V159.746C275.412 159.928 273.92 160.521 272.78 161.523C271.664 162.526 271.105 163.757 271.105 165.215C271.105 166.673 271.47 167.881 272.199 168.838C272.951 169.795 273.931 170.649 275.139 171.401C276.346 172.131 277.725 172.803 279.274 173.418C280.824 174.01 282.396 174.637 283.991 175.298C285.609 175.936 287.193 176.654 288.742 177.451C290.292 178.226 291.67 179.16 292.878 180.254C295.567 182.692 296.911 185.757 296.911 189.448C296.911 193.778 295.544 197.412 292.81 200.352C289.779 203.656 285.609 205.433 280.3 205.684V201.309Z" fill="#C0C0C0" fill-opacity="0.29"/>
<path d="M1304.98 312.632C1305.08 312.648 1305.18 312.656 1305.3 312.656C1305.41 312.656 1305.52 312.656 1305.64 312.656C1309.32 312.656 1311.8 311.273 1313.08 308.506C1313.43 307.757 1313.72 307.025 1313.96 306.309C1314.22 305.576 1314.48 304.901 1314.72 304.282C1314.98 303.664 1315.32 303.184 1315.75 302.842H1317.41V315H1304.98V312.632ZM1302.78 315H1291.19V313.193C1291.62 313.014 1292.05 312.884 1292.46 312.803C1292.88 312.705 1293.25 312.575 1293.58 312.412C1294.31 312.054 1294.68 311.37 1294.68 310.361V284.995C1294.68 283.97 1294.31 283.278 1293.58 282.92C1293.25 282.757 1292.88 282.635 1292.46 282.554C1292.05 282.456 1291.62 282.318 1291.19 282.139V280.308H1306.44V282.139C1305.96 282.318 1305.49 282.456 1305.05 282.554C1304.61 282.635 1304.23 282.757 1303.91 282.92C1303.16 283.278 1302.78 283.97 1302.78 284.995V315ZM1326.12 286.191C1326.12 284.857 1325.99 284.01 1325.73 283.652C1325.48 283.278 1325.25 283.042 1325.02 282.944C1324.81 282.847 1324.57 282.765 1324.31 282.7C1324.05 282.635 1323.78 282.57 1323.48 282.505C1323.21 282.44 1322.92 282.318 1322.63 282.139V280.308H1337.64V282.139C1337.35 282.318 1337.06 282.44 1336.79 282.505C1336.51 282.57 1336.24 282.635 1335.98 282.7C1335.72 282.765 1335.49 282.847 1335.27 282.944C1335.06 283.042 1334.88 283.213 1334.71 283.457C1334.37 283.945 1334.2 284.857 1334.2 286.191V309.141C1334.2 310.492 1334.32 311.354 1334.57 311.729C1334.83 312.087 1335.06 312.314 1335.27 312.412C1335.5 312.51 1335.75 312.591 1336.01 312.656C1336.79 312.819 1337.33 312.998 1337.64 313.193V315H1322.63V313.193C1323.07 313.014 1323.49 312.884 1323.9 312.803C1324.32 312.705 1324.69 312.575 1325.02 312.412C1325.75 312.054 1326.12 311.37 1326.12 310.361V286.191ZM1343.3 279.941C1345.4 280.186 1346.57 280.308 1346.79 280.308H1352V282.773C1349.47 283.018 1347.84 284.287 1347.11 286.582C1346.92 287.233 1346.72 287.868 1346.53 288.486C1346.02 290.114 1345.45 291.188 1344.82 291.709H1343.3V279.941ZM1362.3 308.945C1362.3 310.768 1362.7 311.891 1363.52 312.314C1363.89 312.493 1364.32 312.616 1364.79 312.681C1365.28 312.746 1365.78 312.917 1366.3 313.193V315H1350.09V313.193C1350.61 313.014 1351.12 312.868 1351.6 312.754C1352.09 312.624 1352.53 312.461 1352.92 312.266C1353.75 311.81 1354.17 311.069 1354.17 310.044V280.308H1362.3V308.945ZM1369.67 280.308C1369.9 280.308 1371.06 280.186 1373.16 279.941V291.709H1371.65C1371.01 291.188 1370.52 290.366 1370.16 289.243C1369.82 288.12 1369.54 287.241 1369.33 286.606C1369.12 285.955 1368.82 285.361 1368.45 284.824C1367.62 283.636 1366.29 282.952 1364.47 282.773V280.308H1369.67ZM1410.27 311.875C1408.92 314.3 1406.67 315.513 1403.53 315.513C1400.71 315.513 1398.72 314.186 1397.55 311.533C1397.01 310.312 1396.55 308.937 1396.16 307.407C1395.77 305.861 1395.42 304.673 1395.13 303.843C1394.46 301.938 1393.59 300.571 1392.5 299.741V296.152C1394.43 295.973 1395.82 295.452 1396.65 294.59C1397.62 293.548 1398.11 291.904 1398.11 289.658C1398.11 287.103 1397.66 285.312 1396.77 284.287C1395.94 283.311 1394.51 282.773 1392.5 282.676V280.308H1395.38C1399.18 280.308 1402.1 281.178 1404.12 282.92C1405.94 284.482 1406.85 286.558 1406.85 289.146C1406.85 293.052 1404.82 295.648 1400.77 296.934C1399.47 297.357 1397.99 297.609 1396.33 297.69V297.91C1397.84 298.154 1398.94 298.512 1399.62 298.984C1401.15 300.042 1402.34 301.613 1403.19 303.696C1403.48 304.396 1403.76 305.112 1404.02 305.845C1404.3 306.577 1404.56 307.293 1404.82 307.993C1405.08 308.693 1405.36 309.32 1405.65 309.873C1406.31 311.094 1406.97 311.704 1407.66 311.704C1408 311.704 1408.3 311.509 1408.56 311.118C1408.84 310.711 1409.06 310.418 1409.24 310.239C1409.42 310.044 1409.63 309.946 1409.85 309.946C1410.08 309.946 1410.22 309.954 1410.27 309.971V311.875ZM1390.32 280.308V310.361C1390.32 311.37 1390.69 312.054 1391.42 312.412C1391.76 312.575 1392.14 312.705 1392.54 312.803C1392.97 312.884 1393.4 313.014 1393.84 313.193V315H1378.77V313.193C1379.21 313.014 1379.64 312.884 1380.04 312.803C1380.47 312.705 1380.84 312.575 1381.17 312.412C1381.9 312.054 1382.27 311.37 1382.27 310.361V284.995C1382.27 283.97 1381.9 283.278 1381.17 282.92C1380.84 282.757 1380.47 282.635 1380.04 282.554C1379.64 282.456 1379.21 282.318 1378.77 282.139V280.308H1390.32ZM1426.55 285.581L1423.03 284.507C1423.13 283.823 1423.2 283.213 1423.23 282.676C1423.26 282.122 1423.33 281.634 1423.42 281.211C1424.84 280.576 1427.19 280.055 1430.48 279.648C1431 279.583 1431.46 279.551 1431.85 279.551C1432.25 280.039 1432.55 280.503 1432.73 280.942L1444.03 309.409C1444.52 310.662 1445.08 311.59 1445.71 312.192C1446.37 312.778 1447.18 313.112 1448.16 313.193V315H1432.56V313.462C1432.96 313.218 1433.38 313.039 1433.8 312.925C1434.24 312.795 1434.64 312.673 1435 312.559C1435.78 312.331 1436.17 311.924 1436.17 311.338C1436.17 311.012 1436.01 310.451 1435.71 309.653L1426.55 285.581ZM1426.96 293.125L1421.47 308.848C1421.21 309.58 1421.08 310.19 1421.08 310.679C1421.08 311.167 1421.22 311.549 1421.5 311.826C1421.77 312.087 1422.11 312.298 1422.52 312.461C1422.94 312.607 1423.39 312.738 1423.86 312.852C1424.34 312.965 1424.78 313.128 1425.18 313.34V315H1413.49V313.34C1413.81 313.128 1414.16 312.957 1414.54 312.827C1414.93 312.697 1415.32 312.526 1415.71 312.314C1416.62 311.777 1417.31 310.89 1417.76 309.653L1425.35 288.804L1426.96 293.125ZM1431.36 304.6H1425.35L1426.16 302.012H1430.38L1431.36 304.6ZM1450.06 279.941C1452.16 280.186 1453.32 280.308 1453.55 280.308H1458.75V282.773C1456.23 283.018 1454.6 284.287 1453.87 286.582C1453.67 287.233 1453.48 287.868 1453.28 288.486C1452.78 290.114 1452.21 291.188 1451.57 291.709H1450.06V279.941ZM1469.05 308.945C1469.05 310.768 1469.46 311.891 1470.27 312.314C1470.65 312.493 1471.07 312.616 1471.54 312.681C1472.03 312.746 1472.53 312.917 1473.06 313.193V315H1456.84V313.193C1457.37 313.014 1457.87 312.868 1458.36 312.754C1458.85 312.624 1459.29 312.461 1459.68 312.266C1460.51 311.81 1460.92 311.069 1460.92 310.044V280.308H1469.05V308.945ZM1476.42 280.308C1476.65 280.308 1477.82 280.186 1479.92 279.941V291.709H1478.4C1477.77 291.188 1477.27 290.366 1476.91 289.243C1476.57 288.12 1476.29 287.241 1476.08 286.606C1475.87 285.955 1475.58 285.361 1475.2 284.824C1474.37 283.636 1473.05 282.952 1471.22 282.773V280.308H1476.42ZM1504.52 312.363C1506.96 312.201 1508.66 311.484 1509.62 310.215C1510.5 309.043 1510.94 307.122 1510.94 304.453V285.142C1510.94 284.002 1510.52 283.245 1509.67 282.871C1509.3 282.692 1508.88 282.562 1508.43 282.48C1507.99 282.383 1507.56 282.236 1507.13 282.041V280.308H1517.83V282.041C1517.47 282.22 1517.08 282.35 1516.66 282.432C1516.25 282.513 1515.87 282.627 1515.51 282.773C1514.69 283.148 1514.29 283.856 1514.29 284.897V304.16C1514.29 307.611 1513.57 310.231 1512.14 312.021C1510.61 313.926 1508.07 315.081 1504.52 315.488V312.363ZM1502.35 315.488C1495.01 315.488 1490.53 313.763 1488.9 310.312C1488.34 309.157 1488.07 307.806 1488.07 306.26V284.897C1488.07 283.872 1487.66 283.188 1486.85 282.847C1486.5 282.7 1486.12 282.586 1485.7 282.505C1485.29 282.407 1484.9 282.253 1484.53 282.041V280.308H1500.05V282.041C1499.6 282.22 1499.15 282.35 1498.71 282.432C1498.27 282.497 1497.88 282.603 1497.54 282.749C1496.78 283.075 1496.39 283.742 1496.39 284.751V305.259C1496.39 308.498 1497.43 310.63 1499.52 311.655C1500.28 312.03 1501.23 312.266 1502.35 312.363V315.488ZM1554.4 311.875C1553.05 314.3 1550.8 315.513 1547.66 315.513C1544.84 315.513 1542.85 314.186 1541.68 311.533C1541.14 310.312 1540.68 308.937 1540.29 307.407C1539.9 305.861 1539.55 304.673 1539.26 303.843C1538.59 301.938 1537.71 300.571 1536.62 299.741V296.152C1538.56 295.973 1539.94 295.452 1540.77 294.59C1541.75 293.548 1542.24 291.904 1542.24 289.658C1542.24 287.103 1541.79 285.312 1540.9 284.287C1540.07 283.311 1538.64 282.773 1536.62 282.676V280.308H1539.5C1543.31 280.308 1546.23 281.178 1548.25 282.92C1550.07 284.482 1550.98 286.558 1550.98 289.146C1550.98 293.052 1548.95 295.648 1544.9 296.934C1543.6 297.357 1542.12 297.609 1540.46 297.69V297.91C1541.97 298.154 1543.07 298.512 1543.75 298.984C1545.28 300.042 1546.47 301.613 1547.32 303.696C1547.61 304.396 1547.89 305.112 1548.15 305.845C1548.42 306.577 1548.69 307.293 1548.95 307.993C1549.21 308.693 1549.49 309.32 1549.78 309.873C1550.43 311.094 1551.1 311.704 1551.79 311.704C1552.13 311.704 1552.43 311.509 1552.69 311.118C1552.97 310.711 1553.19 310.418 1553.37 310.239C1553.55 310.044 1553.75 309.946 1553.98 309.946C1554.21 309.946 1554.35 309.954 1554.4 309.971V311.875ZM1534.45 280.308V310.361C1534.45 311.37 1534.82 312.054 1535.55 312.412C1535.89 312.575 1536.27 312.705 1536.67 312.803C1537.1 312.884 1537.53 313.014 1537.97 313.193V315H1522.9V313.193C1523.34 313.014 1523.77 312.884 1524.17 312.803C1524.6 312.705 1524.97 312.575 1525.3 312.412C1526.03 312.054 1526.39 311.37 1526.39 310.361V284.995C1526.39 283.97 1526.03 283.278 1525.3 282.92C1524.97 282.757 1524.6 282.635 1524.17 282.554C1523.77 282.456 1523.34 282.318 1522.9 282.139V280.308H1534.45ZM1572 280.308V315H1560.45V313.193C1560.89 313.014 1561.31 312.884 1561.72 312.803C1562.14 312.705 1562.52 312.575 1562.84 312.412C1563.57 312.054 1563.94 311.37 1563.94 310.361V284.995C1563.94 283.97 1563.57 283.278 1562.84 282.92C1562.52 282.757 1562.14 282.635 1561.72 282.554C1561.31 282.456 1560.89 282.318 1560.45 282.139V280.308H1572ZM1574.17 312.559C1574.98 312.624 1576.02 312.656 1577.27 312.656C1578.52 312.656 1579.65 312.461 1580.64 312.07C1581.65 311.68 1582.46 311.183 1583.08 310.581C1583.72 309.963 1584.21 309.279 1584.57 308.53C1584.93 307.782 1585.24 307.049 1585.5 306.333C1585.76 305.601 1586.02 304.933 1586.28 304.331C1586.56 303.713 1586.93 303.232 1587.4 302.891H1589.06V315H1574.17V312.559ZM1581.74 284.507C1581.17 283.953 1580.45 283.506 1579.59 283.164C1578.74 282.822 1577.75 282.651 1576.61 282.651C1575.47 282.651 1574.66 282.676 1574.17 282.725V280.308H1579.69C1583.35 280.308 1586.01 280.186 1587.67 279.941V291.758H1585.96C1585.56 291.367 1585.21 290.871 1584.94 290.269C1584.66 289.666 1584.38 289.032 1584.08 288.364C1583.81 287.681 1583.49 287.005 1583.13 286.338C1582.77 285.654 1582.31 285.044 1581.74 284.507ZM1574.17 294.346H1582.3V300.596H1574.17V294.346Z" fill="#C0C0C0" fill-opacity="0.29"/>
<path d="M927.523 818H890.182V812.183C891.597 811.606 892.96 811.187 894.27 810.925C895.633 810.61 896.838 810.191 897.886 809.667C900.245 808.514 901.424 806.313 901.424 803.063V721.384C901.424 718.083 900.245 715.855 897.886 714.702C896.838 714.178 895.633 713.785 894.27 713.523C892.96 713.208 891.597 712.763 890.182 712.187V706.291H927.523V818ZM962.271 725.472C959.965 721.542 957.003 718.633 953.387 716.746C949.771 714.807 946.076 713.837 942.303 713.837C938.582 713.837 935.987 713.942 934.52 714.152V706.291H942.224C960.829 706.291 975.084 712.056 984.99 723.585C993.794 733.858 998.197 746.698 998.197 762.106C998.197 778.091 993.637 791.167 984.518 801.334C974.56 812.445 960.751 818 943.089 818H934.52V810.139C936.197 810.348 938.818 810.453 942.381 810.453C945.945 810.453 949.535 809.667 953.151 808.095C956.82 806.47 959.833 803.771 962.192 799.998C966.751 792.713 969.031 780.082 969.031 762.106C969.031 745.388 966.778 733.176 962.271 725.472ZM1050.57 706.291V818H1013.38V812.183C1014.8 811.606 1016.16 811.187 1017.47 810.925C1018.83 810.61 1020.04 810.191 1021.09 809.667C1023.44 808.514 1024.62 806.313 1024.62 803.063V721.384C1024.62 718.083 1023.44 715.855 1021.09 714.702C1020.04 714.178 1018.83 713.785 1017.47 713.523C1016.16 713.208 1014.8 712.763 1013.38 712.187V706.291H1050.57ZM1057.56 810.139C1060.18 810.348 1063.51 810.453 1067.55 810.453C1071.58 810.453 1075.2 809.824 1078.4 808.566C1081.64 807.309 1084.26 805.71 1086.26 803.771C1088.3 801.779 1089.9 799.578 1091.05 797.167C1092.2 794.757 1093.2 792.398 1094.04 790.092C1094.88 787.734 1095.72 785.585 1096.55 783.646C1097.45 781.654 1098.65 780.108 1100.17 779.008H1105.52V818H1057.56V810.139ZM1081.93 719.812C1080.1 718.03 1077.79 716.589 1075.01 715.488C1072.29 714.388 1069.09 713.837 1065.42 713.837C1061.76 713.837 1059.13 713.916 1057.56 714.073V706.291H1075.33C1087.12 706.291 1095.69 705.897 1101.04 705.111V743.16H1095.53C1094.22 741.902 1093.12 740.304 1092.23 738.365C1091.34 736.426 1090.42 734.382 1089.48 732.233C1088.59 730.032 1087.57 727.857 1086.41 725.708C1085.26 723.507 1083.77 721.542 1081.93 719.812ZM1057.56 751.493H1083.74V771.618H1057.56V751.493ZM1166.3 703.854C1171.22 704.64 1176.36 706.736 1181.71 710.143C1182.65 710.771 1183.54 711.086 1184.38 711.086C1185.27 711.086 1186.11 710.614 1186.89 709.671C1187.68 708.675 1188.54 707.548 1189.49 706.291H1196.56V744.418H1190.59C1189.12 742.846 1187.55 740.225 1185.87 736.557C1184.19 732.836 1182.81 729.901 1181.71 727.752C1180.66 725.551 1179.43 723.507 1178.01 721.62C1174.81 717.427 1170.91 714.859 1166.3 713.916V703.854ZM1136.19 813.205C1134.25 813.205 1132.62 814.777 1131.31 817.921H1123.37V776.807H1128.64C1130.58 778.012 1132.39 780.606 1134.07 784.589C1135.8 788.52 1137.26 791.743 1138.47 794.259C1139.73 796.722 1141.25 799.028 1143.03 801.177C1147.17 806.103 1152.59 808.881 1159.3 809.51V819.572C1154.43 819.258 1150.21 818.419 1146.64 817.057C1143.08 815.642 1140.64 814.646 1139.33 814.069C1138.02 813.493 1136.97 813.205 1136.19 813.205ZM1166.3 809.51C1171.38 808.933 1175.36 807.256 1178.25 804.479C1181.18 801.648 1182.65 798.163 1182.65 794.023C1182.65 789.883 1181.78 786.607 1180.05 784.196C1178.38 781.785 1176.15 779.663 1173.37 777.829C1170.59 775.994 1167.42 774.343 1163.86 772.876C1160.3 771.409 1156.65 769.915 1152.93 768.395C1149.21 766.875 1145.57 765.25 1142.01 763.521C1138.44 761.739 1135.27 759.643 1132.49 757.232C1126.31 751.886 1123.22 745.099 1123.22 736.871C1123.22 728.433 1126.31 721.017 1132.49 714.624C1139.41 707.548 1148.35 703.958 1159.3 703.854V713.916C1155.06 714.335 1151.62 715.698 1149 718.004C1146.43 720.31 1145.15 723.14 1145.15 726.494C1145.15 729.848 1145.99 732.626 1147.67 734.827C1149.4 737.028 1151.65 738.994 1154.43 740.723C1157.2 742.4 1160.38 743.946 1163.94 745.361C1167.5 746.724 1171.12 748.165 1174.79 749.685C1178.51 751.153 1182.15 752.803 1185.71 754.638C1189.28 756.42 1192.45 758.568 1195.23 761.084C1201.41 766.692 1204.5 773.741 1204.5 782.231C1204.5 792.189 1201.36 800.548 1195.07 807.309C1188.1 814.908 1178.51 818.996 1166.3 819.572V809.51ZM1231.79 725.236C1231.79 720.939 1231.38 718.214 1230.54 717.061C1229.75 715.855 1228.99 715.095 1228.26 714.781C1227.58 714.466 1226.82 714.204 1225.98 713.995C1225.14 713.785 1224.25 713.575 1223.3 713.366C1222.41 713.156 1221.5 712.763 1220.55 712.187V706.291H1268.9V712.187C1267.96 712.763 1267.04 713.156 1266.15 713.366C1265.26 713.575 1264.39 713.785 1263.55 713.995C1262.72 714.204 1261.96 714.466 1261.27 714.781C1260.59 715.095 1259.99 715.646 1259.47 716.432C1258.37 718.004 1257.82 720.939 1257.82 725.236V799.133C1257.82 803.483 1258.21 806.26 1259 807.466C1259.83 808.619 1260.59 809.353 1261.27 809.667C1262.01 809.981 1262.79 810.243 1263.63 810.453C1266.15 810.977 1267.9 811.554 1268.9 812.183V818H1220.55V812.183C1221.97 811.606 1223.33 811.187 1224.64 810.925C1226 810.61 1227.21 810.191 1228.26 809.667C1230.62 808.514 1231.79 806.313 1231.79 803.063V725.236ZM1330.15 713.916C1318.05 716.641 1311.99 732.783 1311.99 762.342C1311.99 791.848 1318.05 807.571 1330.15 809.51V819.572H1328.5C1321.74 819.572 1315.56 818.079 1309.95 815.091C1304.34 812.052 1299.55 807.938 1295.56 802.749C1287.07 791.691 1282.83 778.143 1282.83 762.106C1282.83 746.174 1287.18 732.678 1295.88 721.62C1301.54 714.388 1308.51 709.304 1316.79 706.369C1320.98 704.849 1325.44 704.011 1330.15 703.854V713.916ZM1337.15 703.854C1344.12 704.535 1350.7 706.893 1356.88 710.929C1358.03 711.662 1358.98 712.029 1359.71 712.029C1360.92 712.029 1362.33 710.116 1363.96 706.291H1371.03V747.169H1365.21C1364.01 745.754 1362.62 742.846 1361.05 738.443C1359.48 734.041 1358.11 730.582 1356.96 728.066C1355.86 725.551 1354.44 723.271 1352.71 721.227C1348.73 716.563 1343.54 714.126 1337.15 713.916V703.854ZM1337.15 809.51C1341.39 809.09 1344.38 807.492 1346.11 804.714C1347.89 801.884 1348.78 798.399 1348.78 794.259C1348.78 790.118 1348.71 786.712 1348.55 784.039C1348.44 781.366 1347.97 778.955 1347.13 776.807C1345.25 772.09 1341.32 769.731 1335.34 769.731V763.6H1383.37C1383.22 764.386 1383.06 765.146 1382.9 765.879C1382.75 766.561 1382.59 767.268 1382.43 768.002C1382.27 768.736 1382.12 769.417 1381.96 770.046C1379.13 771.304 1377.24 772.928 1376.3 774.92C1375.36 776.859 1374.88 779.244 1374.88 782.074V791.586C1374.88 807.256 1367.13 816.166 1351.61 818.314C1347.05 818.943 1342.23 819.363 1337.15 819.572V809.51ZM1481.65 765.486V721.384C1481.65 718.135 1480.37 715.908 1477.8 714.702C1476.65 714.126 1475.34 713.68 1473.87 713.366C1472.4 712.999 1470.91 712.501 1469.39 711.872V706.291H1504.29V711.872C1502.83 712.501 1501.36 712.999 1499.89 713.366C1498.48 713.68 1497.19 714.126 1496.04 714.702C1493.47 715.908 1492.19 718.135 1492.19 721.384V781.052L1481.65 765.486ZM1418.92 742.06V801.098C1418.92 805.972 1421.8 809.195 1427.57 810.768C1429.09 811.187 1430.53 811.711 1431.89 812.34V818H1395.96V812.34C1397.28 811.711 1398.64 811.187 1400.05 810.768C1401.52 810.348 1402.86 809.772 1404.06 809.038C1406.94 807.413 1408.39 804.767 1408.39 801.098V726.416L1418.92 742.06ZM1411.77 718.947C1409.25 718.476 1407.02 718.056 1405.08 717.689C1400.68 716.956 1397.88 716.432 1396.67 716.117V706.291H1433.23L1492.19 793.551V818H1478.59L1411.77 718.947ZM1559.1 703.854C1564.03 704.64 1569.16 706.736 1574.51 710.143C1575.45 710.771 1576.34 711.086 1577.18 711.086C1578.07 711.086 1578.91 710.614 1579.7 709.671C1580.48 708.675 1581.35 707.548 1582.29 706.291H1589.37V744.418H1583.39C1581.92 742.846 1580.35 740.225 1578.67 736.557C1577 732.836 1575.61 729.901 1574.51 727.752C1573.46 725.551 1572.23 723.507 1570.81 721.62C1567.62 717.427 1563.71 714.859 1559.1 713.916V703.854ZM1528.99 813.205C1527.05 813.205 1525.43 814.777 1524.12 817.921H1516.18V776.807H1521.44C1523.38 778.012 1525.19 780.606 1526.87 784.589C1528.6 788.52 1530.07 791.743 1531.27 794.259C1532.53 796.722 1534.05 799.028 1535.83 801.177C1539.97 806.103 1545.4 808.881 1552.1 809.51V819.572C1547.23 819.258 1543.01 818.419 1539.45 817.057C1535.88 815.642 1533.45 814.646 1532.14 814.069C1530.83 813.493 1529.78 813.205 1528.99 813.205ZM1559.1 809.51C1564.18 808.933 1568.17 807.256 1571.05 804.479C1573.98 801.648 1575.45 798.163 1575.45 794.023C1575.45 789.883 1574.59 786.607 1572.86 784.196C1571.18 781.785 1568.95 779.663 1566.18 777.829C1563.4 775.994 1560.23 774.343 1556.66 772.876C1553.1 771.409 1549.46 769.915 1545.74 768.395C1542.01 766.875 1538.37 765.25 1534.81 763.521C1531.24 761.739 1528.07 759.643 1525.3 757.232C1519.11 751.886 1516.02 745.099 1516.02 736.871C1516.02 728.433 1519.11 721.017 1525.3 714.624C1532.21 707.548 1541.15 703.958 1552.1 703.854V713.916C1547.86 714.335 1544.43 715.698 1541.81 718.004C1539.24 720.31 1537.95 723.14 1537.95 726.494C1537.95 729.848 1538.79 732.626 1540.47 734.827C1542.2 737.028 1544.45 738.994 1547.23 740.723C1550.01 742.4 1553.18 743.946 1556.74 745.361C1560.31 746.724 1563.92 748.165 1567.59 749.685C1571.31 751.153 1574.95 752.803 1578.52 754.638C1582.08 756.42 1585.25 758.568 1588.03 761.084C1594.21 766.692 1597.31 773.741 1597.31 782.231C1597.31 792.189 1594.16 800.548 1587.87 807.309C1580.9 814.908 1571.31 818.996 1559.1 819.572V809.51Z" fill="#C0C0C0" fill-opacity="0.29"/>
<path d="M34.9121 2.7998V93H4.8877V88.3027C6.03027 87.8372 7.13053 87.4987 8.18848 87.2871C9.28874 87.0332 10.262 86.6947 11.1084 86.2715C13.0127 85.3405 13.9648 83.5632 13.9648 80.9395V14.9873C13.9648 12.3213 13.0127 10.5228 11.1084 9.5918C10.262 9.16862 9.28874 8.85124 8.18848 8.63965C7.13053 8.38574 6.03027 8.02604 4.8877 7.56055V2.7998H34.9121ZM40.5615 86.6523C42.6774 86.8216 45.3646 86.9062 48.623 86.9062C51.8815 86.9062 54.8014 86.3984 57.3828 85.3828C60.0065 84.3672 62.1224 83.0765 63.7305 81.5107C65.3809 79.9027 66.6715 78.1253 67.6025 76.1787C68.5335 74.2321 69.3376 72.3278 70.0146 70.4658C70.6917 68.5615 71.3688 66.8265 72.0459 65.2607C72.7653 63.6527 73.7386 62.4043 74.9658 61.5156H79.2822V93H40.5615V86.6523ZM60.2393 13.7178C58.7581 12.279 56.8962 11.1152 54.6533 10.2266C52.4528 9.33789 49.8714 8.89355 46.9092 8.89355C43.9469 8.89355 41.8311 8.95703 40.5615 9.08398V2.7998H54.9072C64.4287 2.7998 71.3477 2.48242 75.6641 1.84766V32.5703H71.2207C70.1628 31.5547 69.2741 30.264 68.5547 28.6982C67.8353 27.1325 67.0947 25.4821 66.333 23.7471C65.6136 21.9697 64.7884 20.2135 63.8574 18.4785C62.9264 16.7012 61.7204 15.1143 60.2393 13.7178ZM40.5615 39.2988H61.6992V55.5488H40.5615V39.2988ZM122.526 93H92.375V88.3027C93.5176 87.8372 94.6178 87.4987 95.6758 87.2871C96.776 87.0332 97.7493 86.6947 98.5957 86.2715C100.5 85.3405 101.452 83.5632 101.452 80.9395V14.9873C101.452 12.3213 100.5 10.5228 98.5957 9.5918C97.7493 9.16862 96.776 8.85124 95.6758 8.63965C94.6178 8.38574 93.5176 8.02604 92.375 7.56055V2.7998H122.526V93ZM150.583 18.2881C148.721 15.1143 146.33 12.7656 143.41 11.2422C140.49 9.67643 137.507 8.89355 134.46 8.89355C131.455 8.89355 129.361 8.97819 128.176 9.14746V2.7998H134.396C149.419 2.7998 160.93 7.45475 168.928 16.7646C176.037 25.0589 179.592 35.4268 179.592 47.8682C179.592 60.7751 175.91 71.3333 168.547 79.543C160.507 88.5143 149.356 93 135.095 93H128.176V86.6523C129.53 86.8216 131.646 86.9062 134.523 86.9062C137.401 86.9062 140.3 86.2715 143.22 85.002C146.182 83.6901 148.615 81.5107 150.52 78.4639C154.201 72.5817 156.042 62.3831 156.042 47.8682C156.042 34.3688 154.222 24.5088 150.583 18.2881ZM241.752 86.1445C248.1 85.7214 252.522 83.8594 255.019 80.5586C257.304 77.5117 258.446 72.5182 258.446 65.5781V15.3682C258.446 12.4059 257.346 10.4382 255.146 9.46484C254.172 8.99935 253.093 8.66081 251.908 8.44922C250.766 8.19531 249.644 7.81445 248.544 7.30664V2.7998H276.347V7.30664C275.416 7.77214 274.4 8.11068 273.3 8.32227C272.242 8.53385 271.247 8.83008 270.316 9.21094C268.201 10.1842 267.143 12.0251 267.143 14.7334V64.8164C267.143 73.7878 265.281 80.6009 261.557 85.2559C257.579 90.207 250.977 93.2116 241.752 94.2695V86.1445ZM236.103 94.2695C217.017 94.2695 205.359 89.7839 201.127 80.8125C199.688 77.8079 198.969 74.2956 198.969 70.2754V14.7334C198.969 12.0674 197.911 10.29 195.795 9.40137C194.906 9.02051 193.912 8.72428 192.812 8.5127C191.754 8.25879 190.738 7.85677 189.765 7.30664V2.7998H230.136V7.30664C228.951 7.77214 227.787 8.11068 226.645 8.32227C225.502 8.49154 224.486 8.7666 223.598 9.14746C221.609 9.99382 220.614 11.7288 220.614 14.3525V67.6729C220.614 76.0941 223.323 81.6377 228.739 84.3037C230.728 85.277 233.183 85.8906 236.103 86.1445V94.2695ZM328.287 86.1445C333.577 86.0599 337.851 84.3672 341.109 81.0664C345.299 76.9193 347.711 70.0638 348.346 60.5L355.646 62.9756C354.461 77.1097 349.404 86.5677 340.475 91.3496C337.132 93.127 333.069 94.1003 328.287 94.2695V86.1445ZM307.086 47.1064C307.086 70.8467 312.27 83.8594 322.638 86.1445V94.2695C310.873 93.7617 301.373 89.1702 294.137 80.4951C287.07 71.9469 283.536 61.1136 283.536 47.9951C283.536 34.4111 287.239 23.1546 294.645 14.2256C298.157 10.0361 302.304 6.75651 307.086 4.38672C311.868 2.01693 317.052 0.832031 322.638 0.832031V8.95703C314.301 10.2689 309.371 18.013 307.848 32.1895C307.34 36.6751 307.086 41.6475 307.086 47.1064ZM328.287 0.832031C331.757 1.33984 334.677 2.16504 337.047 3.30762C339.459 4.4502 341.088 5.25423 341.935 5.71973C342.823 6.18522 343.564 6.41797 344.156 6.41797C344.749 6.41797 345.257 6.07943 345.68 5.40234C346.145 4.72526 346.632 3.85775 347.14 2.7998H353.17V35.5537H348.346C347.288 34.0726 346.061 31.6182 344.664 28.1904C343.268 24.7204 342.104 22.0332 341.173 20.1289C340.284 18.2246 339.247 16.4896 338.062 14.9238C335.312 11.4115 332.053 9.42253 328.287 8.95703V0.832031ZM395.779 16.5107L386.639 13.7178C386.893 11.9404 387.062 10.3535 387.146 8.95703C387.231 7.51823 387.4 6.2487 387.654 5.14844C391.336 3.49805 397.451 2.14388 405.999 1.08594C407.353 0.916667 408.538 0.832031 409.554 0.832031C410.612 2.10156 411.373 3.30762 411.839 4.4502L441.229 78.4639C442.498 81.7223 443.958 84.1344 445.608 85.7002C447.301 87.2236 449.417 88.0911 451.956 88.3027V93H411.395V89.001C412.452 88.3662 413.532 87.9007 414.632 87.6045C415.774 87.266 416.811 86.9486 417.742 86.6523C419.773 86.0599 420.789 85.002 420.789 83.4785C420.789 82.6322 420.387 81.1722 419.583 79.0986L395.779 16.5107ZM396.858 36.125L382.576 77.0039C381.899 78.9082 381.561 80.4951 381.561 81.7646C381.561 83.0342 381.92 84.0286 382.64 84.748C383.359 85.4251 384.248 85.9753 385.306 86.3984C386.406 86.7793 387.57 87.1178 388.797 87.4141C390.024 87.7103 391.167 88.1335 392.225 88.6836V93H361.819V88.6836C362.666 88.1335 363.576 87.6891 364.549 87.3506C365.564 87.012 366.58 86.5677 367.596 86.0176C369.965 84.6211 371.743 82.3148 372.928 79.0986L392.669 24.8896L396.858 36.125ZM408.284 65.959H392.669L394.764 59.2305H405.745L408.284 65.959ZM452.1 1.84766C457.559 2.48242 460.584 2.7998 461.177 2.7998H474.697V9.21094C468.138 9.8457 463.906 13.1465 462.002 19.1133C461.494 20.806 460.986 22.4564 460.479 24.0645C459.167 28.2962 457.686 31.0892 456.035 32.4434H452.1V1.84766ZM501.484 77.2578C501.484 81.9974 502.542 84.9173 504.658 86.0176C505.632 86.4831 506.732 86.8005 507.959 86.9697C509.229 87.139 510.54 87.5833 511.895 88.3027V93H469.746V88.3027C471.1 87.8372 472.412 87.4564 473.682 87.1602C474.951 86.8216 476.094 86.3984 477.109 85.8906C479.268 84.7057 480.347 82.7803 480.347 80.1143V2.7998H501.484V77.2578ZM520.654 2.7998C521.247 2.7998 524.272 2.48242 529.731 1.84766V32.4434H525.796C524.146 31.0892 522.855 28.9521 521.924 26.0322C521.035 23.1123 520.316 20.8271 519.766 19.1768C519.215 17.484 518.454 15.9395 517.48 14.543C515.322 11.4538 511.873 9.67643 507.134 9.21094V2.7998H520.654ZM548.474 18.0977C548.474 14.6276 548.135 12.4271 547.458 11.4961C546.823 10.5228 546.21 9.90918 545.617 9.65527C545.067 9.40137 544.453 9.18978 543.776 9.02051C543.099 8.85124 542.38 8.68197 541.618 8.5127C540.899 8.34342 540.158 8.02604 539.396 7.56055V2.7998H578.435V7.56055C577.673 8.02604 576.932 8.34342 576.213 8.5127C575.493 8.68197 574.795 8.85124 574.118 9.02051C573.441 9.18978 572.827 9.40137 572.277 9.65527C571.727 9.90918 571.241 10.3535 570.817 10.9883C569.929 12.2578 569.484 14.6276 569.484 18.0977V77.7656C569.484 81.278 569.802 83.5208 570.437 84.4941C571.114 85.4251 571.727 86.0176 572.277 86.2715C572.87 86.5254 573.505 86.737 574.182 86.9062C576.213 87.3294 577.631 87.7949 578.435 88.3027V93H539.396V88.3027C540.539 87.8372 541.639 87.4987 542.697 87.2871C543.798 87.0332 544.771 86.6947 545.617 86.2715C547.521 85.3405 548.474 83.5632 548.474 80.9395V18.0977ZM630.946 94.2695C618.716 93.7194 608.92 88.8529 601.557 79.6699C594.617 71.1217 591.146 60.5212 591.146 47.8682C591.146 35.2152 594.553 24.5088 601.366 15.749C608.645 6.39681 618.293 1.42448 630.312 0.832031V8.95703C621.806 10.3112 616.812 18.7324 615.331 34.2207C614.908 38.6641 614.696 43.2344 614.696 47.9316C614.696 52.5866 614.908 57.1146 615.331 61.5156C615.797 65.8743 616.622 69.8099 617.807 73.3223C620.473 80.9395 624.853 85.2135 630.946 86.1445V94.2695ZM651.513 47.8682C651.513 23.4085 646.329 10.4382 635.961 8.95703V0.832031C648.064 1.4668 657.712 6.43913 664.906 15.749C671.719 24.5511 675.126 35.2575 675.126 47.8682C675.126 60.4365 671.783 71.0371 665.097 79.6699C658.03 88.7682 648.529 93.6348 636.596 94.2695V86.1445C644.763 85.0443 649.545 76.8346 650.941 61.5156C651.322 57.1146 651.513 52.5654 651.513 47.8682ZM755.567 50.5977V14.9873C755.567 12.3636 754.531 10.5651 752.457 9.5918C751.526 9.1263 750.468 8.7666 749.283 8.5127C748.098 8.21647 746.892 7.81445 745.665 7.30664V2.7998H773.849V7.30664C772.664 7.81445 771.479 8.21647 770.294 8.5127C769.151 8.7666 768.115 9.1263 767.184 9.5918C765.11 10.5651 764.073 12.3636 764.073 14.9873V63.166L755.567 50.5977ZM704.913 31.6816V79.3525C704.913 83.2881 707.241 85.8906 711.896 87.1602C713.123 87.4987 714.286 87.9219 715.387 88.4297V93H686.378V88.4297C687.436 87.9219 688.536 87.4987 689.679 87.1602C690.864 86.8216 691.943 86.3561 692.916 85.7637C695.243 84.4518 696.407 82.3148 696.407 79.3525V19.0498L704.913 31.6816ZM699.137 13.0195C697.105 12.6387 695.307 12.3001 693.741 12.0039C690.187 11.4115 687.923 10.9883 686.949 10.7344V2.7998H716.466L764.073 73.2588V93H753.092L699.137 13.0195Z" fill="#C0C0C0" fill-opacity="0.29"/>
<path d="M848.465 83.8828C852.664 84.3711 854.992 84.6152 855.447 84.6152H865.848V89.5469C860.802 90.0352 857.547 92.5742 856.082 97.1641C855.691 98.4661 855.301 99.7357 854.91 100.973C853.901 104.228 852.762 106.376 851.492 107.418H848.465V83.8828ZM886.453 141.891C886.453 145.536 887.267 147.783 888.895 148.629C889.643 148.987 890.49 149.231 891.434 149.361C892.41 149.492 893.419 149.833 894.461 150.387V154H862.039V150.387C863.081 150.029 864.09 149.736 865.066 149.508C866.043 149.247 866.922 148.922 867.703 148.531C869.363 147.62 870.193 146.139 870.193 144.088V84.6152H886.453V141.891ZM901.199 84.6152C901.655 84.6152 903.982 84.3711 908.182 83.8828V107.418H905.154C903.885 106.376 902.892 104.732 902.176 102.486C901.492 100.24 900.939 98.4824 900.516 97.2129C900.092 95.9108 899.507 94.7227 898.758 93.6484C897.098 91.2721 894.445 89.9049 890.799 89.5469V84.6152H901.199ZM979.395 147.75C976.693 152.6 972.201 155.025 965.918 155.025C960.286 155.025 956.299 152.372 953.955 147.066C952.881 144.625 951.953 141.874 951.172 138.814C950.391 135.722 949.707 133.346 949.121 131.686C947.786 127.877 946.029 125.143 943.848 123.482V116.305C947.721 115.947 950.488 114.905 952.148 113.18C954.102 111.096 955.078 107.809 955.078 103.316C955.078 98.2057 954.183 94.625 952.393 92.5742C950.732 90.6211 947.884 89.5469 943.848 89.3516V84.6152H949.609C957.227 84.6152 963.053 86.3568 967.09 89.8398C970.736 92.9648 972.559 97.1152 972.559 102.291C972.559 110.104 968.506 115.296 960.4 117.867C957.796 118.714 954.834 119.218 951.514 119.381V119.82C954.541 120.309 956.738 121.025 958.105 121.969C961.165 124.085 963.542 127.226 965.234 131.393C965.82 132.792 966.374 134.225 966.895 135.689C967.448 137.154 967.985 138.587 968.506 139.986C969.027 141.386 969.58 142.639 970.166 143.746C971.468 146.188 972.803 147.408 974.17 147.408C974.854 147.408 975.456 147.018 975.977 146.236C976.53 145.423 976.986 144.837 977.344 144.479C977.702 144.088 978.109 143.893 978.564 143.893C979.02 143.893 979.297 143.909 979.395 143.941V147.75ZM939.502 84.6152V144.723C939.502 146.741 940.234 148.108 941.699 148.824C942.383 149.15 943.132 149.41 943.945 149.605C944.792 149.768 945.654 150.029 946.533 150.387V154H916.406V150.387C917.285 150.029 918.132 149.768 918.945 149.605C919.792 149.41 920.54 149.15 921.191 148.824C922.656 148.108 923.389 146.741 923.389 144.723V93.9902C923.389 91.9395 922.656 90.556 921.191 89.8398C920.54 89.5143 919.792 89.2702 918.945 89.1074C918.132 88.9121 917.285 88.6354 916.406 88.2773V84.6152H939.502ZM1008.96 95.1621L1001.93 93.0137C1002.12 91.6465 1002.25 90.4258 1002.32 89.3516C1002.38 88.2448 1002.51 87.2682 1002.71 86.4219C1005.54 85.1523 1010.24 84.1107 1016.82 83.2969C1017.86 83.1667 1018.77 83.1016 1019.55 83.1016C1020.37 84.0781 1020.95 85.0059 1021.31 85.8848L1043.92 142.818C1044.89 145.325 1046.02 147.18 1047.29 148.385C1048.59 149.557 1050.22 150.224 1052.17 150.387V154H1020.97V150.924C1021.78 150.436 1022.61 150.077 1023.46 149.85C1024.34 149.589 1025.14 149.345 1025.85 149.117C1027.41 148.661 1028.2 147.848 1028.2 146.676C1028.2 146.025 1027.89 144.902 1027.27 143.307L1008.96 95.1621ZM1009.79 110.25L998.801 141.695C998.28 143.16 998.02 144.381 998.02 145.357C998.02 146.334 998.296 147.099 998.85 147.652C999.403 148.173 1000.09 148.596 1000.9 148.922C1001.75 149.215 1002.64 149.475 1003.59 149.703C1004.53 149.931 1005.41 150.257 1006.22 150.68V154H982.834V150.68C983.485 150.257 984.185 149.915 984.934 149.654C985.715 149.394 986.496 149.052 987.277 148.629C989.1 147.555 990.467 145.781 991.379 143.307L1006.56 101.607L1009.79 110.25ZM1018.58 133.199H1006.56L1008.18 128.023H1016.62L1018.58 133.199ZM1086.47 131.1L1098.29 96.5781C1098.71 95.3086 1098.92 94.1367 1098.92 93.0625C1098.92 91.9883 1098.68 91.2233 1098.19 90.7676C1097.7 90.2793 1097.11 89.9538 1096.43 89.791C1095.75 89.5957 1095.03 89.4492 1094.28 89.3516C1093.53 89.2214 1092.9 88.9121 1092.38 88.4238V84.6152H1112.59V88.2773C1112.04 88.668 1111.44 88.9772 1110.79 89.2051C1110.13 89.4004 1109.48 89.6445 1108.83 89.9375C1107.27 90.7188 1106.23 91.9069 1105.71 93.502L1089.5 139.791L1086.47 131.1ZM1088.18 143.404L1084.42 154H1075.97L1054.39 93.4043C1053.57 91.1257 1051.85 89.6771 1049.21 89.0586C1048.53 88.8958 1047.88 88.6354 1047.26 88.2773V84.6152H1078.31V88.1797C1077.57 88.4727 1076.78 88.7168 1075.97 88.9121C1075.16 89.1074 1074.39 89.3516 1073.68 89.6445C1072.05 90.2956 1071.23 91.321 1071.23 92.7207C1071.23 93.5345 1071.69 95.2598 1072.6 97.8965L1088.18 143.404ZM1139.08 84.6152V154H1115.98V150.387C1116.86 150.029 1117.71 149.768 1118.52 149.605C1119.37 149.41 1120.12 149.15 1120.77 148.824C1122.23 148.108 1122.96 146.741 1122.96 144.723V93.9902C1122.96 91.9395 1122.23 90.556 1120.77 89.8398C1120.12 89.5143 1119.37 89.2702 1118.52 89.1074C1117.71 88.9121 1116.86 88.6354 1115.98 88.2773V84.6152H1139.08ZM1143.42 149.117C1145.05 149.247 1147.12 149.312 1149.62 149.312C1152.13 149.312 1154.38 148.922 1156.36 148.141C1158.38 147.359 1160.01 146.367 1161.25 145.162C1162.52 143.925 1163.51 142.558 1164.22 141.061C1164.94 139.563 1165.56 138.098 1166.08 136.666C1166.6 135.201 1167.12 133.867 1167.64 132.662C1168.2 131.425 1168.94 130.465 1169.89 129.781H1173.21V154H1143.42V149.117ZM1158.56 93.0137C1157.42 91.9069 1155.99 91.0117 1154.26 90.3281C1152.57 89.6445 1150.59 89.3027 1148.31 89.3027C1146.03 89.3027 1144.4 89.3516 1143.42 89.4492V84.6152H1154.46C1161.78 84.6152 1167.11 84.3711 1170.43 83.8828V107.516H1167.01C1166.19 106.734 1165.51 105.742 1164.96 104.537C1164.4 103.333 1163.83 102.063 1163.25 100.729C1162.69 99.3613 1162.06 98.0104 1161.34 96.6758C1160.63 95.3086 1159.7 94.0879 1158.56 93.0137ZM1143.42 112.691H1159.68V125.191H1143.42V112.691ZM1212.49 149.264C1212.68 149.296 1212.9 149.312 1213.12 149.312C1213.35 149.312 1213.58 149.312 1213.81 149.312C1221.16 149.312 1226.13 146.546 1228.7 141.012C1229.38 139.514 1229.97 138.049 1230.46 136.617C1230.98 135.152 1231.48 133.801 1231.97 132.564C1232.49 131.327 1233.18 130.367 1234.02 129.684H1237.34V154H1212.49V149.264ZM1208.09 154H1184.9V150.387C1185.78 150.029 1186.63 149.768 1187.44 149.605C1188.29 149.41 1189.03 149.15 1189.69 148.824C1191.15 148.108 1191.88 146.741 1191.88 144.723V93.9902C1191.88 91.9395 1191.15 90.556 1189.69 89.8398C1189.03 89.5143 1188.29 89.2702 1187.44 89.1074C1186.63 88.9121 1185.78 88.6354 1184.9 88.2773V84.6152H1215.42V88.2773C1214.44 88.6354 1213.51 88.9121 1212.63 89.1074C1211.76 89.2702 1210.99 89.5143 1210.34 89.8398C1208.84 90.556 1208.09 91.9395 1208.09 93.9902V154Z" fill="#C0C0C0" fill-opacity="0.29"/>
<path d="M873.839 373.643C875.897 373.882 877.037 374.001 877.261 374.001H882.357V376.418C879.885 376.657 878.29 377.901 877.572 380.15C877.38 380.788 877.189 381.41 876.998 382.017C876.503 383.612 875.945 384.664 875.323 385.175H873.839V373.643ZM892.454 402.066C892.454 403.853 892.852 404.953 893.65 405.368C894.017 405.544 894.431 405.663 894.894 405.727C895.373 405.791 895.867 405.958 896.377 406.229V408H880.491V406.229C881.001 406.054 881.496 405.91 881.974 405.799C882.453 405.671 882.883 405.512 883.266 405.32C884.08 404.874 884.486 404.148 884.486 403.143V374.001H892.454V402.066ZM899.679 374.001C899.903 374.001 901.043 373.882 903.101 373.643V385.175H901.617C900.995 384.664 900.509 383.859 900.158 382.758C899.823 381.658 899.552 380.796 899.344 380.174C899.137 379.536 898.85 378.954 898.483 378.428C897.669 377.263 896.369 376.593 894.583 376.418V374.001H899.679ZM939.525 404.938C938.201 407.314 936 408.502 932.921 408.502C930.162 408.502 928.208 407.202 927.06 404.603C926.533 403.406 926.079 402.058 925.696 400.559C925.313 399.044 924.978 397.879 924.691 397.066C924.037 395.2 923.176 393.86 922.107 393.046V389.529C924.005 389.354 925.361 388.843 926.174 387.998C927.131 386.977 927.61 385.366 927.61 383.165C927.61 380.661 927.171 378.906 926.294 377.901C925.48 376.944 924.085 376.418 922.107 376.322V374.001H924.93C928.663 374.001 931.518 374.855 933.496 376.562C935.282 378.093 936.175 380.126 936.175 382.663C936.175 386.491 934.189 389.035 930.218 390.295C928.942 390.71 927.49 390.957 925.863 391.037V391.252C927.347 391.491 928.423 391.842 929.093 392.305C930.593 393.341 931.757 394.881 932.586 396.922C932.874 397.608 933.145 398.31 933.4 399.028C933.671 399.746 933.934 400.447 934.189 401.133C934.445 401.819 934.716 402.433 935.003 402.976C935.641 404.172 936.295 404.77 936.965 404.77C937.3 404.77 937.595 404.579 937.85 404.196C938.121 403.797 938.345 403.51 938.52 403.334C938.695 403.143 938.895 403.047 939.118 403.047C939.341 403.047 939.477 403.055 939.525 403.071V404.938ZM919.978 374.001V403.454C919.978 404.443 920.336 405.113 921.054 405.464C921.389 405.623 921.756 405.751 922.155 405.847C922.569 405.926 922.992 406.054 923.423 406.229V408H908.661V406.229C909.091 406.054 909.506 405.926 909.905 405.847C910.319 405.751 910.686 405.623 911.005 405.464C911.723 405.113 912.082 404.443 912.082 403.454V378.595C912.082 377.59 911.723 376.912 911.005 376.562C910.686 376.402 910.319 376.282 909.905 376.203C909.506 376.107 909.091 375.971 908.661 375.796V374.001H919.978ZM955.541 379.169L952.095 378.117C952.191 377.447 952.255 376.849 952.287 376.322C952.319 375.78 952.382 375.301 952.478 374.887C953.866 374.265 956.171 373.754 959.393 373.355C959.903 373.292 960.35 373.26 960.732 373.26C961.131 373.738 961.418 374.193 961.594 374.624L972.671 402.521C973.15 403.749 973.7 404.658 974.322 405.249C974.96 405.823 975.758 406.15 976.715 406.229V408H961.426V406.493C961.825 406.253 962.232 406.078 962.646 405.966C963.077 405.839 963.468 405.719 963.819 405.607C964.584 405.384 964.967 404.985 964.967 404.411C964.967 404.092 964.816 403.542 964.513 402.76L955.541 379.169ZM955.947 386.562L950.564 401.971C950.309 402.688 950.181 403.287 950.181 403.765C950.181 404.244 950.317 404.618 950.588 404.89C950.859 405.145 951.194 405.352 951.593 405.512C952.007 405.655 952.446 405.783 952.909 405.895C953.371 406.006 953.802 406.166 954.201 406.373V408H942.74V406.373C943.059 406.166 943.402 405.998 943.769 405.871C944.152 405.743 944.535 405.576 944.917 405.368C945.811 404.842 946.481 403.972 946.927 402.76L954.368 382.328L955.947 386.562ZM960.254 397.808H954.368L955.158 395.271H959.297L960.254 397.808ZM995.051 396.779L1000.84 379.863C1001.05 379.241 1001.15 378.667 1001.15 378.141C1001.15 377.614 1001.03 377.239 1000.79 377.016C1000.55 376.777 1000.27 376.617 999.932 376.538C999.597 376.442 999.246 376.37 998.879 376.322C998.513 376.258 998.201 376.107 997.946 375.868V374.001H1007.85V375.796C1007.58 375.987 1007.29 376.139 1006.97 376.25C1006.65 376.346 1006.33 376.466 1006.01 376.609C1005.24 376.992 1004.73 377.574 1004.48 378.356L996.535 401.038L995.051 396.779ZM995.889 402.808L994.046 408H989.907L979.332 378.308C978.933 377.192 978.088 376.482 976.796 376.179C976.461 376.099 976.142 375.971 975.839 375.796V374.001H991.056V375.748C990.689 375.892 990.306 376.011 989.907 376.107C989.508 376.203 989.134 376.322 988.783 376.466C987.985 376.785 987.586 377.287 987.586 377.973C987.586 378.372 987.81 379.217 988.256 380.509L995.889 402.808ZM1022.36 374.001V408H1011.04V406.229C1011.47 406.054 1011.89 405.926 1012.29 405.847C1012.7 405.751 1013.07 405.623 1013.39 405.464C1014.11 405.113 1014.46 404.443 1014.46 403.454V378.595C1014.46 377.59 1014.11 376.912 1013.39 376.562C1013.07 376.402 1012.7 376.282 1012.29 376.203C1011.89 376.107 1011.47 375.971 1011.04 375.796V374.001H1022.36ZM1024.49 405.607C1025.29 405.671 1026.3 405.703 1027.53 405.703C1028.76 405.703 1029.86 405.512 1030.83 405.129C1031.82 404.746 1032.62 404.26 1033.22 403.669C1033.84 403.063 1034.33 402.393 1034.68 401.66C1035.03 400.926 1035.34 400.208 1035.59 399.506C1035.85 398.789 1036.1 398.135 1036.36 397.544C1036.63 396.938 1036.99 396.468 1037.46 396.133H1039.08V408H1024.49V405.607ZM1031.91 378.117C1031.35 377.574 1030.65 377.136 1029.8 376.801C1028.97 376.466 1028 376.298 1026.88 376.298C1025.77 376.298 1024.97 376.322 1024.49 376.37V374.001H1029.9C1033.49 374.001 1036.09 373.882 1037.72 373.643V385.223H1036.05C1035.65 384.84 1035.31 384.353 1035.04 383.763C1034.77 383.173 1034.49 382.551 1034.2 381.897C1033.93 381.227 1033.62 380.565 1033.27 379.911C1032.92 379.241 1032.46 378.643 1031.91 378.117ZM1024.49 387.759H1032.46V393.884H1024.49V387.759ZM1059.86 405.679C1059.96 405.695 1060.06 405.703 1060.17 405.703C1060.28 405.703 1060.4 405.703 1060.51 405.703C1064.11 405.703 1066.54 404.347 1067.8 401.636C1068.14 400.902 1068.43 400.184 1068.67 399.482C1068.92 398.765 1069.17 398.103 1069.41 397.497C1069.66 396.89 1070 396.42 1070.41 396.085H1072.04V408H1059.86V405.679ZM1057.71 408H1046.34V406.229C1046.77 406.054 1047.19 405.926 1047.59 405.847C1048 405.751 1048.37 405.623 1048.69 405.464C1049.41 405.113 1049.76 404.443 1049.76 403.454V378.595C1049.76 377.59 1049.41 376.912 1048.69 376.562C1048.37 376.402 1048 376.282 1047.59 376.203C1047.19 376.107 1046.77 375.971 1046.34 375.796V374.001H1061.3V375.796C1060.82 375.971 1060.36 376.107 1059.93 376.203C1059.5 376.282 1059.13 376.402 1058.81 376.562C1058.07 376.912 1057.71 377.59 1057.71 378.595V408Z" fill="#C0C0C0" fill-opacity="0.29"/>
<path d="M86.7158 595.738V664.703C86.7158 667.867 87.0674 669.918 87.7705 670.855C88.5127 671.793 89.1963 672.398 89.8213 672.672C90.4854 672.906 91.1885 673.102 91.9307 673.258C92.7119 673.414 93.5322 673.59 94.3916 673.785C95.29 673.941 96.208 674.234 97.1455 674.664V679H58.8838V674.664C59.9385 674.234 60.9541 673.922 61.9307 673.727C62.9463 673.492 63.8447 673.18 64.626 672.789C66.3838 671.93 67.2627 670.289 67.2627 667.867V609.625C67.2627 606.539 66.9502 604.566 66.3252 603.707C65.7002 602.809 65.1143 602.242 64.5674 602.008C64.0596 601.773 63.4932 601.598 62.8682 601.48C61.0713 601.129 59.7432 600.68 58.8838 600.133V595.738H86.7158ZM109.919 595.738C116.56 595.738 121.403 595.445 124.45 594.859V623.219H120.349C119.177 622.242 118.259 621.031 117.595 619.586C116.931 618.102 116.286 616.559 115.661 614.957C115.036 613.316 114.313 611.695 113.493 610.094C112.712 608.492 111.579 607.047 110.095 605.758C106.853 602.828 101.95 601.363 95.3877 601.363C94.1377 601.363 92.9854 601.422 91.9307 601.539V595.738H109.919ZM91.9307 632.418L95.0361 632.184C99.0596 631.91 101.677 630.465 102.888 627.848C103.239 627.105 103.571 626.344 103.884 625.562C104.782 623.453 105.739 621.91 106.755 620.934H111.091V649.938H106.755C105.778 649.117 104.938 648.004 104.235 646.598C103.571 645.191 102.985 644.137 102.478 643.434C102.009 642.691 101.345 642.027 100.485 641.441C98.6104 640.113 95.7588 639.352 91.9307 639.156V632.418ZM143.388 609.859C143.388 606.656 143.075 604.625 142.45 603.766C141.864 602.867 141.298 602.301 140.751 602.066C140.243 601.832 139.677 601.637 139.052 601.48C138.427 601.324 137.763 601.168 137.06 601.012C136.396 600.855 135.712 600.562 135.009 600.133V595.738H171.044V600.133C170.341 600.562 169.657 600.855 168.993 601.012C168.329 601.168 167.685 601.324 167.06 601.48C166.435 601.637 165.868 601.832 165.36 602.066C164.853 602.301 164.403 602.711 164.013 603.297C163.192 604.469 162.782 606.656 162.782 609.859V664.938C162.782 668.18 163.075 670.25 163.661 671.148C164.286 672.008 164.853 672.555 165.36 672.789C165.907 673.023 166.493 673.219 167.118 673.375C168.993 673.766 170.302 674.195 171.044 674.664V679H135.009V674.664C136.063 674.234 137.079 673.922 138.056 673.727C139.071 673.492 139.97 673.18 140.751 672.789C142.509 671.93 143.388 670.289 143.388 667.867V609.859ZM223.321 672.672C228.204 672.594 232.149 671.031 235.157 667.984C239.024 664.156 241.251 657.828 241.837 649L248.575 651.285C247.481 664.332 242.813 673.062 234.571 677.477C231.485 679.117 227.735 680.016 223.321 680.172V672.672ZM203.751 636.637C203.751 658.551 208.536 670.562 218.106 672.672V680.172C207.247 679.703 198.478 675.465 191.798 667.457C185.274 659.566 182.013 649.566 182.013 637.457C182.013 624.918 185.431 614.527 192.267 606.285C195.509 602.418 199.337 599.391 203.751 597.203C208.165 595.016 212.95 593.922 218.106 593.922V601.422C210.411 602.633 205.86 609.781 204.454 622.867C203.985 627.008 203.751 631.598 203.751 636.637ZM223.321 593.922C226.524 594.391 229.22 595.152 231.407 596.207C233.634 597.262 235.138 598.004 235.919 598.434C236.739 598.863 237.423 599.078 237.97 599.078C238.517 599.078 238.985 598.766 239.376 598.141C239.806 597.516 240.255 596.715 240.724 595.738H246.29V625.973H241.837C240.86 624.605 239.728 622.34 238.438 619.176C237.149 615.973 236.075 613.492 235.216 611.734C234.396 609.977 233.438 608.375 232.345 606.93C229.806 603.688 226.798 601.852 223.321 601.422V593.922ZM258.548 594.859C263.587 595.445 266.38 595.738 266.927 595.738H279.407V601.656C273.353 602.242 269.446 605.289 267.688 610.797C267.22 612.359 266.751 613.883 266.282 615.367C265.071 619.273 263.704 621.852 262.181 623.102H258.548V594.859ZM304.134 664.469C304.134 668.844 305.11 671.539 307.063 672.555C307.962 672.984 308.978 673.277 310.11 673.434C311.282 673.59 312.493 674 313.743 674.664V679H274.837V674.664C276.087 674.234 277.298 673.883 278.47 673.609C279.642 673.297 280.696 672.906 281.634 672.438C283.626 671.344 284.622 669.566 284.622 667.105V595.738H304.134V664.469ZM321.829 595.738C322.376 595.738 325.169 595.445 330.208 594.859V623.102H326.575C325.052 621.852 323.86 619.879 323.001 617.184C322.181 614.488 321.517 612.379 321.009 610.855C320.501 609.293 319.798 607.867 318.899 606.578C316.907 603.727 313.724 602.086 309.349 601.656V595.738H321.829ZM347.739 609.859C347.739 606.656 347.427 604.625 346.802 603.766C346.216 602.867 345.649 602.301 345.103 602.066C344.595 601.832 344.028 601.637 343.403 601.48C342.778 601.324 342.114 601.168 341.411 601.012C340.747 600.855 340.063 600.562 339.36 600.133V595.738H375.396V600.133C374.692 600.562 374.009 600.855 373.345 601.012C372.681 601.168 372.036 601.324 371.411 601.48C370.786 601.637 370.22 601.832 369.712 602.066C369.204 602.301 368.755 602.711 368.364 603.297C367.544 604.469 367.134 606.656 367.134 609.859V664.938C367.134 668.18 367.427 670.25 368.013 671.148C368.638 672.008 369.204 672.555 369.712 672.789C370.259 673.023 370.845 673.219 371.47 673.375C373.345 673.766 374.653 674.195 375.396 674.664V679H339.36V674.664C340.415 674.234 341.431 673.922 342.407 673.727C343.423 673.492 344.321 673.18 345.103 672.789C346.86 671.93 347.739 670.289 347.739 667.867V609.859ZM424.099 680.172C412.81 679.664 403.767 675.172 396.97 666.695C390.563 658.805 387.36 649.02 387.36 637.34C387.36 625.66 390.505 615.777 396.794 607.691C403.513 599.059 412.419 594.469 423.513 593.922V601.422C415.661 602.672 411.052 610.445 409.685 624.742C409.294 628.844 409.099 633.062 409.099 637.398C409.099 641.695 409.294 645.875 409.685 649.938C410.114 653.961 410.876 657.594 411.97 660.836C414.431 667.867 418.474 671.812 424.099 672.672V680.172ZM443.083 637.34C443.083 614.762 438.298 602.789 428.728 601.422V593.922C439.899 594.508 448.806 599.098 455.446 607.691C461.735 615.816 464.88 625.699 464.88 637.34C464.88 648.941 461.794 658.727 455.622 666.695C449.099 675.094 440.329 679.586 429.313 680.172V672.672C436.853 671.656 441.267 664.078 442.556 649.938C442.907 645.875 443.083 641.676 443.083 637.34ZM539.364 639.859V606.988C539.364 604.566 538.407 602.906 536.493 602.008C535.634 601.578 534.657 601.246 533.563 601.012C532.47 600.738 531.356 600.367 530.224 599.898V595.738H556.239V599.898C555.146 600.367 554.052 600.738 552.958 601.012C551.903 601.246 550.946 601.578 550.087 602.008C548.173 602.906 547.216 604.566 547.216 606.988V651.461L539.364 639.859ZM492.606 622.398V666.402C492.606 670.035 494.755 672.438 499.052 673.609C500.185 673.922 501.259 674.312 502.274 674.781V679H475.497V674.781C476.474 674.312 477.489 673.922 478.544 673.609C479.638 673.297 480.634 672.867 481.532 672.32C483.681 671.109 484.755 669.137 484.755 666.402V610.738L492.606 622.398ZM487.274 605.172C485.399 604.82 483.739 604.508 482.294 604.234C479.013 603.688 476.923 603.297 476.024 603.062V595.738H503.271L547.216 660.777V679H537.079L487.274 605.172Z" fill="#C0C0C0" fill-opacity="0.29"/>
<path d="M950.139 492.452V553.371C950.139 556.166 950.449 557.978 951.07 558.806C951.726 559.634 952.33 560.169 952.882 560.41C953.468 560.617 954.09 560.79 954.745 560.928C955.435 561.066 956.16 561.221 956.919 561.394C957.713 561.532 958.523 561.79 959.352 562.17V566H925.554V562.17C926.485 561.79 927.382 561.514 928.245 561.342C929.142 561.135 929.936 560.859 930.626 560.514C932.179 559.755 932.955 558.305 932.955 556.166V504.719C932.955 501.993 932.679 500.25 932.127 499.491C931.575 498.698 931.057 498.197 930.574 497.99C930.126 497.783 929.625 497.628 929.073 497.524C927.486 497.214 926.313 496.817 925.554 496.334V492.452H950.139ZM970.635 492.452C976.501 492.452 980.779 492.193 983.471 491.676V516.727H979.848C978.812 515.864 978.002 514.794 977.415 513.518C976.828 512.206 976.259 510.843 975.707 509.429C975.155 507.979 974.517 506.548 973.792 505.133C973.102 503.718 972.101 502.441 970.79 501.303C967.926 498.715 963.596 497.421 957.799 497.421C956.695 497.421 955.677 497.473 954.745 497.576V492.452H970.635ZM954.745 524.853L957.488 524.646C961.042 524.404 963.354 523.127 964.424 520.815C964.734 520.16 965.028 519.487 965.304 518.797C966.097 516.934 966.943 515.571 967.84 514.708H971.67V540.328H967.84C966.977 539.604 966.235 538.62 965.614 537.378C965.028 536.136 964.51 535.204 964.062 534.583C963.647 533.927 963.061 533.341 962.302 532.823C960.646 531.65 958.127 530.977 954.745 530.805V524.853ZM1025.6 567.035C1015.63 566.587 1007.64 562.618 1001.64 555.131C995.977 548.161 993.147 539.517 993.147 529.2C993.147 518.883 995.925 510.153 1001.48 503.011C1007.42 495.385 1015.28 491.331 1025.08 490.848V497.473C1018.15 498.577 1014.07 505.443 1012.87 518.072C1012.52 521.695 1012.35 525.422 1012.35 529.252C1012.35 533.048 1012.52 536.74 1012.87 540.328C1013.25 543.882 1013.92 547.091 1014.89 549.955C1017.06 556.166 1020.63 559.651 1025.6 560.41V567.035ZM1042.37 529.2C1042.37 509.256 1038.14 498.68 1029.69 497.473V490.848C1039.56 491.365 1047.42 495.42 1053.29 503.011C1058.85 510.188 1061.62 518.918 1061.62 529.2C1061.62 539.448 1058.9 548.092 1053.45 555.131C1047.68 562.549 1039.94 566.518 1030.21 567.035V560.41C1036.87 559.513 1040.76 552.819 1041.9 540.328C1042.21 536.74 1042.37 533.03 1042.37 529.2ZM1104.89 567.035C1094.92 566.587 1086.93 562.618 1080.93 555.131C1075.27 548.161 1072.44 539.517 1072.44 529.2C1072.44 518.883 1075.22 510.153 1080.77 503.011C1086.71 495.385 1094.57 491.331 1104.37 490.848V497.473C1097.44 498.577 1093.37 505.443 1092.16 518.072C1091.81 521.695 1091.64 525.422 1091.64 529.252C1091.64 533.048 1091.81 536.74 1092.16 540.328C1092.54 543.882 1093.21 547.091 1094.18 549.955C1096.35 556.166 1099.92 559.651 1104.89 560.41V567.035ZM1121.66 529.2C1121.66 509.256 1117.43 498.68 1108.98 497.473V490.848C1118.85 491.365 1126.72 495.42 1132.58 503.011C1138.14 510.188 1140.91 518.918 1140.91 529.2C1140.91 539.448 1138.19 548.092 1132.74 555.131C1126.97 562.549 1119.23 566.518 1109.5 567.035V560.41C1116.16 559.513 1120.06 552.819 1121.19 540.328C1121.5 536.74 1121.66 533.03 1121.66 529.2ZM1175.8 566H1151.21V562.17C1152.14 561.79 1153.04 561.514 1153.9 561.342C1154.8 561.135 1155.59 560.859 1156.28 560.514C1157.84 559.755 1158.61 558.305 1158.61 556.166V502.39C1158.61 500.216 1157.84 498.749 1156.28 497.99C1155.59 497.645 1154.8 497.386 1153.9 497.214C1153.04 497.007 1152.14 496.714 1151.21 496.334V492.452H1175.8V566ZM1198.67 505.081C1197.16 502.493 1195.21 500.578 1192.83 499.336C1190.44 498.059 1188.01 497.421 1185.53 497.421C1183.08 497.421 1181.37 497.49 1180.4 497.628V492.452H1185.48C1197.72 492.452 1207.11 496.248 1213.63 503.839C1219.43 510.602 1222.33 519.056 1222.33 529.2C1222.33 539.724 1219.33 548.333 1213.32 555.027C1206.77 562.342 1197.67 566 1186.04 566H1180.4V560.824C1181.51 560.962 1183.23 561.031 1185.58 561.031C1187.93 561.031 1190.29 560.514 1192.67 559.479C1195.09 558.409 1197.07 556.632 1198.62 554.147C1201.62 549.351 1203.12 541.035 1203.12 529.2C1203.12 518.193 1201.64 510.153 1198.67 505.081Z" fill="#C0C0C0" fill-opacity="0.29"/>
<path d="M1361.1 527.615V585.086C1361.1 587.723 1361.39 589.432 1361.98 590.213C1362.6 590.994 1363.17 591.499 1363.69 591.727C1364.24 591.922 1364.83 592.085 1365.45 592.215C1366.1 592.345 1366.78 592.492 1367.5 592.654C1368.24 592.785 1369.01 593.029 1369.79 593.387V597H1337.91V593.387C1338.79 593.029 1339.63 592.768 1340.45 592.605C1341.29 592.41 1342.04 592.15 1342.69 591.824C1344.16 591.108 1344.89 589.741 1344.89 587.723V539.188C1344.89 536.616 1344.63 534.972 1344.11 534.256C1343.59 533.507 1343.1 533.035 1342.64 532.84C1342.22 532.645 1341.75 532.498 1341.23 532.4C1339.73 532.107 1338.62 531.733 1337.91 531.277V527.615H1361.1ZM1380.44 527.615C1385.97 527.615 1390.01 527.371 1392.54 526.883V550.516H1389.13C1388.15 549.702 1387.39 548.693 1386.83 547.488C1386.28 546.251 1385.74 544.965 1385.22 543.631C1384.7 542.264 1384.1 540.913 1383.41 539.578C1382.76 538.243 1381.82 537.039 1380.58 535.965C1377.88 533.523 1373.79 532.303 1368.33 532.303C1367.28 532.303 1366.32 532.352 1365.45 532.449V527.615H1380.44ZM1365.45 558.182L1368.03 557.986C1371.39 557.758 1373.57 556.554 1374.58 554.373C1374.87 553.755 1375.15 553.12 1375.41 552.469C1376.15 550.711 1376.95 549.425 1377.8 548.611H1381.41V572.781H1377.8C1376.99 572.098 1376.29 571.17 1375.7 569.998C1375.15 568.826 1374.66 567.947 1374.23 567.361C1373.84 566.743 1373.29 566.189 1372.57 565.701C1371.01 564.594 1368.64 563.96 1365.45 563.797V558.182ZM1408.83 539.383C1408.83 536.714 1408.57 535.021 1408.04 534.305C1407.56 533.556 1407.08 533.084 1406.63 532.889C1406.21 532.693 1405.73 532.531 1405.21 532.4C1404.69 532.27 1404.14 532.14 1403.55 532.01C1403 531.88 1402.43 531.635 1401.84 531.277V527.615H1431.87V531.277C1431.29 531.635 1430.72 531.88 1430.16 532.01C1429.61 532.14 1429.07 532.27 1428.55 532.4C1428.03 532.531 1427.56 532.693 1427.14 532.889C1426.71 533.084 1426.34 533.426 1426.01 533.914C1425.33 534.891 1424.99 536.714 1424.99 539.383V585.281C1424.99 587.983 1425.23 589.708 1425.72 590.457C1426.24 591.173 1426.71 591.629 1427.14 591.824C1427.59 592.02 1428.08 592.182 1428.6 592.312C1430.16 592.638 1431.25 592.996 1431.87 593.387V597H1401.84V593.387C1402.72 593.029 1403.57 592.768 1404.38 592.605C1405.23 592.41 1405.98 592.15 1406.63 591.824C1408.09 591.108 1408.83 589.741 1408.83 587.723V539.383ZM1470.37 592.264C1470.57 592.296 1470.78 592.312 1471.01 592.312C1471.23 592.312 1471.46 592.312 1471.69 592.312C1479.05 592.312 1484.01 589.546 1486.58 584.012C1487.27 582.514 1487.85 581.049 1488.34 579.617C1488.86 578.152 1489.37 576.801 1489.85 575.564C1490.37 574.327 1491.06 573.367 1491.9 572.684H1495.22V597H1470.37V592.264ZM1465.98 597H1442.78V593.387C1443.66 593.029 1444.51 592.768 1445.32 592.605C1446.17 592.41 1446.92 592.15 1447.57 591.824C1449.03 591.108 1449.77 589.741 1449.77 587.723V536.99C1449.77 534.939 1449.03 533.556 1447.57 532.84C1446.92 532.514 1446.17 532.27 1445.32 532.107C1444.51 531.912 1443.66 531.635 1442.78 531.277V527.615H1473.3V531.277C1472.32 531.635 1471.4 531.912 1470.52 532.107C1469.64 532.27 1468.87 532.514 1468.22 532.84C1466.73 533.556 1465.98 534.939 1465.98 536.99V597ZM1518.93 564.139V586.209C1518.93 588.846 1519.82 590.62 1521.61 591.531C1522.36 591.954 1523.18 592.28 1524.05 592.508C1524.97 592.736 1525.83 593.094 1526.64 593.582V597H1504.96V593.582C1505.65 593.094 1506.41 592.736 1507.26 592.508C1508.14 592.247 1508.95 591.922 1509.7 591.531C1511.49 590.62 1512.38 588.846 1512.38 586.209V546.707L1518.93 564.139ZM1514.24 539.383C1513.69 538.016 1513.18 536.811 1512.73 535.77C1511.88 535.574 1511 535.379 1510.09 535.184C1509.21 534.988 1508.33 534.793 1507.45 534.598C1505.57 534.109 1504.1 533.654 1503.06 533.23V527.615H1526.59L1547.74 582.986L1544.22 597H1535.82L1514.24 539.383ZM1546.37 567.361L1556.33 527.615H1582.11V531.277C1581.23 531.635 1580.39 531.912 1579.57 532.107C1578.76 532.27 1578.03 532.514 1577.38 532.84C1575.94 533.556 1575.23 534.939 1575.23 536.99V587.723C1575.23 589.741 1575.94 591.108 1577.38 591.824C1578.03 592.15 1578.76 592.41 1579.57 592.605C1580.39 592.768 1581.23 593.029 1582.11 593.387V597H1552.38V593.387C1553.25 593.029 1554.1 592.768 1554.91 592.605C1555.76 592.41 1556.51 592.15 1557.16 591.824C1558.62 591.108 1559.36 589.741 1559.36 587.723V538.113H1559.11L1549.69 575.955L1546.37 567.361Z" fill="#C0C0C0" fill-opacity="0.29"/>
<path d="M352.757 772.578C352.757 774.193 353.356 775.286 354.554 775.859C355.101 776.12 355.739 776.328 356.468 776.484C357.223 776.615 358.017 776.823 358.851 777.109V780H333.851V777.109C334.632 776.823 335.374 776.615 336.077 776.484C336.806 776.328 337.444 776.12 337.991 775.859C339.189 775.286 339.788 774.193 339.788 772.578V731.992C339.788 730.352 339.189 729.245 337.991 728.672C337.444 728.411 336.806 728.216 336.077 728.086C335.374 727.93 334.632 727.708 333.851 727.422V724.492H352.757V772.578ZM356.233 751.133C359.02 750.82 361.077 749.831 362.405 748.164C363.838 746.367 364.554 743.594 364.554 739.844C364.554 733.958 362.874 730.365 359.515 729.062C358.499 728.672 357.405 728.438 356.233 728.359V724.492H359.944C366.246 724.492 370.986 725.911 374.163 728.75C377.028 731.302 378.46 734.948 378.46 739.688C378.46 747.682 374.528 752.526 366.663 754.219C364.033 754.766 360.986 755.039 357.522 755.039H356.233V751.133ZM409.546 780.781C402.02 780.443 395.991 777.448 391.46 771.797C387.189 766.536 385.054 760.013 385.054 752.227C385.054 744.44 387.15 737.852 391.343 732.461C395.822 726.706 401.759 723.646 409.155 723.281V728.281C403.921 729.115 400.848 734.297 399.937 743.828C399.676 746.562 399.546 749.375 399.546 752.266C399.546 755.13 399.676 757.917 399.937 760.625C400.223 763.307 400.731 765.729 401.46 767.891C403.101 772.578 405.796 775.208 409.546 775.781V780.781ZM422.202 752.227C422.202 737.174 419.012 729.193 412.632 728.281V723.281C420.08 723.672 426.017 726.732 430.444 732.461C434.637 737.878 436.733 744.466 436.733 752.227C436.733 759.961 434.676 766.484 430.562 771.797C426.213 777.396 420.366 780.391 413.022 780.781V775.781C418.049 775.104 420.991 770.052 421.851 760.625C422.085 757.917 422.202 755.117 422.202 752.227ZM468.054 776.211C468.21 776.237 468.379 776.25 468.562 776.25C468.744 776.25 468.926 776.25 469.108 776.25C474.994 776.25 478.965 774.036 481.022 769.609C481.569 768.411 482.038 767.24 482.429 766.094C482.845 764.922 483.249 763.841 483.64 762.852C484.056 761.862 484.603 761.094 485.28 760.547H487.937V780H468.054V776.211ZM464.538 780H445.983V777.109C446.687 776.823 447.364 776.615 448.015 776.484C448.692 776.328 449.291 776.12 449.812 775.859C450.983 775.286 451.569 774.193 451.569 772.578V731.992C451.569 730.352 450.983 729.245 449.812 728.672C449.291 728.411 448.692 728.216 448.015 728.086C447.364 727.93 446.687 727.708 445.983 727.422V724.492H470.397V727.422C469.616 727.708 468.874 727.93 468.171 728.086C467.468 728.216 466.856 728.411 466.335 728.672C465.137 729.245 464.538 730.352 464.538 731.992V780ZM500.077 733.906C500.077 731.771 499.869 730.417 499.452 729.844C499.062 729.245 498.684 728.867 498.319 728.711C497.981 728.555 497.603 728.424 497.187 728.32C496.77 728.216 496.327 728.112 495.858 728.008C495.416 727.904 494.96 727.708 494.491 727.422V724.492H518.515V727.422C518.046 727.708 517.59 727.904 517.147 728.008C516.705 728.112 516.275 728.216 515.858 728.32C515.442 728.424 515.064 728.555 514.726 728.711C514.387 728.867 514.088 729.141 513.827 729.531C513.28 730.312 513.007 731.771 513.007 733.906V770.625C513.007 772.786 513.202 774.167 513.593 774.766C514.009 775.339 514.387 775.703 514.726 775.859C515.09 776.016 515.481 776.146 515.897 776.25C517.147 776.51 518.02 776.797 518.515 777.109V780H494.491V777.109C495.194 776.823 495.871 776.615 496.522 776.484C497.2 776.328 497.799 776.12 498.319 775.859C499.491 775.286 500.077 774.193 500.077 772.578V733.906ZM525.772 723.906C529.132 724.297 530.994 724.492 531.358 724.492H539.679V728.438C535.642 728.828 533.038 730.859 531.866 734.531C531.554 735.573 531.241 736.589 530.929 737.578C530.121 740.182 529.21 741.901 528.194 742.734H525.772V723.906ZM556.163 770.312C556.163 773.229 556.814 775.026 558.116 775.703C558.715 775.99 559.392 776.185 560.147 776.289C560.929 776.393 561.736 776.667 562.569 777.109V780H536.632V777.109C537.465 776.823 538.272 776.589 539.054 776.406C539.835 776.198 540.538 775.938 541.163 775.625C542.491 774.896 543.155 773.711 543.155 772.07V724.492H556.163V770.312ZM567.96 724.492C568.325 724.492 570.187 724.297 573.546 723.906V742.734H571.124C570.108 741.901 569.314 740.586 568.741 738.789C568.194 736.992 567.752 735.586 567.413 734.57C567.075 733.529 566.606 732.578 566.007 731.719C564.679 729.818 562.556 728.724 559.64 728.438V724.492H567.96ZM586.233 733.906C586.233 731.771 586.025 730.417 585.608 729.844C585.218 729.245 584.84 728.867 584.476 728.711C584.137 728.555 583.759 728.424 583.343 728.32C582.926 728.216 582.483 728.112 582.015 728.008C581.572 727.904 581.116 727.708 580.647 727.422V724.492H604.671V727.422C604.202 727.708 603.746 727.904 603.304 728.008C602.861 728.112 602.431 728.216 602.015 728.32C601.598 728.424 601.22 728.555 600.882 728.711C600.543 728.867 600.244 729.141 599.983 729.531C599.437 730.312 599.163 731.771 599.163 733.906V770.625C599.163 772.786 599.358 774.167 599.749 774.766C600.166 775.339 600.543 775.703 600.882 775.859C601.246 776.016 601.637 776.146 602.054 776.25C603.304 776.51 604.176 776.797 604.671 777.109V780H580.647V777.109C581.351 776.823 582.028 776.615 582.679 776.484C583.356 776.328 583.955 776.12 584.476 775.859C585.647 775.286 586.233 774.193 586.233 772.578V733.906ZM640.522 775.781C643.778 775.729 646.408 774.688 648.413 772.656C650.991 770.104 652.476 765.885 652.866 760L657.358 761.523C656.629 770.221 653.517 776.042 648.022 778.984C645.965 780.078 643.465 780.677 640.522 780.781V775.781ZM627.476 751.758C627.476 766.367 630.666 774.375 637.046 775.781V780.781C629.806 780.469 623.96 777.643 619.507 772.305C615.158 767.044 612.983 760.378 612.983 752.305C612.983 743.945 615.262 737.018 619.819 731.523C621.981 728.945 624.533 726.927 627.476 725.469C630.418 724.01 633.608 723.281 637.046 723.281V728.281C631.916 729.089 628.882 733.854 627.944 742.578C627.632 745.339 627.476 748.398 627.476 751.758ZM640.522 723.281C642.658 723.594 644.455 724.102 645.913 724.805C647.397 725.508 648.4 726.003 648.921 726.289C649.468 726.576 649.924 726.719 650.288 726.719C650.653 726.719 650.965 726.51 651.226 726.094C651.512 725.677 651.812 725.143 652.124 724.492H655.835V744.648H652.866C652.215 743.737 651.46 742.227 650.601 740.117C649.741 737.982 649.025 736.328 648.452 735.156C647.905 733.984 647.267 732.917 646.538 731.953C644.845 729.792 642.84 728.568 640.522 728.281V723.281ZM688.835 723.281C691.283 723.672 693.835 724.714 696.491 726.406C696.96 726.719 697.403 726.875 697.819 726.875C698.262 726.875 698.679 726.641 699.069 726.172C699.46 725.677 699.89 725.117 700.358 724.492H703.874V743.438H700.905C700.176 742.656 699.395 741.354 698.562 739.531C697.728 737.682 697.038 736.224 696.491 735.156C695.97 734.062 695.358 733.047 694.655 732.109C693.067 730.026 691.127 728.75 688.835 728.281V723.281ZM673.874 777.617C672.91 777.617 672.103 778.398 671.452 779.961H667.507V759.531H670.124C671.088 760.13 671.986 761.419 672.819 763.398C673.679 765.352 674.408 766.953 675.007 768.203C675.632 769.427 676.387 770.573 677.272 771.641C679.33 774.089 682.025 775.469 685.358 775.781V780.781C682.937 780.625 680.84 780.208 679.069 779.531C677.299 778.828 676.088 778.333 675.437 778.047C674.785 777.76 674.265 777.617 673.874 777.617ZM688.835 775.781C691.361 775.495 693.34 774.661 694.772 773.281C696.231 771.875 696.96 770.143 696.96 768.086C696.96 766.029 696.53 764.401 695.671 763.203C694.838 762.005 693.731 760.951 692.351 760.039C690.97 759.128 689.395 758.307 687.624 757.578C685.853 756.849 684.043 756.107 682.194 755.352C680.345 754.596 678.535 753.789 676.765 752.93C674.994 752.044 673.418 751.003 672.038 749.805C668.965 747.148 667.429 743.776 667.429 739.688C667.429 735.495 668.965 731.81 672.038 728.633C675.476 725.117 679.916 723.333 685.358 723.281V728.281C683.249 728.49 681.543 729.167 680.241 730.312C678.965 731.458 678.327 732.865 678.327 734.531C678.327 736.198 678.744 737.578 679.577 738.672C680.437 739.766 681.556 740.742 682.937 741.602C684.317 742.435 685.892 743.203 687.663 743.906C689.434 744.583 691.231 745.299 693.054 746.055C694.903 746.784 696.713 747.604 698.483 748.516C700.254 749.401 701.83 750.469 703.21 751.719C706.283 754.505 707.819 758.008 707.819 762.227C707.819 767.174 706.257 771.328 703.132 774.688C699.668 778.464 694.903 780.495 688.835 780.781V775.781Z" fill="#C0C0C0" fill-opacity="0.29"/>
<path d="M913.038 197.86V250.158C913.038 252.558 913.304 254.113 913.837 254.824C914.4 255.535 914.919 255.994 915.393 256.201C915.896 256.379 916.429 256.527 916.992 256.646C917.585 256.764 918.207 256.897 918.858 257.045C919.54 257.164 920.236 257.386 920.947 257.712V261H891.932V257.712C892.731 257.386 893.502 257.149 894.242 257.001C895.012 256.823 895.694 256.586 896.286 256.29C897.619 255.638 898.286 254.394 898.286 252.558V208.391C898.286 206.05 898.049 204.555 897.575 203.903C897.101 203.222 896.656 202.792 896.242 202.614C895.857 202.437 895.427 202.303 894.953 202.214C893.59 201.948 892.583 201.607 891.932 201.192V197.86H913.038ZM930.633 197.86C935.669 197.86 939.342 197.638 941.653 197.193V218.699H938.542C937.654 217.959 936.958 217.04 936.454 215.944C935.951 214.819 935.462 213.649 934.988 212.434C934.514 211.19 933.966 209.961 933.344 208.746C932.751 207.532 931.892 206.436 930.767 205.458C928.308 203.236 924.59 202.125 919.614 202.125C918.666 202.125 917.792 202.17 916.992 202.259V197.86H930.633ZM916.992 225.675L919.347 225.498C922.398 225.29 924.383 224.194 925.301 222.209C925.568 221.647 925.82 221.069 926.057 220.477C926.738 218.877 927.464 217.707 928.234 216.966H931.522V238.961H928.234C927.493 238.339 926.856 237.495 926.323 236.428C925.82 235.362 925.375 234.562 924.99 234.029C924.635 233.466 924.131 232.962 923.479 232.518C922.058 231.511 919.895 230.933 916.992 230.785V225.675ZM966.647 207.458L960.249 205.502C960.427 204.258 960.545 203.147 960.604 202.17C960.664 201.163 960.782 200.274 960.96 199.504C963.537 198.349 967.818 197.401 973.801 196.66C974.749 196.542 975.579 196.482 976.29 196.482C977.03 197.371 977.563 198.215 977.889 199.015L998.462 250.825C999.351 253.106 1000.37 254.794 1001.53 255.89C1002.71 256.957 1004.19 257.564 1005.97 257.712V261H977.578V258.201C978.319 257.756 979.074 257.431 979.844 257.223C980.644 256.986 981.37 256.764 982.021 256.557C983.443 256.142 984.154 255.401 984.154 254.335C984.154 253.743 983.873 252.721 983.31 251.269L966.647 207.458ZM967.403 221.188L957.405 249.803C956.931 251.136 956.694 252.247 956.694 253.135C956.694 254.024 956.946 254.72 957.45 255.224C957.953 255.698 958.575 256.083 959.316 256.379C960.086 256.646 960.901 256.882 961.76 257.09C962.619 257.297 963.419 257.593 964.159 257.979V261H942.875V257.979C943.468 257.593 944.105 257.282 944.786 257.045C945.497 256.808 946.208 256.497 946.919 256.112C948.578 255.135 949.822 253.52 950.651 251.269L964.47 213.323L967.403 221.188ZM975.401 242.071H964.47L965.937 237.361H973.624L975.401 242.071ZM1035.76 196.482C1038.55 196.927 1041.45 198.112 1044.47 200.037C1045.01 200.393 1045.51 200.57 1045.98 200.57C1046.49 200.57 1046.96 200.304 1047.41 199.771C1047.85 199.208 1048.34 198.571 1048.87 197.86H1052.87V219.41H1049.49C1048.67 218.521 1047.78 217.04 1046.83 214.967C1045.88 212.864 1045.1 211.205 1044.47 209.99C1043.88 208.746 1043.19 207.591 1042.39 206.524C1040.58 204.155 1038.37 202.703 1035.76 202.17V196.482ZM1018.75 258.29C1017.65 258.29 1016.73 259.178 1015.99 260.956H1011.5V237.717H1014.48C1015.58 238.398 1016.6 239.864 1017.55 242.116C1018.52 244.337 1019.35 246.159 1020.04 247.581C1020.75 248.973 1021.61 250.277 1022.61 251.491C1024.95 254.276 1028.02 255.846 1031.81 256.201V261.889C1029.06 261.711 1026.67 261.237 1024.66 260.467C1022.64 259.667 1021.26 259.104 1020.52 258.778C1019.78 258.452 1019.19 258.29 1018.75 258.29ZM1035.76 256.201C1038.64 255.875 1040.89 254.927 1042.52 253.357C1044.18 251.758 1045.01 249.788 1045.01 247.448C1045.01 245.108 1044.52 243.256 1043.54 241.894C1042.59 240.531 1041.33 239.331 1039.76 238.294C1038.19 237.258 1036.4 236.325 1034.39 235.495C1032.37 234.666 1030.31 233.821 1028.21 232.962C1026.11 232.103 1024.05 231.185 1022.03 230.208C1020.02 229.2 1018.23 228.015 1016.66 226.653C1013.16 223.631 1011.42 219.795 1011.42 215.145C1011.42 210.375 1013.16 206.184 1016.66 202.57C1020.57 198.571 1025.62 196.542 1031.81 196.482V202.17C1029.41 202.407 1027.47 203.177 1025.99 204.48C1024.54 205.784 1023.81 207.383 1023.81 209.279C1023.81 211.175 1024.29 212.745 1025.23 213.989C1026.21 215.233 1027.49 216.344 1029.06 217.322C1030.63 218.27 1032.42 219.144 1034.43 219.943C1036.45 220.714 1038.49 221.528 1040.56 222.387C1042.67 223.217 1044.73 224.15 1046.74 225.187C1048.75 226.194 1050.55 227.408 1052.12 228.83C1055.61 232 1057.36 235.984 1057.36 240.783C1057.36 246.411 1055.58 251.136 1052.03 254.957C1048.09 259.252 1042.67 261.563 1035.76 261.889V256.201ZM1088.49 252.558C1088.49 254.365 1089.12 255.609 1090.4 256.29C1090.96 256.586 1091.58 256.823 1092.26 257.001C1092.94 257.149 1093.61 257.386 1094.26 257.712V261H1067.42V257.712C1068.22 257.386 1068.99 257.149 1069.73 257.001C1070.51 256.823 1071.19 256.586 1071.78 256.29C1073.08 255.638 1073.73 254.394 1073.73 252.558V208.568C1073.73 206.11 1073.5 204.555 1073.02 203.903C1072.58 203.222 1072.15 202.807 1071.73 202.659C1071.35 202.481 1070.92 202.348 1070.45 202.259C1068.96 201.903 1067.96 201.548 1067.42 201.192V197.86H1094.26V201.192C1093.61 201.518 1092.94 201.77 1092.26 201.948C1091.58 202.096 1090.96 202.318 1090.4 202.614C1089.12 203.296 1088.49 204.555 1088.49 206.391V252.558ZM1108.61 206.391C1108.61 204.525 1107.98 203.266 1106.7 202.614C1106.14 202.348 1105.52 202.125 1104.84 201.948C1104.16 201.77 1103.5 201.518 1102.88 201.192V197.86H1129.72V201.192C1128.92 201.518 1128.14 201.77 1127.37 201.948C1126.62 202.096 1125.94 202.318 1125.32 202.614C1124.02 203.266 1123.37 204.525 1123.37 206.391V250.336C1123.37 252.795 1123.6 254.365 1124.08 255.046C1124.55 255.727 1124.98 256.157 1125.37 256.334C1125.78 256.512 1126.22 256.646 1126.7 256.734C1128.06 257.001 1129.07 257.327 1129.72 257.712V261H1102.88V257.712C1103.5 257.386 1104.16 257.134 1104.84 256.957C1105.52 256.779 1106.14 256.557 1106.7 256.29C1107.98 255.638 1108.61 254.394 1108.61 252.558V206.391ZM1104.66 230.607H1092.44V225.586H1104.66V230.607ZM1145.43 208.568C1145.43 206.139 1145.19 204.599 1144.72 203.947C1144.27 203.266 1143.84 202.836 1143.43 202.659C1143.04 202.481 1142.61 202.333 1142.14 202.214C1141.67 202.096 1141.16 201.977 1140.63 201.859C1140.13 201.74 1139.61 201.518 1139.07 201.192V197.86H1166.4V201.192C1165.87 201.518 1165.35 201.74 1164.85 201.859C1164.34 201.977 1163.85 202.096 1163.38 202.214C1162.91 202.333 1162.48 202.481 1162.09 202.659C1161.71 202.836 1161.37 203.147 1161.07 203.592C1160.45 204.48 1160.14 206.139 1160.14 208.568V250.336C1160.14 252.795 1160.36 254.365 1160.8 255.046C1161.28 255.698 1161.71 256.112 1162.09 256.29C1162.51 256.468 1162.95 256.616 1163.42 256.734C1164.85 257.031 1165.84 257.356 1166.4 257.712V261H1139.07V257.712C1139.87 257.386 1140.64 257.149 1141.38 257.001C1142.15 256.823 1142.84 256.586 1143.43 256.29C1144.76 255.638 1145.43 254.394 1145.43 252.558V208.568ZM1204.06 261.889C1195.5 261.504 1188.64 258.097 1183.49 251.669C1178.63 245.685 1176.2 238.265 1176.2 229.408C1176.2 220.551 1178.58 213.056 1183.35 206.924C1188.45 200.378 1195.2 196.897 1203.61 196.482V202.17C1197.66 203.118 1194.17 209.013 1193.13 219.854C1192.83 222.965 1192.68 226.164 1192.68 229.452C1192.68 232.711 1192.83 235.88 1193.13 238.961C1193.45 242.012 1194.03 244.767 1194.86 247.226C1196.73 252.558 1199.79 255.549 1204.06 256.201V261.889ZM1218.46 229.408C1218.46 212.286 1214.83 203.207 1207.57 202.17V196.482C1216.04 196.927 1222.8 200.407 1227.83 206.924C1232.6 213.086 1234.98 220.58 1234.98 229.408C1234.98 238.206 1232.64 245.626 1227.96 251.669C1223.02 258.038 1216.37 261.444 1208.01 261.889V256.201C1213.73 255.431 1217.08 249.684 1218.06 238.961C1218.32 235.88 1218.46 232.696 1218.46 229.408ZM1292.19 231.318V206.391C1292.19 204.555 1291.47 203.296 1290.02 202.614C1289.36 202.288 1288.62 202.037 1287.79 201.859C1286.97 201.652 1286.12 201.37 1285.26 201.015V197.86H1304.99V201.015C1304.16 201.37 1303.33 201.652 1302.5 201.859C1301.7 202.037 1300.98 202.288 1300.33 202.614C1298.87 203.296 1298.15 204.555 1298.15 206.391V240.116L1292.19 231.318ZM1256.74 218.077V251.447C1256.74 254.202 1258.37 256.023 1261.62 256.912C1262.48 257.149 1263.3 257.445 1264.07 257.801V261H1243.76V257.801C1244.5 257.445 1245.27 257.149 1246.07 256.912C1246.9 256.675 1247.66 256.349 1248.34 255.935C1249.97 255.016 1250.78 253.52 1250.78 251.447V209.235L1256.74 218.077ZM1252.69 205.014C1251.27 204.747 1250.01 204.51 1248.92 204.303C1246.43 203.888 1244.84 203.592 1244.16 203.414V197.86H1264.82L1298.15 247.181V261H1290.46L1252.69 205.014Z" fill="#C0C0C0" fill-opacity="0.29"/>
<path d="M866.664 645.363C868.699 645.331 870.342 644.68 871.596 643.41C873.207 641.815 874.135 639.178 874.379 635.5L877.187 636.452C876.731 641.888 874.786 645.526 871.352 647.365C870.066 648.049 868.503 648.423 866.664 648.488V645.363ZM858.51 630.349C858.51 639.479 860.504 644.484 864.491 645.363V648.488C859.966 648.293 856.312 646.527 853.529 643.19C850.811 639.903 849.452 635.736 849.452 630.69C849.452 625.466 850.876 621.136 853.725 617.702C855.076 616.091 856.671 614.829 858.51 613.918C860.349 613.007 862.343 612.551 864.491 612.551V615.676C861.285 616.18 859.389 619.159 858.803 624.611C858.607 626.337 858.51 628.249 858.51 630.349ZM866.664 612.551C867.999 612.746 869.122 613.063 870.033 613.503C870.961 613.942 871.588 614.252 871.913 614.431C872.255 614.61 872.54 614.699 872.768 614.699C872.995 614.699 873.191 614.569 873.354 614.309C873.533 614.048 873.72 613.715 873.915 613.308H876.234V625.905H874.379C873.972 625.336 873.5 624.392 872.963 623.073C872.426 621.739 871.978 620.705 871.62 619.973C871.278 619.24 870.88 618.573 870.424 617.971C869.366 616.62 868.113 615.855 866.664 615.676V612.551ZM899.474 648.488C894.77 648.277 891.002 646.405 888.17 642.873C885.501 639.585 884.166 635.508 884.166 630.642C884.166 625.775 885.476 621.657 888.097 618.288C890.896 614.691 894.607 612.779 899.229 612.551V615.676C895.958 616.197 894.037 619.436 893.468 625.393C893.305 627.102 893.224 628.859 893.224 630.666C893.224 632.456 893.305 634.198 893.468 635.891C893.647 637.567 893.964 639.081 894.42 640.432C895.445 643.361 897.13 645.005 899.474 645.363V648.488ZM907.384 630.642C907.384 621.234 905.39 616.245 901.402 615.676V612.551C906.057 612.795 909.768 614.707 912.535 618.288C915.156 621.674 916.466 625.791 916.466 630.642C916.466 635.476 915.18 639.553 912.608 642.873C909.89 646.372 906.236 648.244 901.646 648.488V645.363C904.788 644.94 906.627 641.783 907.164 635.891C907.311 634.198 907.384 632.448 907.384 630.642ZM931.282 631.569V642.604C931.282 643.923 931.73 644.81 932.625 645.266C932.999 645.477 933.406 645.64 933.846 645.754C934.301 645.868 934.733 646.047 935.14 646.291V648H924.3V646.291C924.642 646.047 925.024 645.868 925.447 645.754C925.887 645.624 926.294 645.461 926.668 645.266C927.563 644.81 928.011 643.923 928.011 642.604V622.854L931.282 631.569ZM928.938 619.191C928.662 618.508 928.41 617.906 928.182 617.385C927.758 617.287 927.319 617.189 926.863 617.092C926.424 616.994 925.984 616.896 925.545 616.799C924.601 616.555 923.868 616.327 923.348 616.115V613.308H935.115L945.687 640.993L943.929 648H939.729L928.938 619.191ZM945.003 633.181L949.983 613.308H962.874V615.139C962.435 615.318 962.011 615.456 961.604 615.554C961.198 615.635 960.831 615.757 960.506 615.92C959.79 616.278 959.432 616.97 959.432 617.995V643.361C959.432 644.37 959.79 645.054 960.506 645.412C960.831 645.575 961.198 645.705 961.604 645.803C962.011 645.884 962.435 646.014 962.874 646.193V648H948.006V646.193C948.445 646.014 948.868 645.884 949.275 645.803C949.699 645.705 950.073 645.575 950.398 645.412C951.131 645.054 951.497 644.37 951.497 643.361V618.557H951.375L946.663 637.478L945.003 633.181ZM980.889 613.308V648H969.341V646.193C969.78 646.014 970.203 645.884 970.61 645.803C971.034 645.705 971.408 645.575 971.733 645.412C972.466 645.054 972.832 644.37 972.832 643.361V617.995C972.832 616.97 972.466 616.278 971.733 615.92C971.408 615.757 971.034 615.635 970.61 615.554C970.203 615.456 969.78 615.318 969.341 615.139V613.308H980.889ZM983.062 645.559C983.875 645.624 984.909 645.656 986.162 645.656C987.415 645.656 988.538 645.461 989.531 645.07C990.54 644.68 991.354 644.183 991.973 643.581C992.607 642.963 993.104 642.279 993.462 641.53C993.82 640.782 994.129 640.049 994.39 639.333C994.65 638.601 994.91 637.933 995.171 637.331C995.448 636.713 995.822 636.232 996.294 635.891H997.954V648H983.062V645.559ZM990.63 617.507C990.06 616.953 989.344 616.506 988.481 616.164C987.635 615.822 986.642 615.651 985.503 615.651C984.364 615.651 983.55 615.676 983.062 615.725V613.308H988.579C992.241 613.308 994.902 613.186 996.562 612.941V624.758H994.854C994.447 624.367 994.105 623.871 993.828 623.269C993.551 622.666 993.267 622.032 992.974 621.364C992.697 620.681 992.38 620.005 992.021 619.338C991.663 618.654 991.2 618.044 990.63 617.507ZM983.062 627.346H991.191V633.596H983.062V627.346ZM1016.43 648H1004.84V646.193C1005.28 646.014 1005.7 645.884 1006.11 645.803C1006.53 645.705 1006.9 645.575 1007.23 645.412C1007.96 645.054 1008.33 644.37 1008.33 643.361V617.995C1008.33 616.97 1007.96 616.278 1007.23 615.92C1006.9 615.757 1006.53 615.635 1006.11 615.554C1005.7 615.456 1005.28 615.318 1004.84 615.139V613.308H1016.43V648ZM1027.22 619.265C1026.51 618.044 1025.59 617.141 1024.46 616.555C1023.34 615.952 1022.19 615.651 1021.02 615.651C1019.87 615.651 1019.06 615.684 1018.61 615.749V613.308H1021C1026.78 613.308 1031.2 615.098 1034.28 618.679C1037.01 621.869 1038.38 625.856 1038.38 630.642C1038.38 635.606 1036.96 639.667 1034.13 642.824C1031.04 646.275 1026.75 648 1021.27 648H1018.61V645.559C1019.13 645.624 1019.94 645.656 1021.05 645.656C1022.15 645.656 1023.27 645.412 1024.39 644.924C1025.53 644.419 1026.47 643.581 1027.2 642.409C1028.62 640.147 1029.32 636.224 1029.32 630.642C1029.32 625.45 1028.62 621.657 1027.22 619.265ZM1061.77 631.765V643.605C1061.77 644.549 1062.15 645.168 1062.91 645.461C1063.27 645.607 1063.68 645.721 1064.13 645.803C1064.61 645.884 1065.1 646.014 1065.62 646.193V648H1049.68V646.193C1050.2 646.014 1050.7 645.884 1051.17 645.803C1051.66 645.705 1052.09 645.591 1052.46 645.461C1053.26 645.152 1053.66 644.549 1053.66 643.654V633.01L1046.09 618.508C1045.23 616.848 1044.15 615.847 1042.85 615.505C1042.54 615.424 1042.25 615.301 1041.99 615.139V613.308H1057.64V615.139C1057.28 615.285 1056.91 615.399 1056.52 615.48C1056.13 615.562 1055.77 615.66 1055.44 615.773C1054.73 616.001 1054.37 616.392 1054.37 616.945C1054.37 617.287 1054.51 617.718 1054.78 618.239C1055.06 618.76 1055.38 619.362 1055.74 620.046L1061.77 631.765ZM1061.33 626.906L1064.5 620.656C1065.4 618.898 1065.84 617.775 1065.84 617.287C1065.84 616.799 1065.73 616.457 1065.5 616.262C1065.29 616.066 1065.01 615.912 1064.67 615.798C1064.33 615.684 1063.96 615.586 1063.55 615.505C1063.14 615.407 1062.74 615.285 1062.35 615.139V613.308H1072.73V615.041C1072.47 615.253 1072.2 615.407 1071.92 615.505C1071.65 615.603 1071.36 615.741 1071.07 615.92C1070.3 616.343 1069.65 617.084 1069.12 618.142L1062.89 630.178L1061.33 626.906Z" fill="#C0C0C0" fill-opacity="0.29"/>
<rect y="4" width="812.896" height="801" fill="white"/>
</svg>
