<svg width="1522" height="1140" viewBox="0 0 1522 1140" fill="none" xmlns="http://www.w3.org/2000/svg">
<line x1="367.684" y1="664.163" x2="515.198" y2="540.384" stroke="#4CC082" stroke-width="10" stroke-linecap="round"/>
<line x1="682.684" y1="1117.12" x2="987.453" y2="861.384" stroke="#4CC082" stroke-width="10" stroke-linecap="round"/>
<line x1="639.684" y1="497.163" x2="787.198" y2="373.384" stroke="#6F8EFF" stroke-width="10" stroke-linecap="round"/>
<line x1="161.684" y1="681.157" x2="238.877" y2="616.384" stroke="#6F8EFF" stroke-width="10" stroke-linecap="round"/>
<line x1="73.0953" y1="568.874" x2="236.612" y2="431.667" stroke="#6F8EFF" stroke-width="10" stroke-linecap="round"/>
<line x1="1354.33" y1="1117.32" x2="1434.55" y2="1050.02" stroke="#8D55E9" stroke-width="10" stroke-linecap="round"/>
<line x1="402.327" y1="189.738" x2="476.379" y2="127.601" stroke="#8D55E9" stroke-width="10" stroke-linecap="round"/>
<line x1="721.183" y1="713.278" x2="955.025" y2="517.061" stroke="#EC6C5A" stroke-width="10" stroke-linecap="round"/>
<line x1="5.68367" y1="889.74" x2="290.937" y2="650.384" stroke="#EC6C5A" stroke-width="10" stroke-linecap="round"/>
<line x1="371.684" y1="1132.58" x2="531.618" y2="998.384" stroke="#8D55E9" stroke-width="10" stroke-linecap="round"/>
<line x1="84.6837" y1="358.553" x2="169.5" y2="287.384" stroke="#E350F0" stroke-width="10" stroke-linecap="round"/>
<line x1="1035.42" y1="423.902" x2="1147.29" y2="330.034" stroke="#EC6C5A" stroke-width="10" stroke-linecap="round"/>
<line x1="32.6837" y1="1087.69" x2="177.254" y2="966.384" stroke="#4CC082" stroke-width="10" stroke-linecap="round"/>
<line x1="1273.68" y1="370.768" x2="1514.88" y2="168.384" stroke="#F4DC5A" stroke-width="10" stroke-linecap="round"/>
<line x1="541.684" y1="702.95" x2="644.849" y2="616.384" stroke="#E350F0" stroke-width="10" stroke-linecap="round"/>
<line x1="428.83" y1="991.2" x2="601.878" y2="845.996" stroke="#E350F0" stroke-width="10" stroke-linecap="round"/>
<line x1="1014.79" y1="774.517" x2="1346.92" y2="495.833" stroke="#EC6C5A" stroke-width="10" stroke-linecap="round"/>
<line x1="1314.68" y1="1064.08" x2="1429.92" y2="967.384" stroke="#F4DC5A" stroke-width="10" stroke-linecap="round"/>
<line x1="1296.68" y1="771.971" x2="1397.49" y2="687.384" stroke="#EC6C5A" stroke-width="10" stroke-linecap="round"/>
<line x1="330.684" y1="973.073" x2="399.435" y2="915.384" stroke="#4CC082" stroke-width="10" stroke-linecap="round"/>
<line x1="583.684" y1="238.175" x2="731.212" y2="114.384" stroke="#F4DC5A" stroke-width="10" stroke-linecap="round"/>
<line x1="728.684" y1="840.218" x2="841.703" y2="745.384" stroke="#FF5761" stroke-width="10" stroke-linecap="round"/>
<line x1="338.684" y1="447.912" x2="422.736" y2="377.384" stroke="#6E8EFF" stroke-width="10" stroke-linecap="round"/>
<line x1="726.581" y1="339.569" x2="840.125" y2="244.294" stroke="#6E8EFF" stroke-width="10" stroke-linecap="round"/>
<line x1="1020.68" y1="1084.49" x2="1124.49" y2="997.384" stroke="#8D55E9" stroke-width="10" stroke-linecap="round"/>
<line x1="975.684" y1="663.319" x2="1138.88" y2="526.384" stroke="#8D55E9" stroke-width="10" stroke-linecap="round"/>
<line x1="1243.68" y1="286.718" x2="1410.93" y2="146.384" stroke="#6E8EFF" stroke-width="10" stroke-linecap="round"/>
<line x1="356.684" y1="297.109" x2="704.349" y2="5.38373" stroke="#F4DC5A" stroke-width="10" stroke-linecap="round"/>
<line x1="879.32" y1="358.275" x2="1155.39" y2="126.628" stroke="#F4DC5A" stroke-width="10" stroke-linecap="round"/>
<line x1="1224.8" y1="927.726" x2="1483.34" y2="723.838" stroke="#FF5761" stroke-width="10" stroke-linecap="round"/>
<line x1="531.684" y1="415.933" x2="790.226" y2="212.044" stroke="#FF5761" stroke-width="10" stroke-linecap="round"/>
<line x1="1167.68" y1="1036.83" x2="1379.63" y2="872.044" stroke="#4CC082" stroke-width="10" stroke-linecap="round"/>
<line x1="7.58796" y1="240.888" x2="117.547" y2="161.676" stroke="#F4DC5A" stroke-width="10" stroke-linecap="round"/>
</svg>
