<svg width="3397" height="3228" viewBox="0 0 3397 3228" fill="none" xmlns="http://www.w3.org/2000/svg">
<path d="M1717.67 115.985C1730.32 139.649 1724.92 161.804 1701.47 182.451C1685.81 194.883 1674.14 207.206 1666.47 219.42C1658.69 227.635 1644.64 226.017 1624.32 214.567C1600 203.226 1583.68 191.667 1575.36 179.89C1567.03 168.112 1564.54 150.174 1567.89 126.073C1578.68 81.7625 1606.02 57.0079 1649.89 51.8096C1673.77 47.1564 1687.93 52.7723 1692.37 68.6573C1700.69 80.4348 1709.12 96.2107 1717.67 115.985ZM1279.99 133.927L1263.96 206.391L1197.99 208.191L1160.2 143.197L1218.87 93.579L1279.99 133.927ZM1509.87 199.683C1510.85 235.669 1499.46 257.989 1475.68 266.64C1451.91 275.291 1429.7 267.894 1409.05 244.449C1396.62 228.782 1384.3 217.114 1372.09 209.444C1363.76 197.666 1365.32 181.618 1376.77 161.298C1392.22 140.869 1405.84 126.493 1417.61 118.168C1429.39 109.844 1447.38 109.353 1471.59 116.696C1495.69 120.04 1507.96 129.709 1508.4 145.703C1508.73 157.699 1509.22 175.692 1509.87 199.683ZM2011.88 119.963C2040.09 127.197 2062.3 134.594 2078.51 142.154C2098.62 145.608 2109.1 163.328 2109.98 195.316C2115.5 251.186 2090.6 291.881 2035.28 317.399C2007.61 330.158 1985.68 332.757 1969.46 325.196C1953.14 313.637 1934.66 296.135 1914.01 272.689C1897.47 253.133 1891.04 237.302 1894.71 225.198C1902.27 208.986 1913.72 188.666 1929.06 164.238C1952.07 127.597 1979.68 112.839 2011.88 119.963ZM2336.91 153.112L2321.04 231.574L2255.56 251.367L2188.11 199.187L2246.29 131.575L2336.91 153.112ZM2487.51 173.013L2470.66 215.488L2410.68 217.124L2402.88 151.312L2456.7 143.842L2487.51 173.013ZM1169.31 256.991L1128.3 294.123L1086.16 289.271L1066.85 241.78L1114.18 216.479L1169.31 256.991ZM936.048 287.364C956.477 302.812 968.855 316.48 973.18 328.366C981.505 340.144 981.941 356.138 974.489 376.348C963.148 400.667 951.535 414.989 939.648 419.315C927.653 419.642 909.605 418.133 885.505 414.789C861.404 411.445 841.303 407.992 825.2 404.43C813.095 400.759 804.716 386.982 800.063 363.1C795.41 339.218 796.973 323.17 804.752 314.954C812.422 302.741 828.089 290.309 851.752 277.659C879.306 260.901 907.404 264.136 936.048 287.364ZM1370.83 383.543C1383.7 415.204 1390.41 441.03 1390.95 461.023C1391.39 477.017 1377.83 493.393 1350.28 510.15C1326.83 530.797 1307 537.341 1290.79 529.78C1278.47 518.112 1260.04 502.608 1235.5 483.27C1206.97 464.041 1200.15 434.216 1215.05 393.795C1222.4 369.585 1227.85 349.429 1231.41 333.326C1234.97 317.223 1250.75 308.79 1278.74 308.026C1310.73 307.153 1330.88 312.606 1339.21 324.383C1351.53 336.051 1362.07 355.771 1370.83 383.543ZM601.155 332.513L638.287 373.516L621.439 415.991L567.459 417.463L559.989 363.647L601.155 332.513ZM2551.25 309.325L2534.56 357.798L2491.92 334.953L2472.79 293.459L2520.44 280.155L2551.25 309.325ZM1785.5 402.242C1798.15 425.906 1800.69 445.844 1793.13 462.056C1785.46 474.27 1771.9 490.645 1752.46 511.183C1725.45 547.934 1693.73 558.803 1657.31 543.79C1624.89 528.669 1598.57 517.382 1578.36 509.931C1562.14 502.37 1555.6 482.541 1558.73 450.444C1561.64 410.35 1568.87 382.142 1580.43 365.821C1591.88 345.501 1617.49 330.797 1657.25 321.709C1693.02 312.73 1717.12 316.074 1729.55 331.741C1745.98 347.299 1764.63 370.799 1785.5 402.242ZM2719.19 304.744L2738.49 352.235L2697.32 383.369L2642.36 348.855L2677.36 311.887L2719.19 304.744ZM2383.97 337.898L2427.09 378.737L2367.77 404.364L2325.13 381.518L2329.33 315.379L2383.97 337.898ZM2243.13 455.782C2244.33 499.766 2225.1 528.301 2185.44 541.387C2161.67 550.039 2145.62 548.476 2137.29 536.698C2132.97 524.812 2124.54 509.036 2111.99 489.371C2095.56 473.813 2081.19 460.2 2068.86 448.532C2060.54 436.754 2062.16 422.705 2073.72 406.384C2089.06 381.956 2102.72 369.579 2114.72 369.252C2130.71 368.815 2150.82 372.268 2175.02 379.611C2219.34 390.407 2242.04 415.797 2243.13 455.782ZM1971.1 385.174L2019.74 407.856L1991.22 462.654L1930.75 446.297L1917.12 386.647L1971.1 385.174ZM706.717 461.682L726.019 509.174L703.337 557.81L654.7 535.128L647.23 481.312L706.717 461.682ZM2500.38 424.755L2472.19 491.549L2423.72 474.865L2446.4 426.228L2500.38 424.755ZM2902.23 413.793L2945.36 454.632L2934.83 508.939L2880.69 504.414L2849.23 451.252L2902.23 413.793ZM2620.33 421.483L2651.47 462.649L2622.3 493.456L2574.31 494.765L2572.84 440.785L2620.33 421.483ZM1075.85 571.657C1080.62 599.537 1083.21 621.475 1083.65 637.469C1083.98 649.464 1072.31 661.787 1048.65 674.437C1024.98 687.087 1007.1 691.576 994.993 687.905C982.889 684.234 966.567 672.675 946.029 653.227C921.493 633.889 903.063 618.386 890.74 606.718C882.416 594.941 883.87 574.893 895.102 546.577C906.334 518.26 919.947 503.883 935.941 503.447C951.826 499.012 975.817 498.358 1007.91 501.483C1032.01 504.827 1046.23 512.443 1050.55 524.329C1058.77 532.108 1067.2 547.884 1075.85 571.657ZM2387.89 481.844L2365.21 530.481L2323.88 555.617L2298.74 514.287L2327.75 477.482L2387.89 481.844ZM2006.16 570.287L1983.64 624.921L1905.35 615.053L1903.22 537.082L1968.87 523.286L2006.16 570.287ZM2816.68 578.187C2833.22 597.743 2847.65 613.355 2859.97 625.024C2876.29 636.583 2876.73 652.577 2861.28 673.006C2845.94 697.433 2830.17 705.867 2813.95 698.306C2801.63 686.638 2781.42 679.186 2753.32 675.951C2717.01 664.937 2698.47 645.435 2697.71 617.446C2697.05 593.455 2696.51 573.462 2696.07 557.468C2695.63 541.474 2707.3 529.151 2731.07 520.5C2754.85 511.848 2770.95 515.411 2779.38 531.186C2787.71 542.964 2800.14 558.631 2816.68 578.187ZM1220.45 591.721L1209.44 628.035L1162.28 659.333L1130.81 606.171L1171.65 563.041L1220.45 591.721ZM489.708 647.669C502.358 671.333 508.901 691.162 509.338 707.156C513.663 719.043 508.102 735.2 492.653 755.629C469.317 780.275 449.76 796.814 433.984 805.247C422.098 809.573 401.996 806.12 373.68 794.888C345.363 783.656 332.985 769.989 336.548 753.886C340.001 733.784 343.345 709.684 346.58 681.585C349.924 657.485 353.431 639.382 357.103 627.278C360.774 615.173 374.551 606.794 398.433 602.141C438.309 597.052 468.734 612.228 489.708 647.669ZM1502.51 590.029L1510.31 655.841L1450.5 663.474L1419.36 622.308L1448.04 573.508L1502.51 590.029ZM730.11 659.118C750.429 670.568 760.753 682.291 761.08 694.286C765.406 706.173 765.897 724.166 762.553 748.266C759.318 776.365 737.762 792.959 697.886 798.048C662.009 803.028 637.745 793.687 625.095 770.023C608.119 734.472 611.354 706.374 634.8 685.727C650.248 665.298 663.916 652.921 675.802 648.595C691.687 644.16 709.79 647.668 730.11 659.118ZM2139.75 626.665L2129.06 674.974L2081.08 676.283L2055.94 634.953L2091.28 609.981L2139.75 626.665ZM3040.89 656.102L3000.54 717.225L2934.07 701.031L2926.27 635.219L2990.94 585.438L3040.89 656.102ZM1836.48 730.974C1841.13 754.856 1845.68 774.739 1850.11 790.624C1854.55 806.509 1844.93 820.777 1821.27 833.427C1797.5 842.078 1781.45 840.515 1773.12 828.738C1764.69 812.962 1752.26 797.295 1735.83 781.737C1715.29 762.29 1696.91 748.786 1680.7 741.226C1664.38 729.666 1663.84 709.674 1679.07 681.248C1701.86 636.61 1741.35 617.526 1797.55 623.996C1825.76 631.229 1838.13 644.897 1834.68 664.998C1831.12 681.101 1831.72 703.093 1836.48 730.974ZM2487.62 617.175L2519.24 676.334L2478.73 731.46L2412.27 715.266L2416.3 643.129L2487.62 617.175ZM1277.22 692.211L1320.18 727.052L1291.67 781.85L1225.36 771.654L1229.72 711.513L1277.22 692.211ZM2342.58 801.198C2347.56 837.076 2350.33 865.011 2350.87 885.004C2355.42 904.887 2341.91 923.262 2310.36 940.129C2278.92 960.994 2253.09 967.701 2232.88 960.249C2216.67 952.688 2194.19 935.295 2165.43 908.069C2140.79 884.733 2130.25 865.013 2133.81 848.91C2137.37 832.806 2146.77 810.542 2162 782.116C2177.12 749.692 2188.46 725.373 2196.02 709.161C2207.58 692.84 2229.41 686.242 2261.5 689.368C2297.71 696.383 2318.08 709.833 2322.63 729.716C2327.06 745.601 2333.71 769.428 2342.58 801.198ZM1122.42 738.449L1171.22 767.129L1136.21 804.097L1088.4 811.404L1075.09 763.749L1122.42 738.449ZM1508.08 793.953C1512.73 817.835 1511.17 833.883 1503.39 842.099C1495.61 850.314 1481.89 860.692 1462.22 873.233C1430.89 898.096 1402.95 900.859 1378.42 881.521C1362.09 869.962 1353.77 858.185 1353.44 846.189C1357.11 834.084 1362.68 817.927 1370.13 797.716C1377.69 781.504 1383.36 769.345 1387.14 761.239C1394.81 749.025 1408.64 742.645 1428.63 742.1C1468.73 745.008 1495.21 762.292 1508.08 793.953ZM2011.56 768.213L2007.04 822.357L1960.04 859.652L1916.42 800.82L1956.93 745.695L2011.56 768.213ZM2612.32 787.838C2632.86 807.285 2635.57 833.221 2620.44 865.645C2612.99 885.856 2593.22 894.398 2561.12 891.272C2541.02 887.819 2523.03 888.31 2507.14 892.745C2491.15 893.181 2480.88 883.458 2476.33 863.574C2471.68 839.692 2473.24 823.644 2481.02 815.428C2492.69 803.106 2508.41 792.673 2528.19 784.131C2559.63 763.266 2587.67 764.501 2612.32 787.838ZM3134.45 785.598L3141.6 827.419L3094.27 852.719L3080.96 805.064L3097.81 762.589L3134.45 785.598ZM610.374 890.469C626.586 898.03 634.856 907.808 635.183 919.803C635.401 927.8 635.783 941.795 636.329 961.788C632.985 985.888 631.531 1005.94 631.967 1021.93C636.293 1033.82 626.569 1044.08 602.796 1052.74C578.914 1057.39 562.811 1053.83 554.487 1042.05C550.161 1030.16 539.674 1012.44 523.025 988.888C514.592 973.112 508.213 959.281 503.887 947.394C499.561 935.508 505.177 921.349 520.735 904.919C540.073 880.382 569.953 875.566 610.374 890.469ZM353.779 945.487C374.644 976.93 387.403 1004.59 392.056 1028.47C400.599 1048.25 393.256 1072.46 370.029 1101.1C342.912 1133.85 317.412 1152.56 293.53 1157.21C273.538 1157.75 243.331 1150.58 202.909 1135.67C170.594 1124.55 154.163 1108.99 153.618 1089C156.962 1064.9 160.197 1036.8 163.323 1004.7C166.449 972.605 169.793 948.505 173.355 932.402C176.917 916.299 194.583 903.813 226.353 894.943C258.232 890.072 282.223 889.417 298.326 892.98C318.428 896.433 336.912 913.935 353.779 945.487ZM2860.19 853.103C2888.29 856.338 2910.39 859.736 2926.49 863.298C2942.49 862.862 2952.81 874.585 2957.47 898.467C2962.23 926.347 2956.72 944.504 2940.94 952.938C2925.06 957.372 2905.29 965.915 2881.62 978.565C2857.96 991.215 2838.24 1001.76 2822.46 1010.19C2810.68 1018.51 2794.58 1014.95 2774.15 999.503C2749.51 976.167 2734.97 956.556 2730.53 940.671C2725.99 920.788 2731.33 896.633 2746.56 868.207C2761.9 843.78 2777.68 835.346 2793.89 842.907C2809.99 846.469 2832.09 849.868 2860.19 853.103ZM1074 943.846C1102.76 971.072 1121.4 994.572 1129.95 1014.35C1142.38 1030.01 1141.09 1056.06 1126.07 1092.48C1111.17 1132.9 1093.89 1159.38 1074.22 1171.92C1054.56 1184.47 1024.68 1189.28 984.583 1186.37C944.488 1183.47 918.225 1174.18 905.794 1158.51C897.251 1138.74 888.436 1108.97 879.348 1069.2C870.478 1037.43 869.878 1015.44 877.548 1003.23C889.108 986.904 908.664 970.364 936.217 953.607C963.661 932.851 985.326 920.255 1001.21 915.82C1021.09 911.276 1045.36 920.618 1074 943.846ZM2015.49 912.16L2076.77 958.506L2048.42 1019.3L1994.28 1014.78L1980.97 967.121L2015.49 912.16ZM1398.86 970.997L1441.99 1011.84L1419.31 1060.47L1376.84 1043.62L1369.86 1007.8L1398.86 970.997ZM3222.51 933.252L3205.83 981.725L3164.83 1018.86L3145.36 965.368L3168.21 922.729L3222.51 933.252ZM2612.21 1003.92L2601.85 1064.23L2530.04 1072.19L2510.41 1012.7L2563.41 975.241L2612.21 1003.92ZM2426.28 1008.99L2446.07 1074.48L2380.92 1106.27L2343.46 1053.27L2365.98 998.634L2426.28 1008.99ZM1293.85 1081.9L1336.98 1122.74L1296.14 1165.87L1253.66 1149.02L1246.19 1095.21L1293.85 1081.9ZM2266.96 1109.38L2208.13 1153L2130.65 1173.12L2146.51 1094.65L2199.84 1069.19L2266.96 1109.38ZM520.955 1133C545.055 1136.34 563.212 1141.85 575.425 1149.52C587.53 1153.19 595.909 1166.97 600.562 1190.85C605.324 1218.73 605.924 1240.72 602.362 1256.82C602.798 1272.82 591.239 1289.14 567.684 1305.79C540.022 1318.55 520.029 1319.09 507.706 1307.42C499.382 1295.65 484.896 1278.04 464.249 1254.59C439.713 1235.25 419.338 1221.8 403.126 1214.24C390.803 1202.57 390.258 1182.58 401.49 1154.26C416.72 1125.84 432.442 1115.4 448.654 1122.97C468.756 1126.42 492.856 1129.76 520.955 1133ZM724.551 1115.44L755.686 1156.61L727.006 1205.41L666.374 1183.05L682.731 1122.58L724.551 1115.44ZM3221.42 1113.35L3235.38 1184.99L3163.08 1174.96L3119.46 1116.13L3178.29 1072.51L3221.42 1113.35ZM2027.05 1115.92L2087.52 1132.28L2059.16 1193.07L1993.35 1200.87L1967.4 1129.55L2027.05 1115.92ZM3030.15 1142.58L3049.78 1202.06L2984.46 1227.85L2952.83 1168.69L2981.35 1113.9L3030.15 1142.58ZM2718.59 1163.08C2735.35 1190.63 2732.11 1218.73 2708.89 1247.38C2685.77 1280.02 2660.05 1290.72 2631.73 1279.49C2599.53 1272.37 2573.37 1267.08 2553.27 1263.63C2537.06 1256.06 2528.52 1236.29 2527.65 1204.3C2526.88 1176.31 2536.5 1162.04 2556.49 1161.5C2580.48 1160.84 2606.31 1154.14 2633.97 1141.38C2673.74 1132.29 2701.94 1139.52 2718.59 1163.08ZM2388.22 1154.09L2414.18 1225.4L2367.51 1274.69L2330.37 1233.69L2329.06 1185.71L2388.22 1154.09ZM1904.86 1257.3L1894.17 1305.61L1851.7 1288.77L1844.55 1246.95L1885.56 1209.81L1904.86 1257.3ZM752.96 1276.72L729.951 1313.37L676.135 1320.84L692.819 1272.36L722.317 1253.55L752.96 1276.72ZM1508.19 1238.11L1539.32 1279.28L1522.31 1315.76L1462.66 1329.39L1460.86 1263.42L1508.19 1238.11ZM1730.43 1244.06L1762.22 1309.21L1697.72 1364.99L1630.43 1318.81L1664.78 1257.85L1730.43 1244.06ZM1324.38 1321.16C1345.14 1348.6 1349.79 1372.48 1338.34 1392.8C1326.78 1409.13 1313.39 1431.5 1298.16 1459.92C1286.71 1480.24 1272.99 1490.62 1256.99 1491.06C1245 1491.39 1226.95 1489.88 1202.85 1486.53C1170.64 1479.41 1142.54 1476.17 1118.55 1476.83C1098.56 1477.37 1086.13 1461.71 1081.26 1429.83C1076.06 1385.95 1079.24 1355.86 1090.8 1339.53C1102.25 1319.22 1125.8 1302.57 1161.46 1289.59C1201.01 1272.5 1230.84 1265.69 1250.94 1269.14C1271.04 1272.59 1295.52 1289.93 1324.38 1321.16ZM3346.94 1314C3347.49 1333.99 3339.82 1346.21 3323.93 1350.64C3311.94 1350.97 3294.05 1355.46 3270.28 1364.11C3242.51 1372.87 3222.41 1369.42 3209.97 1353.75C3197.43 1334.08 3187.06 1320.36 3178.84 1312.58C3170.52 1300.81 3172.08 1284.76 3183.53 1264.44C3206.54 1227.8 3240.25 1216.87 3284.67 1231.67C3324.99 1242.57 3345.74 1270.02 3346.94 1314ZM2913.96 1283.8L2896.95 1320.27L2843.13 1327.74L2853.82 1279.43L2883.15 1254.63L2913.96 1283.8ZM238.297 1332.78L216.433 1411.41L150.785 1425.2L101.33 1372.53L160.163 1328.91L238.297 1332.78ZM955.304 1433.26C968.173 1464.93 958.994 1495.19 927.77 1524.05C900.435 1548.8 879.043 1571.4 863.594 1591.82C852.035 1608.15 831.988 1606.69 803.453 1587.46C766.921 1568.45 746.383 1549 741.839 1529.12C737.186 1505.24 740.312 1473.14 751.217 1432.83C758.123 1392.63 769.409 1366.31 785.076 1353.88C800.634 1337.45 828.351 1326.69 868.227 1321.6C904.213 1320.62 924.533 1332.07 929.186 1355.95C933.73 1375.83 942.436 1401.6 955.304 1433.26ZM2224.54 1314.61L2232.83 1398.41L2149.19 1412.7L2105.57 1353.87L2158.4 1310.41L2224.54 1314.61ZM683.114 1356.66L667.084 1429.12L619.757 1454.42L564.631 1413.91L611.304 1364.62L683.114 1356.66ZM2447.28 1338.54L2454.42 1380.36L2400.93 1399.83L2375.47 1346.5L2416.63 1315.37L2447.28 1338.54ZM3023.06 1322.84C3047.05 1322.18 3061.21 1327.8 3065.54 1339.68C3073.86 1351.46 3082.35 1369.24 3091 1393.01C3095.55 1412.89 3093.93 1426.94 3086.15 1435.16C3078.26 1439.37 3066.48 1447.7 3050.82 1460.13C3035.04 1468.56 3021.21 1474.94 3009.32 1479.27C3001.44 1483.49 2989.33 1479.81 2973.01 1468.25C2940.26 1441.14 2929.5 1413.42 2940.73 1385.1C2955.52 1340.68 2982.97 1319.93 3023.06 1322.84ZM355.527 1449.63L339.17 1510.1L273.359 1517.89L271.722 1457.92L306.727 1420.95L355.527 1449.63ZM2826.77 1388.21L2792.42 1449.17L2750.27 1444.32L2706.98 1397.48L2765.81 1353.86L2826.77 1388.21ZM1621.55 1433.1L1593.03 1487.89L1533.05 1489.53L1519.26 1423.88L1572.75 1404.42L1621.55 1433.1ZM153.403 1521.17L106.73 1570.46L46.9159 1578.09L39.1183 1512.28L92.2801 1480.82L153.403 1521.17ZM1958.57 1465.92C1991.1 1485.04 2019.53 1500.27 2043.85 1511.61C2068.05 1518.95 2074.65 1540.78 2063.64 1577.09C2056.84 1621.3 2041.61 1649.72 2017.95 1662.37C1998.17 1670.91 1968.35 1677.73 1928.47 1682.82C1892.59 1687.8 1868.44 1682.46 1856.01 1666.79C1847.47 1647.01 1834.71 1619.35 1817.73 1583.8C1804.97 1556.14 1798.37 1534.31 1797.94 1518.32C1801.5 1502.21 1814.95 1481.84 1838.29 1457.19C1861.84 1440.55 1881.67 1434 1897.77 1437.57C1913.88 1441.13 1934.14 1450.58 1958.57 1465.92ZM555.417 1516.2L563.215 1582.01L497.894 1607.8L478.264 1548.32L494.785 1493.85L555.417 1516.2ZM3332.71 1452.44L3340.02 1500.26L3292.53 1519.56L3261.39 1478.39L3284.08 1429.76L3332.71 1452.44ZM2480.37 1451.68L2421.71 1501.3L2432.88 1470.99L2480.37 1451.68ZM2643.3 1483.25L2686.75 1536.09L2627.76 1573.71L2579.12 1551.03L2571.16 1479.22L2643.3 1483.25ZM2907.2 1476.05L2926.66 1529.54L2891.33 1554.51L2849.02 1543.66L2847.55 1489.68L2907.2 1476.05ZM2314.73 1540.23C2335.27 1559.68 2351.7 1575.24 2364.02 1586.91C2380.23 1594.47 2382.61 1608.41 2371.16 1628.73C2359.93 1657.04 2346.32 1671.42 2330.32 1671.86C2314.33 1672.29 2292.28 1670.89 2264.18 1667.66C2236.08 1664.42 2215.93 1658.97 2203.71 1651.3C2191.5 1643.63 2183.01 1625.86 2178.25 1597.98C2173.6 1574.09 2175.11 1556.05 2182.78 1543.83C2194.44 1531.51 2212.11 1519.02 2235.77 1506.37C2255.55 1497.83 2269.54 1497.45 2277.76 1505.23C2285.97 1513.01 2298.3 1524.68 2314.73 1540.23ZM652.527 1555.57L677.5 1590.9L654.654 1633.54L600.02 1611.02L616.868 1568.54L652.527 1555.57ZM1488.18 1604.8L1451.87 1593.78L1444.89 1557.96L1480.55 1544.98L1488.18 1604.8ZM1122.64 1626.77L1112.61 1699.07L1047.13 1718.87L1027.66 1665.38L1049.85 1598.75L1122.64 1626.77ZM288.299 1625.53L284.429 1703.66L224.778 1717.29L199.642 1675.96L216.49 1633.49L288.299 1625.53ZM1368.22 1608.07L1417.68 1660.74L1359.5 1728.35L1316.04 1675.52L1320.9 1633.37L1368.22 1608.07ZM2772.03 1581.78L2791.17 1623.27L2774.16 1659.75L2737.68 1642.74L2724.38 1595.08L2772.03 1581.78ZM1753.23 1639.58L1772.86 1699.07L1743.85 1735.87L1695.38 1719.19L1687.74 1659.38L1753.23 1639.58ZM2515.11 1624.8L2552.4 1671.8L2505.24 1703.1L2474.92 1691.92L2473.94 1655.93L2515.11 1624.8ZM1621.6 1655.18L1629.4 1720.99L1582.4 1758.28L1533.27 1717.61L1555.63 1656.98L1621.6 1655.18ZM3248.64 1670.81C3261.5 1702.47 3260.1 1724.52 3244.44 1736.95C3228.77 1749.38 3207.22 1765.98 3179.77 1786.73C3152.33 1807.49 3130.83 1826.08 3115.27 1842.51C3099.71 1858.95 3075.66 1857.6 3043.13 1838.48C3014.49 1815.25 3001.89 1793.59 3005.34 1773.49C3008.8 1753.39 3016.03 1725.18 3027.05 1688.86C3034.28 1660.66 3043.84 1644.39 3055.73 1640.06C3071.5 1631.63 3093.38 1627.03 3121.37 1626.27C3153.36 1625.4 3179.35 1624.69 3199.34 1624.14C3219.34 1623.6 3235.77 1639.15 3248.64 1670.81ZM2881.95 1650.81L2907.09 1692.14L2902.4 1740.28L2854.09 1729.59L2846.95 1687.77L2881.95 1650.81ZM934.478 1769.96C939.022 1789.84 935.351 1801.95 923.464 1806.27C911.578 1810.6 895.802 1819.03 876.137 1831.57C852.582 1848.22 832.644 1850.76 816.323 1839.21C799.892 1823.65 787.57 1811.98 779.354 1804.2C771.139 1796.42 770.757 1782.43 778.209 1762.22C789.332 1729.9 814.94 1715.2 855.035 1718.1C899.127 1720.9 925.609 1738.19 934.478 1769.96ZM166.109 1766.91L167.746 1826.89L114.093 1840.36L71.1268 1805.51L105.804 1756.55L166.109 1766.91ZM623.576 1814.45C648.985 1865.78 674.067 1905.11 698.822 1932.44C723.467 1955.78 716.288 1985.99 677.285 2023.07C630.503 2068.36 589.173 2093.49 553.295 2098.47C521.307 2099.35 476.887 2084.55 420.035 2054.09C367.291 2027.52 340.483 1998.24 339.61 1966.25C338.737 1934.26 343.535 1890.12 354.004 1833.81C360.801 1789.61 376.195 1767.18 400.186 1766.53C428.066 1761.76 463.944 1756.78 507.819 1751.59C563.689 1746.06 602.274 1767.02 623.576 1814.45ZM2080.38 1750.7C2097.03 1774.26 2093.79 1802.36 2070.67 1835C2059.01 1847.32 2047.17 1853.65 2035.18 1853.97C2027.07 1850.19 2014.97 1846.52 1998.86 1842.96C1978.65 1835.51 1960.55 1832 1944.56 1832.44C1932.45 1828.76 1926.07 1814.93 1925.42 1790.94C1924.76 1766.95 1930.38 1752.79 1942.27 1748.47C1954.04 1740.14 1971.82 1731.66 1995.59 1723C2031.36 1714.03 2059.62 1723.26 2080.38 1750.7ZM2704.31 1739.68L2687.3 1776.16L2633.16 1771.64L2625.36 1705.82L2704.31 1739.68ZM1498.92 1778.57C1515.46 1798.12 1517.9 1814.06 1506.23 1826.39C1494.56 1838.71 1481 1855.09 1465.55 1875.51C1454.21 1899.83 1444.76 1920.1 1437.2 1936.31C1433.53 1948.42 1419.59 1950.8 1395.38 1943.45C1367.28 1940.22 1349.07 1932.71 1340.75 1920.94C1336.31 1905.05 1333.71 1883.11 1332.95 1855.12C1332.08 1823.14 1351.41 1798.6 1390.96 1781.51C1414.63 1768.86 1434.4 1760.32 1450.29 1755.89C1466.06 1747.45 1482.27 1755.01 1498.92 1778.57ZM1198.71 1774.75L1181.86 1817.23L1146.04 1824.21L1121.06 1788.88L1156.4 1763.9L1198.71 1774.75ZM1086.39 1837.84L1081.7 1885.99L1033.55 1881.3L996.583 1846.29L1043.42 1803L1086.39 1837.84ZM2477.54 1787.89C2502.4 1819.22 2505.11 1845.15 2485.67 1865.69C2470.33 1890.12 2446.44 1894.77 2414.02 1879.65C2377.71 1868.64 2359.22 1851.14 2358.57 1827.14C2358.02 1807.15 2361.69 1795.05 2369.58 1790.83C2381.47 1786.5 2397.3 1780.07 2417.07 1771.53C2444.84 1762.77 2465 1768.22 2477.54 1787.89ZM1704.48 1832.98L1694.29 1899.29L1634.47 1906.92L1596.85 1847.92L1650.01 1816.46L1704.48 1832.98ZM2904.36 1812.25L2923.5 1853.75L2882.66 1896.88L2839.53 1856.04L2843.9 1795.9L2904.36 1812.25ZM2280.76 1835.27L2294.23 1888.92L2234.41 1896.56L2191.12 1849.72L2238.12 1812.42L2280.76 1835.27ZM1281.1 1934.57L1283.39 2018.54L1205.42 2020.66L1167.96 1967.66L1201.82 1888.71L1281.1 1934.57ZM268.291 1992.21C280.723 2007.87 291.101 2021.6 299.425 2033.37C307.641 2041.15 307.968 2053.15 300.407 2069.36C284.849 2085.79 271.073 2094.17 259.077 2094.5C250.971 2090.72 236.867 2087.1 216.766 2083.65C196.555 2076.19 180.397 2070.63 168.293 2066.96C156.079 2059.29 149.699 2045.46 149.154 2025.47C148.499 2001.48 152.116 1987.37 160.004 1983.16C171.781 1974.83 189.611 1968.34 213.493 1963.69C229.269 1955.26 239.265 1954.99 243.482 1962.87C251.697 1970.65 259.967 1980.43 268.291 1992.21ZM1025.81 2037.57C1070.56 2064.36 1099.26 2089.58 1111.91 2113.25C1124.45 2132.91 1125.37 2166.9 1114.69 2215.21C1103.89 2259.52 1084.5 2282.06 1056.51 2282.82C1028.41 2279.59 992.37 2278.57 948.386 2279.77C904.402 2280.97 870.47 2283.89 846.588 2288.55C822.596 2289.2 804.058 2269.7 790.971 2230.04C773.996 2194.49 775.286 2168.45 794.842 2151.91C814.398 2135.37 839.843 2114.67 871.177 2089.8C902.401 2060.94 927.846 2040.24 947.512 2027.7C967.068 2011.16 993.167 2014.45 1025.81 2037.57ZM1410.81 2069.08L1435.95 2110.41L1413.27 2159.05L1370.63 2136.2L1363.16 2082.38L1410.81 2069.08ZM435.303 2173.72L424.453 2216.03L376.307 2211.34L374.998 2163.36L410.003 2126.39L435.303 2173.72ZM1318.12 2191.65C1358.54 2206.56 1377.35 2236.05 1374.55 2280.15C1371.87 2328.24 1350.69 2358.83 1311.03 2371.91C1283.15 2376.68 1265.11 2375.17 1256.89 2367.39C1248.57 2355.61 1238.08 2337.89 1225.43 2314.23C1208.78 2290.67 1212.07 2264.57 1235.3 2235.93C1250.75 2215.5 1262.36 2201.18 1270.14 2192.96C1277.92 2184.75 1293.91 2184.31 1318.12 2191.65ZM2350.88 2205.49L2340.52 2265.8L2262.39 2261.93L2266.42 2189.79L2313.75 2164.49L2350.88 2205.49ZM594.027 2271.43C602.46 2287.2 595.008 2307.42 571.672 2332.06C560.004 2344.38 550.28 2354.65 542.501 2362.87C534.722 2371.08 522.672 2369.41 506.351 2357.85C478.034 2346.62 467.383 2322.9 474.399 2286.7C481.305 2246.49 498.698 2224.01 526.579 2219.25C550.461 2214.6 564.565 2218.21 568.89 2230.1C577.105 2237.88 585.484 2251.65 594.027 2271.43ZM2128.15 2181.56C2156.25 2184.79 2172.84 2206.35 2177.93 2246.23C2182.47 2266.11 2168.91 2282.49 2137.25 2295.35C2121.48 2303.79 2107.7 2312.17 2095.92 2320.49C2088.04 2324.71 2077.88 2318.98 2065.44 2303.31C2040.69 2275.98 2035.93 2248.1 2051.16 2219.67C2066.28 2187.25 2091.94 2174.54 2128.15 2181.56ZM2572.96 2205.44C2601.39 2220.67 2613.98 2242.33 2610.75 2270.43C2607.41 2294.53 2603.95 2314.63 2600.39 2330.74C2596.72 2342.84 2582.94 2351.22 2559.06 2355.87C2535.18 2360.53 2519.08 2356.96 2510.75 2345.19C2502.43 2333.41 2491.94 2315.69 2479.29 2292.03C2466.75 2272.36 2458.32 2256.58 2453.99 2244.7C2449.55 2228.81 2457.06 2210.6 2476.51 2190.06C2492.07 2173.63 2505.95 2169.25 2518.17 2176.92C2530.38 2184.59 2548.64 2194.1 2572.96 2205.44ZM233.179 2245.26L234.324 2287.24L192.831 2306.38L155.862 2271.38L191.031 2240.41L233.179 2245.26ZM2777.21 2211.87L2766.86 2272.18L2700.88 2273.98L2687.08 2208.33L2734.74 2195.02L2777.21 2211.87ZM3311.83 2227.3L3295.48 2287.77L3241.01 2271.25L3227.87 2229.59L3263.03 2198.62L3311.83 2227.3ZM1543.15 2299.56L1556.61 2353.21L1502.96 2366.68L1459.83 2325.84L1500.51 2276.71L1543.15 2299.56ZM745.607 2327.32L735.084 2381.62L687.266 2388.93L650.134 2347.93L697.134 2310.63L745.607 2327.32ZM3086.37 2323.48C3131.45 2362.27 3154.42 2397.65 3155.29 2429.64C3156.06 2457.63 3147.15 2497.89 3128.58 2550.42C3109.78 2594.94 3086.39 2617.59 3058.4 2618.35C3034.41 2619.01 2998.37 2617.99 2950.28 2615.3C2902.19 2612.61 2864.09 2609.65 2836 2606.41C2807.9 2603.18 2787.2 2577.73 2773.89 2530.08C2760.48 2478.43 2759.44 2440.44 2770.78 2416.12C2786.01 2387.7 2817.24 2358.83 2864.46 2329.54C2911.67 2300.24 2949.22 2283.21 2977.1 2278.44C3008.98 2273.57 3045.41 2288.59 3086.37 2323.48ZM1988.29 2335.43L2007.59 2382.92L1966.75 2426.05L1923.62 2385.21L1928.15 2331.07L1988.29 2335.43ZM2294.67 2345.08L2296.63 2417.05L2224.82 2425.01L2193.36 2371.85L2234.2 2328.72L2294.67 2345.08ZM1790.86 2358.82L1828.15 2405.82L1768.99 2437.45L1708.2 2409.1L1749.03 2365.97L1790.86 2358.82ZM262.242 2430.54L287.379 2471.87L202.919 2456.16L225.928 2419.52L262.242 2430.54ZM1668.17 2482.21C1696.93 2509.44 1715.58 2532.94 1724.12 2552.72C1736.55 2568.38 1735.2 2592.43 1720.08 2624.85C1701.07 2661.38 1681.68 2683.92 1661.91 2692.46C1646.02 2696.9 1618.03 2697.66 1577.94 2694.75C1537.73 2687.85 1507.53 2680.67 1487.32 2673.22C1467 2661.77 1452.29 2636.16 1443.2 2596.39C1434.01 2552.63 1433.08 2518.64 1440.42 2494.43C1447.77 2470.22 1471.1 2445.58 1510.43 2420.49C1545.87 2399.52 1571.86 2398.81 1588.4 2418.37C1608.83 2433.82 1635.42 2455.1 1668.17 2482.21ZM1150.73 2436.31L1169.87 2477.8L1123.03 2521.1L1073.74 2474.42L1102.26 2419.62L1150.73 2436.31ZM613.385 2541C626.471 2580.66 629.289 2610.59 621.837 2630.8C618.384 2650.91 598.991 2673.44 563.659 2698.42C532.217 2719.28 508.335 2723.93 492.013 2712.37C475.583 2696.82 453.046 2677.42 424.402 2654.2C399.865 2634.86 381.436 2619.36 369.113 2607.69C356.681 2592.02 356.081 2570.03 367.313 2541.71C382.325 2505.29 395.666 2480.92 407.334 2468.59C422.892 2452.16 448.664 2443.46 484.65 2442.47C524.745 2445.38 552.952 2452.62 569.274 2464.18C589.594 2475.63 604.297 2501.23 613.385 2541ZM844.68 2438.66C896.879 2445.23 929.631 2472.35 942.935 2520.01C952.132 2563.77 933.121 2600.3 885.903 2629.6C842.574 2654.79 802.425 2649.89 765.456 2614.88C745.028 2599.43 734.595 2583.71 734.159 2567.72C737.721 2551.61 745.172 2531.4 756.514 2507.09C767.855 2482.77 777.36 2464.5 785.03 2452.29C796.698 2439.96 816.582 2435.42 844.68 2438.66ZM2130.66 2493.61L2108.14 2548.24L2041.84 2538.05L2046.36 2483.9L2093.36 2446.61L2130.66 2493.61ZM2484.53 2483.95C2553.37 2514.09 2588.34 2549.15 2589.43 2589.13C2594.52 2629.01 2594.05 2685.04 2588.02 2757.23C2581.98 2829.42 2573.51 2885.68 2562.61 2925.99C2551.7 2966.3 2510.43 2993.44 2438.78 3007.4C2371.14 3021.25 2328.77 3008.4 2311.68 2968.85C2298.49 2925.19 2275.13 2875.81 2241.62 2820.7C2212.21 2769.49 2189.13 2730.1 2172.37 2702.55C2155.5 2671 2166.46 2632.68 2205.25 2587.61C2255.7 2530.21 2298.65 2491.03 2334.09 2470.05C2369.53 2449.08 2419.68 2453.71 2484.53 2483.95ZM1866.59 2494.81L1879.57 2530.47L1838.08 2549.61L1789.28 2520.93L1830.44 2489.79L1866.59 2494.81ZM1221.45 2608.44C1273.87 2623.02 1300.79 2656.3 1302.2 2708.28C1302.97 2736.27 1295.46 2754.48 1279.68 2762.91C1267.91 2771.24 1250.13 2779.73 1226.36 2788.38C1194.7 2801.25 1170.93 2809.9 1155.04 2814.33C1139.16 2818.77 1120.89 2809.26 1100.24 2785.82C1075.49 2758.48 1060.84 2734.87 1056.29 2714.99C1055.75 2694.99 1065.04 2668.73 1084.16 2636.2C1103.39 2607.66 1123 2593.12 1142.99 2592.58C1162.98 2592.03 1189.14 2597.32 1221.45 2608.44ZM1943.96 2690.77C1952.29 2702.55 1958.61 2714.38 1962.94 2726.27C1967.16 2734.16 1963.43 2744.26 1951.76 2756.58C1940.31 2776.9 1928.7 2791.23 1916.92 2799.55C1909.14 2807.76 1893.15 2808.2 1868.94 2800.86C1848.73 2793.41 1838.46 2783.68 1838.13 2771.69C1841.69 2755.58 1843.15 2735.54 1842.49 2711.55C1841.95 2691.55 1841.51 2675.56 1841.18 2663.56C1844.86 2651.46 1858.58 2641.08 1882.35 2632.43C1902.23 2627.89 1914.34 2631.56 1918.66 2643.44C1922.99 2655.33 1931.42 2671.11 1943.96 2690.77ZM799.209 2752.01C819.31 2755.47 829.525 2763.19 829.852 2775.18C834.178 2787.07 838.558 2800.96 842.993 2816.84C847.537 2836.73 851.972 2852.61 856.297 2864.5C860.623 2876.38 854.898 2886.54 839.122 2894.98C819.457 2907.52 805.516 2909.9 797.301 2902.12C789.086 2894.34 776.818 2884.67 760.497 2873.11C744.066 2857.55 729.744 2845.94 717.53 2838.27C709.315 2830.49 708.933 2816.5 716.385 2796.29C731.507 2763.86 759.114 2749.1 799.209 2752.01ZM639.232 2828.4L623.039 2894.87L568.077 2860.36L548.611 2806.87L607.771 2775.24L639.232 2828.4ZM1448.93 2806.31L1432.25 2854.79L1377.61 2832.27L1370.31 2784.45L1423.63 2758.99L1448.93 2806.31ZM1766.65 2791.64L1797.78 2832.81L1750.78 2870.11L1713.81 2835.1L1712.18 2775.12L1766.65 2791.64ZM999.589 2836.58L1001.06 2890.56L952.916 2885.87L921.782 2844.7L963.112 2819.57L999.589 2836.58ZM2032.02 2838.43L2039.33 2886.24L1992.49 2929.54L1949.04 2876.7L1971.23 2810.07L2032.02 2838.43ZM2758.74 2854.61L2784.36 2913.94L2724.71 2927.57L2675.75 2892.89L2710.43 2843.93L2758.74 2854.61ZM1884.53 2932.48L1874.01 2986.79L1807.71 2976.59L1806.07 2916.62L1858.91 2873.16L1884.53 2932.48ZM1607.98 2916.02C1648.51 2934.92 1680.94 2950.04 1705.26 2961.38C1729.46 2968.72 1740.17 2994.44 1737.37 3038.53C1730.68 3086.74 1715.56 3119.16 1692.01 3135.81C1672.34 3148.35 1640.68 3161.22 1597.02 3174.41C1549.26 3183.72 1513.22 3182.7 1488.9 3171.36C1468.58 3159.91 1447.88 3134.46 1426.8 3095.03C1405.82 3059.58 1403.11 3033.65 1418.67 3017.22C1434.23 3000.79 1455.57 2976.2 1482.68 2943.44C1506.13 2922.8 1525.79 2910.26 1541.68 2905.82C1557.45 2897.39 1579.56 2900.79 1607.98 2916.02ZM955.37 2975.84L963.004 3035.65L891.195 3043.61L871.402 2978.13L912.404 2941L955.37 2975.84ZM1365.35 3042.68C1366 3066.67 1358.38 3080.89 1342.5 3085.32C1330.61 3089.65 1314.73 3094.08 1294.85 3098.62C1271.18 3111.27 1251.08 3107.82 1234.54 3088.27C1213.78 3060.82 1209.13 3036.94 1220.58 3016.62C1235.92 2992.19 1259.69 2983.54 1291.9 2990.67C1312.11 2998.12 1328.27 3003.68 1340.37 3007.35C1356.48 3010.91 1364.8 3022.69 1365.35 3042.68ZM1107.11 3037.72L1084.27 3080.36L1024.45 3087.99L1028.82 3027.85L1070.31 3008.71L1107.11 3037.72ZM2140.04 3057.56L2153.18 3099.22L2093.69 3118.85L2080.23 3065.2L2109.4 3034.39L2140.04 3057.56ZM1989.77 3049.66L1985.41 3109.8L1943.91 3128.94L1907.11 3099.93L1929.95 3057.29L1989.77 3049.66ZM1810 3060.56L1865.12 3101.07L1836.44 3149.87L1788.3 3145.19L1763 3097.86L1810 3060.56Z" fill="white"/>
</svg>
