<svg xmlns="http://www.w3.org/2000/svg" version="1.1" xmlns:xlink="http://www.w3.org/1999/xlink" xmlns:svgjs="http://svgjs.com/svgjs" width="1440" height="560" preserveAspectRatio="none" viewBox="0 0 1440 560"><g mask="url(&quot;#SvgjsMask2149&quot;)" fill="none"><g mask="url(&quot;#SvgjsMask2151&quot;)"><path d="M1261.5 275.5L1232.5 304.5L1203.5 304.5L1174.5 304.5M1406.5 275.5L1377.5 304.5M1203.5 275.5L1174.5 246.5L1145.5 246.5L1116.5 246.5M1464.5 275.5L1435.5 275.5L1406.5 275.5L1377.5 275.5L1348.5 275.5L1319.5 275.5L1290.5 275.5L1261.5 275.5L1232.5 275.5L1203.5 275.5L1174.5 275.5" stroke="url(#SvgjsRadialGradient2150)" stroke-width="4.83"></path><path d="M1167.25 275.5 a7.25 7.25 0 1 0 14.5 0 a7.25 7.25 0 1 0 -14.5 0zM1167.25 304.5 a7.25 7.25 0 1 0 14.5 0 a7.25 7.25 0 1 0 -14.5 0zM1370.25 304.5 a7.25 7.25 0 1 0 14.5 0 a7.25 7.25 0 1 0 -14.5 0zM1109.25 246.5 a7.25 7.25 0 1 0 14.5 0 a7.25 7.25 0 1 0 -14.5 0z" fill="url(#SvgjsRadialGradient2150)"></path><path d="M1435.5 333.5L1406.5 304.5M1464.5 304.5L1435.5 333.5L1406.5 333.5L1377.5 333.5" stroke="url(#SvgjsRadialGradient2150)" stroke-width="4.83"></path><path d="M1370.25 333.5 a7.25 7.25 0 1 0 14.5 0 a7.25 7.25 0 1 0 -14.5 0zM1399.25 304.5 a7.25 7.25 0 1 0 14.5 0 a7.25 7.25 0 1 0 -14.5 0z" fill="url(#SvgjsRadialGradient2150)"></path><path d="M1261.5 246.5L1232.5 246.5M1464.5 246.5L1435.5 246.5L1406.5 246.5L1377.5 246.5L1348.5 246.5L1319.5 246.5L1290.5 246.5L1261.5 246.5L1232.5 217.5" stroke="url(#SvgjsRadialGradient2150)" stroke-width="4.83"></path><path d="M1225.25 217.5 a7.25 7.25 0 1 0 14.5 0 a7.25 7.25 0 1 0 -14.5 0zM1225.25 246.5 a7.25 7.25 0 1 0 14.5 0 a7.25 7.25 0 1 0 -14.5 0z" fill="url(#SvgjsRadialGradient2150)"></path><path d="M1174.5 188.5L1145.5 217.5L1116.5 217.5L1087.5 217.5M1058.5 188.5L1029.5 217.5M1203.5 188.5L1174.5 217.5M1087.5 188.5L1058.5 159.5L1029.5 159.5L1000.5 159.5L971.5 159.5M1464.5 217.5L1435.5 217.5L1406.5 217.5L1377.5 217.5L1348.5 217.5L1319.5 217.5L1290.5 217.5L1261.5 217.5L1232.5 188.5L1203.5 188.5L1174.5 188.5L1145.5 188.5L1116.5 188.5L1087.5 188.5L1058.5 188.5L1029.5 188.5L1000.5 217.5" stroke="url(#SvgjsRadialGradient2150)" stroke-width="4.83"></path><path d="M993.25 217.5 a7.25 7.25 0 1 0 14.5 0 a7.25 7.25 0 1 0 -14.5 0zM1080.25 217.5 a7.25 7.25 0 1 0 14.5 0 a7.25 7.25 0 1 0 -14.5 0zM1022.25 217.5 a7.25 7.25 0 1 0 14.5 0 a7.25 7.25 0 1 0 -14.5 0zM1167.25 217.5 a7.25 7.25 0 1 0 14.5 0 a7.25 7.25 0 1 0 -14.5 0zM964.25 159.5 a7.25 7.25 0 1 0 14.5 0 a7.25 7.25 0 1 0 -14.5 0z" fill="url(#SvgjsRadialGradient2150)"></path><path d="M1174.5 362.5L1145.5 333.5L1116.5 333.5L1087.5 304.5M1261.5 362.5L1232.5 333.5L1203.5 333.5L1174.5 333.5M1116.5 362.5L1087.5 391.5L1058.5 391.5L1029.5 391.5L1000.5 391.5M1232.5 362.5L1203.5 391.5L1174.5 391.5L1145.5 391.5L1116.5 391.5M1464.5 362.5L1435.5 362.5L1406.5 362.5L1377.5 362.5L1348.5 362.5L1319.5 362.5L1290.5 362.5L1261.5 362.5L1232.5 362.5L1203.5 362.5L1174.5 362.5L1145.5 362.5L1116.5 362.5L1087.5 362.5L1058.5 362.5L1029.5 362.5L1000.5 362.5" stroke="url(#SvgjsRadialGradient2150)" stroke-width="4.83"></path><path d="M993.25 362.5 a7.25 7.25 0 1 0 14.5 0 a7.25 7.25 0 1 0 -14.5 0zM1080.25 304.5 a7.25 7.25 0 1 0 14.5 0 a7.25 7.25 0 1 0 -14.5 0zM1167.25 333.5 a7.25 7.25 0 1 0 14.5 0 a7.25 7.25 0 1 0 -14.5 0zM993.25 391.5 a7.25 7.25 0 1 0 14.5 0 a7.25 7.25 0 1 0 -14.5 0zM1109.25 391.5 a7.25 7.25 0 1 0 14.5 0 a7.25 7.25 0 1 0 -14.5 0z" fill="url(#SvgjsRadialGradient2150)"></path><path d="M1087.5 130.5L1058.5 101.5M971.5 130.5L942.5 159.5L913.5 159.5L884.5 159.5L855.5 159.5L826.5 159.5M1145.5 130.5L1116.5 159.5L1087.5 159.5M1116.5 130.5L1087.5 101.5L1058.5 72.5M942.5 101.5L913.5 130.5L884.5 130.5M913.5 101.5L884.5 72.5M1464.5 188.5L1435.5 188.5L1406.5 188.5L1377.5 188.5L1348.5 188.5L1319.5 188.5L1290.5 188.5L1261.5 188.5L1232.5 159.5L1203.5 159.5L1174.5 130.5L1145.5 130.5L1116.5 130.5L1087.5 130.5L1058.5 130.5L1029.5 130.5L1000.5 130.5L971.5 130.5L942.5 101.5L913.5 101.5L884.5 101.5L855.5 72.5L826.5 72.5L797.5 72.5" stroke="url(#SvgjsRadialGradient2150)" stroke-width="4.83"></path><path d="M790.25 72.5 a7.25 7.25 0 1 0 14.5 0 a7.25 7.25 0 1 0 -14.5 0zM1051.25 101.5 a7.25 7.25 0 1 0 14.5 0 a7.25 7.25 0 1 0 -14.5 0zM819.25 159.5 a7.25 7.25 0 1 0 14.5 0 a7.25 7.25 0 1 0 -14.5 0zM1080.25 159.5 a7.25 7.25 0 1 0 14.5 0 a7.25 7.25 0 1 0 -14.5 0zM1051.25 72.5 a7.25 7.25 0 1 0 14.5 0 a7.25 7.25 0 1 0 -14.5 0zM877.25 130.5 a7.25 7.25 0 1 0 14.5 0 a7.25 7.25 0 1 0 -14.5 0zM877.25 72.5 a7.25 7.25 0 1 0 14.5 0 a7.25 7.25 0 1 0 -14.5 0z" fill="url(#SvgjsRadialGradient2150)"></path><path d="M1435.5 391.5L1406.5 420.5M1377.5 391.5L1348.5 420.5L1319.5 420.5M1290.5 391.5L1261.5 420.5L1232.5 420.5L1203.5 420.5M1464.5 391.5L1435.5 391.5L1406.5 391.5L1377.5 391.5L1348.5 391.5L1319.5 391.5L1290.5 391.5L1261.5 391.5" stroke="url(#SvgjsRadialGradient2150)" stroke-width="4.83"></path><path d="M1254.25 391.5 a7.25 7.25 0 1 0 14.5 0 a7.25 7.25 0 1 0 -14.5 0zM1399.25 420.5 a7.25 7.25 0 1 0 14.5 0 a7.25 7.25 0 1 0 -14.5 0zM1312.25 420.5 a7.25 7.25 0 1 0 14.5 0 a7.25 7.25 0 1 0 -14.5 0zM1196.25 420.5 a7.25 7.25 0 1 0 14.5 0 a7.25 7.25 0 1 0 -14.5 0z" fill="url(#SvgjsRadialGradient2150)"></path><path d="M1435.5 159.5L1406.5 130.5L1377.5 130.5L1348.5 130.5L1319.5 130.5M1464.5 159.5L1435.5 159.5L1406.5 159.5L1377.5 159.5L1348.5 159.5L1319.5 159.5" stroke="url(#SvgjsRadialGradient2150)" stroke-width="4.83"></path><path d="M1312.25 159.5 a7.25 7.25 0 1 0 14.5 0 a7.25 7.25 0 1 0 -14.5 0zM1312.25 130.5 a7.25 7.25 0 1 0 14.5 0 a7.25 7.25 0 1 0 -14.5 0z" fill="url(#SvgjsRadialGradient2150)"></path></g></g><defs><mask id="SvgjsMask2149"><rect width="1440" height="560" fill="#ffffff"></rect></mask><radialGradient cx="648" cy="0" r="969.98" gradientUnits="userSpaceOnUse" id="SvgjsRadialGradient2150"><stop stop-color="rgba(0, 0, 0, 1)" offset="0.4"></stop><stop stop-color="rgba(255, 217, 0, 1)" offset="0.68"></stop></radialGradient><mask id="SvgjsMask2151"><rect width="1440" height="560" fill="white"></rect><path d="M1170.87 275.5 a3.63 3.63 0 1 0 7.26 0 a3.63 3.63 0 1 0 -7.26 0zM1170.87 304.5 a3.63 3.63 0 1 0 7.26 0 a3.63 3.63 0 1 0 -7.26 0zM1373.87 304.5 a3.63 3.63 0 1 0 7.26 0 a3.63 3.63 0 1 0 -7.26 0zM1112.87 246.5 a3.63 3.63 0 1 0 7.26 0 a3.63 3.63 0 1 0 -7.26 0z" fill="black"></path><path d="M1373.87 333.5 a3.63 3.63 0 1 0 7.26 0 a3.63 3.63 0 1 0 -7.26 0zM1402.87 304.5 a3.63 3.63 0 1 0 7.26 0 a3.63 3.63 0 1 0 -7.26 0z" fill="black"></path><path d="M1228.87 217.5 a3.63 3.63 0 1 0 7.26 0 a3.63 3.63 0 1 0 -7.26 0zM1228.87 246.5 a3.63 3.63 0 1 0 7.26 0 a3.63 3.63 0 1 0 -7.26 0z" fill="black"></path><path d="M996.87 217.5 a3.63 3.63 0 1 0 7.26 0 a3.63 3.63 0 1 0 -7.26 0zM1083.87 217.5 a3.63 3.63 0 1 0 7.26 0 a3.63 3.63 0 1 0 -7.26 0zM1025.87 217.5 a3.63 3.63 0 1 0 7.26 0 a3.63 3.63 0 1 0 -7.26 0zM1170.87 217.5 a3.63 3.63 0 1 0 7.26 0 a3.63 3.63 0 1 0 -7.26 0zM967.87 159.5 a3.63 3.63 0 1 0 7.26 0 a3.63 3.63 0 1 0 -7.26 0z" fill="black"></path><path d="M996.87 362.5 a3.63 3.63 0 1 0 7.26 0 a3.63 3.63 0 1 0 -7.26 0zM1083.87 304.5 a3.63 3.63 0 1 0 7.26 0 a3.63 3.63 0 1 0 -7.26 0zM1170.87 333.5 a3.63 3.63 0 1 0 7.26 0 a3.63 3.63 0 1 0 -7.26 0zM996.87 391.5 a3.63 3.63 0 1 0 7.26 0 a3.63 3.63 0 1 0 -7.26 0zM1112.87 391.5 a3.63 3.63 0 1 0 7.26 0 a3.63 3.63 0 1 0 -7.26 0z" fill="black"></path><path d="M793.87 72.5 a3.63 3.63 0 1 0 7.26 0 a3.63 3.63 0 1 0 -7.26 0zM1054.87 101.5 a3.63 3.63 0 1 0 7.26 0 a3.63 3.63 0 1 0 -7.26 0zM822.87 159.5 a3.63 3.63 0 1 0 7.26 0 a3.63 3.63 0 1 0 -7.26 0zM1083.87 159.5 a3.63 3.63 0 1 0 7.26 0 a3.63 3.63 0 1 0 -7.26 0zM1054.87 72.5 a3.63 3.63 0 1 0 7.26 0 a3.63 3.63 0 1 0 -7.26 0zM880.87 130.5 a3.63 3.63 0 1 0 7.26 0 a3.63 3.63 0 1 0 -7.26 0zM880.87 72.5 a3.63 3.63 0 1 0 7.26 0 a3.63 3.63 0 1 0 -7.26 0z" fill="black"></path><path d="M1257.87 391.5 a3.63 3.63 0 1 0 7.26 0 a3.63 3.63 0 1 0 -7.26 0zM1402.87 420.5 a3.63 3.63 0 1 0 7.26 0 a3.63 3.63 0 1 0 -7.26 0zM1315.87 420.5 a3.63 3.63 0 1 0 7.26 0 a3.63 3.63 0 1 0 -7.26 0zM1199.87 420.5 a3.63 3.63 0 1 0 7.26 0 a3.63 3.63 0 1 0 -7.26 0z" fill="black"></path><path d="M1315.87 159.5 a3.63 3.63 0 1 0 7.26 0 a3.63 3.63 0 1 0 -7.26 0zM1315.87 130.5 a3.63 3.63 0 1 0 7.26 0 a3.63 3.63 0 1 0 -7.26 0z" fill="black"></path></mask></defs></svg>