<svg width="123" height="63" viewBox="0 0 123 63" fill="none" xmlns="http://www.w3.org/2000/svg">
<path d="M38.5149 24.5548C33.4741 31.7817 31.1132 36.1472 27 44C36.4862 22.6827 44.099 13.517 60 0C55.1274 5.40928 52.8157 8.54722 50.0298 14.4774C49.4726 16.7877 48.1467 17.8197 44.4128 19.3032C45.8779 19.323 46.6865 19.2441 48.0638 18.7355C46.4162 20.174 45.162 20.8479 42.4468 21.8581C44.0374 21.7621 44.9437 21.6749 46.6596 21.2903C44.028 30.1533 40.5702 33.3375 32.0553 36.9032C34.2899 31.987 35.7318 29.2931 38.5149 24.5548Z" fill="white"/>
<g filter="url(#filter0_d_18_92)">
<path d="M9.66016 54.1538L7.70166 54C7.55811 54 7.41797 54.0068 7.28125 54.0205L6.85059 54.082C6.41309 54.1299 6.08496 54.1538 5.86621 54.1538C5.6543 54.1538 5.48682 54.1299 5.36377 54.082C5.24072 54.041 5.1416 53.9897 5.06641 53.9282C4.92969 53.8188 4.86133 53.6992 4.86133 53.5693C4.86133 53.248 4.99463 53.0874 5.26123 53.0874L5.91748 53.1489C6.37549 53.1489 6.67285 52.9644 6.80957 52.5952C6.91895 52.3149 6.97363 51.7065 6.97363 50.77L6.98389 41.8081C6.98389 41.3706 6.86768 40.9399 6.63525 40.5161C6.40283 40.0854 6.15332 39.73 5.88672 39.4497C5.62012 39.1626 5.36035 38.9609 5.10742 38.8447C4.71094 38.6533 4.5127 38.4517 4.5127 38.2397C4.5127 38.1714 4.55713 38.0894 4.646 37.9937C4.73486 37.8979 4.89209 37.8501 5.11768 37.8501L7.81445 37.9937L18.7656 50.001V41.2236C18.7656 40.335 18.7075 39.7573 18.5913 39.4907C18.4751 39.2241 18.3418 39.0464 18.1914 38.9575C18.041 38.8687 17.8462 38.8242 17.6069 38.8242L16.8584 38.896C16.7354 38.896 16.6362 38.8481 16.561 38.7524C16.4927 38.6567 16.4585 38.5713 16.4585 38.4961C16.4585 38.4141 16.4756 38.3389 16.5098 38.2705C16.5439 38.1953 16.5986 38.127 16.6738 38.0654C16.8516 37.9082 17.1079 37.8296 17.4429 37.8296L19.4014 37.9834C19.5518 37.9834 19.6953 37.9766 19.832 37.9629L20.2422 37.9014C20.6729 37.8535 20.9976 37.8296 21.2163 37.8296C21.4419 37.8296 21.6162 37.8535 21.7393 37.9014C21.8691 37.9424 21.9717 37.9971 22.0469 38.0654C22.1768 38.1816 22.2417 38.3013 22.2417 38.4243C22.2417 38.5474 22.2075 38.6567 22.1392 38.7524C22.0708 38.8481 21.9785 38.896 21.8623 38.896L21.1855 38.8242C20.7344 38.8242 20.4404 39.0088 20.3037 39.3779C20.1943 39.6582 20.1396 40.2734 20.1396 41.2236L20.1089 52.5439C20.1089 53.0703 20.1567 53.3984 20.2524 53.5283C20.3481 53.6582 20.4336 53.7505 20.5088 53.8052C20.6045 53.8735 20.6523 53.9692 20.6523 54.0923C20.6523 54.2974 20.5396 54.3999 20.314 54.3999C20.061 54.3999 19.6885 54.229 19.1963 53.8872L8.34766 42.126V50.77C8.34766 51.6519 8.40234 52.2261 8.51172 52.4927C8.62793 52.7524 8.76123 52.9268 8.91162 53.0156C9.06201 53.1045 9.25684 53.1489 9.49609 53.1489L10.2549 53.0874C10.3848 53.0874 10.4839 53.1353 10.5522 53.231C10.6206 53.3267 10.6548 53.4155 10.6548 53.4976C10.6548 53.5728 10.6377 53.6479 10.6035 53.7231C10.5693 53.7983 10.5146 53.8667 10.4395 53.9282C10.2549 54.0786 9.99512 54.1538 9.66016 54.1538ZM47.8062 41.9927C47.6421 41.9927 47.5601 41.873 47.5601 41.6338C47.5601 41.3945 47.5737 41.1758 47.6011 40.9775C47.6353 40.7793 47.6763 40.5913 47.7241 40.4136C47.772 40.2358 47.8267 40.0615 47.8882 39.8906L48.083 39.3574C48.2471 38.8926 48.3599 38.4756 48.4214 38.1064C48.4829 37.7373 48.5479 37.5186 48.6162 37.4502C48.6846 37.375 48.7598 37.3374 48.8418 37.3374C48.9785 37.3374 49.1562 37.481 49.375 37.7681C49.4844 37.8979 49.645 37.9697 49.8569 37.9834C50.0757 37.9902 50.2842 37.9937 50.4824 37.9937H60.8594C61.29 37.9937 61.6147 37.9185 61.8335 37.7681C62.0522 37.6177 62.2026 37.5083 62.2847 37.4399C62.3667 37.3716 62.4351 37.3374 62.4897 37.3374C62.5444 37.3374 62.5923 37.3408 62.6333 37.3477C62.6812 37.3545 62.7256 37.3716 62.7666 37.3989C62.8828 37.4673 62.8896 37.6211 62.7871 37.8604C62.6914 38.0928 62.582 38.3936 62.459 38.7627C62.3359 39.125 62.2231 39.4805 62.1206 39.8291C61.936 40.4648 61.8062 40.957 61.731 41.3057C61.6353 41.7842 61.502 42.0234 61.3311 42.0234C61.1533 42.0234 61.0439 41.9175 61.0029 41.7056C60.9688 41.4868 60.9277 41.2954 60.8799 41.1313C60.832 40.9604 60.7705 40.8066 60.6953 40.6699C60.2305 39.8496 58.7881 39.4395 56.3682 39.4395V50.5547C56.3682 51.457 56.4229 52.0586 56.5322 52.3594C56.6484 52.6602 56.7817 52.8687 56.9321 52.9849C57.0825 53.0942 57.2432 53.1489 57.4141 53.1489C57.5918 53.1489 57.7217 53.1455 57.8037 53.1387C58.002 53.1113 58.1455 53.0908 58.2344 53.0771C58.3232 53.0635 58.4189 53.0566 58.5215 53.0566C58.6309 53.0566 58.7197 53.1113 58.7881 53.2207C58.8564 53.3232 58.8906 53.4155 58.8906 53.4976C58.8906 53.5728 58.8701 53.6479 58.8291 53.7231C58.7881 53.7983 58.7231 53.8667 58.6343 53.9282C58.4155 54.0786 58.1489 54.1538 57.8345 54.1538C57.5269 54.1538 57.2568 54.1436 57.0244 54.123C56.7988 54.1094 56.5869 54.0957 56.3887 54.082L55.7939 54.0205C55.6025 54.0068 55.394 54 55.1685 54C54.9429 54 54.7344 54.0068 54.543 54.0205L53.9482 54.082C53.3535 54.1299 52.916 54.1538 52.6357 54.1538C52.3623 54.1538 52.1572 54.1299 52.0205 54.082C51.8906 54.041 51.7812 53.9897 51.6924 53.9282C51.5215 53.8052 51.436 53.6821 51.436 53.5591C51.436 53.436 51.4702 53.3232 51.5386 53.2207C51.6069 53.1113 51.6958 53.0566 51.8052 53.0566C51.9146 53.0566 52.0034 53.0635 52.0718 53.0771C52.147 53.084 52.2188 53.0908 52.2871 53.0977C52.5059 53.1318 52.7075 53.1489 52.8921 53.1489C53.0767 53.1489 53.2441 53.0942 53.3945 52.9849C53.5449 52.8755 53.6611 52.7114 53.7432 52.4927C53.8867 52.1099 53.9585 51.4639 53.9585 50.5547V39.4292C52.605 39.4292 51.6309 39.5249 51.0361 39.7163C50.9473 39.7437 50.7764 39.7881 50.5234 39.8496C50.2705 39.9111 49.9834 40.0649 49.6621 40.311C49.3408 40.5503 49.0571 40.7964 48.811 41.0493C48.5649 41.2954 48.3564 41.5142 48.1855 41.7056C48.0215 41.897 47.895 41.9927 47.8062 41.9927ZM72.6982 53.1387L73.3647 53.0771C73.4946 53.0771 73.5903 53.125 73.6519 53.2207C73.7202 53.3164 73.7544 53.4053 73.7544 53.4873C73.7544 53.5625 73.7373 53.6377 73.7031 53.7129C73.6758 53.7881 73.6279 53.8564 73.5596 53.918C73.3818 54.0684 73.1392 54.1436 72.8315 54.1436C72.5308 54.1436 72.2744 54.1367 72.0625 54.123C71.8574 54.1094 71.6626 54.0923 71.478 54.0718C70.7192 53.9897 70.1074 53.9727 69.6426 54.0205C68.9248 54.1025 68.4053 54.1436 68.084 54.1436C67.7695 54.1436 67.5474 54.1196 67.4175 54.0718C67.2944 54.0308 67.1953 53.9795 67.1201 53.918C66.9902 53.8018 66.9253 53.6821 66.9253 53.5591C66.9253 53.4292 66.9595 53.3164 67.0278 53.2207C67.0962 53.125 67.1953 53.0771 67.3252 53.0771L67.9814 53.1387C68.4463 53.1387 68.7573 52.9541 68.9146 52.585C69.0581 52.25 69.1299 51.6416 69.1299 50.7598V41.2339C69.1299 40.3452 69.0718 39.771 68.9556 39.5112C68.8462 39.2446 68.7163 39.0669 68.5659 38.978C68.4155 38.8892 68.2207 38.8447 67.9814 38.8447L67.3252 38.9062C67.1953 38.9062 67.0962 38.8618 67.0278 38.7729C66.9595 38.6772 66.9253 38.5884 66.9253 38.5063C66.9253 38.4243 66.939 38.3491 66.9663 38.2808C67.0005 38.2056 67.0518 38.1338 67.1201 38.0654C67.291 37.915 67.5303 37.8398 67.8379 37.8398C68.1455 37.8398 68.4053 37.8501 68.6172 37.8706C68.8291 37.8843 69.0273 37.9014 69.2119 37.9219L69.7554 37.9629C69.9331 37.9834 70.1279 37.9937 70.3398 37.9937C70.5586 37.9937 70.7568 37.9834 70.9346 37.9629L71.478 37.9219C72.0317 37.8672 72.4351 37.8398 72.688 37.8398C72.9478 37.8398 73.1392 37.8638 73.2622 37.9116C73.3853 37.9526 73.4844 38.0039 73.5596 38.0654C73.6895 38.1885 73.7544 38.3149 73.7544 38.4448C73.7544 38.7524 73.6245 38.9062 73.3647 38.9062L72.6982 38.8447C72.2334 38.8447 71.9224 39.0293 71.7651 39.3984C71.6216 39.7334 71.5498 40.3452 71.5498 41.2339V50.7598C71.5498 51.6416 71.6045 52.2158 71.7139 52.4824C71.8301 52.7422 71.9634 52.9165 72.1138 53.0054C72.2642 53.0942 72.459 53.1387 72.6982 53.1387ZM78.8462 45.8789C78.8462 44.8945 79.0479 43.876 79.4512 42.8232C79.8545 41.7705 80.4355 40.8613 81.1943 40.0957C82.7939 38.4824 84.9199 37.6758 87.5723 37.6758C89.1104 37.6758 90.5186 38.0518 91.7969 38.8037C93 39.5215 93.957 40.499 94.668 41.7363C95.3857 42.9805 95.7446 44.3271 95.7446 45.7764C95.7446 47.5195 95.3447 49.0508 94.5449 50.3701C93.8135 51.5938 92.7812 52.5508 91.4482 53.2412C90.1699 53.9043 88.748 54.2358 87.1826 54.2358C85.542 54.2358 84.0723 53.8701 82.7734 53.1387C80.1553 51.6826 78.8462 49.2627 78.8462 45.8789ZM81.1123 44.751C81.1123 45.6191 81.208 46.4224 81.3994 47.1606C81.5977 47.8989 81.8643 48.5654 82.1992 49.1602C82.541 49.7549 82.9443 50.2744 83.4092 50.7188C83.874 51.1562 84.373 51.522 84.9062 51.8159C85.9863 52.4038 87.1348 52.6978 88.3516 52.6978C89.7529 52.6978 90.8945 52.2568 91.7764 51.375C92.7402 50.3975 93.2222 49.0098 93.2222 47.2119C93.2222 44.833 92.5317 42.8848 91.1509 41.3672C89.8247 39.9111 88.2422 39.1831 86.4033 39.1831C84.8789 39.1831 83.6279 39.6787 82.6504 40.6699C81.625 41.7021 81.1123 43.0625 81.1123 44.751ZM105.44 54.1538L103.482 54C103.338 54 103.198 54.0068 103.062 54.0205L102.631 54.082C102.193 54.1299 101.865 54.1538 101.646 54.1538C101.435 54.1538 101.267 54.1299 101.144 54.082C101.021 54.041 100.922 53.9897 100.847 53.9282C100.71 53.8188 100.642 53.6992 100.642 53.5693C100.642 53.248 100.775 53.0874 101.042 53.0874L101.698 53.1489C102.156 53.1489 102.453 52.9644 102.59 52.5952C102.699 52.3149 102.754 51.7065 102.754 50.77L102.764 41.8081C102.764 41.3706 102.648 40.9399 102.416 40.5161C102.183 40.0854 101.934 39.73 101.667 39.4497C101.4 39.1626 101.141 38.9609 100.888 38.8447C100.491 38.6533 100.293 38.4517 100.293 38.2397C100.293 38.1714 100.337 38.0894 100.426 37.9937C100.515 37.8979 100.672 37.8501 100.898 37.8501L103.595 37.9937L114.546 50.001V41.2236C114.546 40.335 114.488 39.7573 114.372 39.4907C114.255 39.2241 114.122 39.0464 113.972 38.9575C113.821 38.8687 113.626 38.8242 113.387 38.8242L112.639 38.896C112.516 38.896 112.417 38.8481 112.341 38.7524C112.273 38.6567 112.239 38.5713 112.239 38.4961C112.239 38.4141 112.256 38.3389 112.29 38.2705C112.324 38.1953 112.379 38.127 112.454 38.0654C112.632 37.9082 112.888 37.8296 113.223 37.8296L115.182 37.9834C115.332 37.9834 115.476 37.9766 115.612 37.9629L116.022 37.9014C116.453 37.8535 116.778 37.8296 116.997 37.8296C117.222 37.8296 117.396 37.8535 117.52 37.9014C117.649 37.9424 117.752 37.9971 117.827 38.0654C117.957 38.1816 118.022 38.3013 118.022 38.4243C118.022 38.5474 117.988 38.6567 117.919 38.7524C117.851 38.8481 117.759 38.896 117.643 38.896L116.966 38.8242C116.515 38.8242 116.221 39.0088 116.084 39.3779C115.975 39.6582 115.92 40.2734 115.92 41.2236L115.889 52.5439C115.889 53.0703 115.937 53.3984 116.033 53.5283C116.128 53.6582 116.214 53.7505 116.289 53.8052C116.385 53.8735 116.433 53.9692 116.433 54.0923C116.433 54.2974 116.32 54.3999 116.094 54.3999C115.841 54.3999 115.469 54.229 114.977 53.8872L104.128 42.126V50.77C104.128 51.6519 104.183 52.2261 104.292 52.4927C104.408 52.7524 104.542 52.9268 104.692 53.0156C104.842 53.1045 105.037 53.1489 105.276 53.1489L106.035 53.0874C106.165 53.0874 106.264 53.1353 106.333 53.231C106.401 53.3267 106.435 53.4155 106.435 53.4976C106.435 53.5728 106.418 53.6479 106.384 53.7231C106.35 53.7983 106.295 53.8667 106.22 53.9282C106.035 54.0786 105.775 54.1538 105.44 54.1538Z" fill="black"/>
<path d="M26.1235 45.8789C26.1235 44.8945 26.3252 43.876 26.7285 42.8232C27.1318 41.7705 27.7129 40.8613 28.4717 40.0957C30.0713 38.4824 32.1973 37.6758 34.8496 37.6758C36.3877 37.6758 37.7959 38.0518 39.0742 38.8037C40.2773 39.5215 41.2344 40.499 41.9453 41.7363C42.6631 42.9805 43.022 44.3271 43.022 45.7764C43.022 47.5195 42.6221 49.0508 41.8223 50.3701C41.0908 51.5938 40.0586 52.5508 38.7256 53.2412C37.4473 53.9043 36.0254 54.2358 34.46 54.2358C32.8193 54.2358 31.3496 53.8701 30.0508 53.1387C27.4326 51.6826 26.1235 49.2627 26.1235 45.8789ZM28.3896 44.751C28.3896 45.6191 28.4854 46.4224 28.6768 47.1606C28.875 47.8989 29.1416 48.5654 29.4766 49.1602C29.8184 49.7549 30.2217 50.2744 30.6865 50.7188C31.1514 51.1562 31.6504 51.522 32.1836 51.8159C33.2637 52.4038 34.4121 52.6978 35.6289 52.6978C37.0303 52.6978 38.1719 52.2568 39.0537 51.375C40.0176 50.3975 40.4995 49.0098 40.4995 47.2119C40.4995 44.833 39.8091 42.8848 38.4282 41.3672C37.1021 39.9111 35.5195 39.1831 33.6807 39.1831C32.1562 39.1831 30.9053 39.6787 29.9277 40.6699C28.9023 41.7021 28.3896 43.0625 28.3896 44.751Z" fill="white"/>
</g>
<defs>
<filter id="filter0_d_18_92" x="0.512695" y="37.3374" width="121.509" height="25.0625" filterUnits="userSpaceOnUse" color-interpolation-filters="sRGB">
<feFlood flood-opacity="0" result="BackgroundImageFix"/>
<feColorMatrix in="SourceAlpha" type="matrix" values="0 0 0 0 0 0 0 0 0 0 0 0 0 0 0 0 0 0 127 0" result="hardAlpha"/>
<feOffset dy="4"/>
<feGaussianBlur stdDeviation="2"/>
<feComposite in2="hardAlpha" operator="out"/>
<feColorMatrix type="matrix" values="0 0 0 0 0 0 0 0 0 0 0 0 0 0 0 0 0 0 0.25 0"/>
<feBlend mode="normal" in2="BackgroundImageFix" result="effect1_dropShadow_18_92"/>
<feBlend mode="normal" in="SourceGraphic" in2="effect1_dropShadow_18_92" result="shape"/>
</filter>
</defs>
</svg>
