<svg width="198" height="159" viewBox="0 0 198 159" fill="none" xmlns="http://www.w3.org/2000/svg">
<g filter="url(#filter0_d_9_28)">
<path d="M31.4383 46.6817L25.4868 52.0659L26.289 50.2424L27.0911 48.4188L27.799 46.6284L28.0956 45.5323L28.3922 44.4363L32.2708 42.5306L34.5169 41.3175L36.6444 39.8982C36.7788 40.8691 37.397 41.7052 38.2858 42.1178L38.9146 42.4097L37.3244 44.4234L35.8668 46.5088L33.5367 50.2025L31.3864 50.597L30.4389 50.8356L29.4914 51.0742L27.5931 51.685L25.6947 52.2959L31.6459 46.9078L31.4383 46.6817Z" fill="#020202"/>
</g>
<g filter="url(#filter1_d_9_28)">
<path d="M49.761 44.1L48.021 54H47.021L48.081 47.96C48.681 44.5333 48.981 42.7733 48.981 42.68C48.981 41.8267 48.4676 41.4 47.441 41.4H47.341L47.441 40.8H48.841C49.5876 40.8 50.181 40.9 50.621 41.1C51.061 41.2867 51.401 41.5867 51.641 42L57.121 50L58.741 40.8H59.741L57.401 54.06H56.481L49.761 44.1ZM72.2072 54.4C71.0739 54.4 70.0939 54.1667 69.2672 53.7C68.4406 53.2333 67.8072 52.5867 67.3672 51.76C66.9272 50.92 66.7072 49.96 66.7072 48.88C66.7072 47.48 67.0472 46.1267 67.7272 44.82C68.4072 43.5133 69.3539 42.4533 70.5672 41.64C71.7939 40.8133 73.1606 40.4 74.6672 40.4C75.8006 40.4 76.7806 40.6333 77.6072 41.1C78.4339 41.5667 79.0672 42.22 79.5072 43.06C79.9472 43.8867 80.1672 44.84 80.1672 45.92C80.1672 47.32 79.8272 48.6733 79.1472 49.98C78.4672 51.2867 77.5139 52.3533 76.2872 53.18C75.0739 53.9933 73.7139 54.4 72.2072 54.4ZM72.3672 53.5C73.5272 53.5 74.4872 53.0533 75.2472 52.16C76.0206 51.2667 76.5806 50.1867 76.9272 48.92C77.2872 47.64 77.4672 46.4133 77.4672 45.24C77.4672 43.9733 77.2139 43 76.7072 42.32C76.2006 41.64 75.4672 41.3 74.5072 41.3C73.3606 41.3 72.4006 41.7533 71.6272 42.66C70.8672 43.5533 70.3072 44.6467 69.9472 45.94C69.6006 47.22 69.4272 48.4333 69.4272 49.58C69.4272 50.8333 69.6739 51.8 70.1672 52.48C70.6739 53.16 71.4072 53.5 72.3672 53.5ZM92.4143 41.7H90.9943C90.2476 41.7 89.6476 41.8867 89.1943 42.26C88.7409 42.6333 88.4343 43.2467 88.2743 44.1H87.6743L87.9743 42.4C88.0676 41.92 88.2609 41.5333 88.5543 41.24C88.8476 40.9467 89.3143 40.8 89.9543 40.8H99.3543L99.1943 41.7H95.0143L92.8543 54H90.2543L92.4143 41.7ZM106.597 54C106.064 54 105.684 53.9 105.457 53.7C105.231 53.4867 105.117 53.1267 105.117 52.62C105.117 52.2867 105.157 51.88 105.237 51.4L107.117 40.8H109.717L107.837 51.4C107.784 51.68 107.757 51.9667 107.757 52.26C107.757 52.6333 107.844 52.92 108.017 53.12C108.191 53.3067 108.484 53.4 108.897 53.4H109.097L108.997 54H106.597ZM122.453 54.4C121.32 54.4 120.34 54.1667 119.513 53.7C118.687 53.2333 118.053 52.5867 117.613 51.76C117.173 50.92 116.953 49.96 116.953 48.88C116.953 47.48 117.293 46.1267 117.973 44.82C118.653 43.5133 119.6 42.4533 120.813 41.64C122.04 40.8133 123.407 40.4 124.913 40.4C126.047 40.4 127.027 40.6333 127.853 41.1C128.68 41.5667 129.313 42.22 129.753 43.06C130.193 43.8867 130.413 44.84 130.413 45.92C130.413 47.32 130.073 48.6733 129.393 49.98C128.713 51.2867 127.76 52.3533 126.533 53.18C125.32 53.9933 123.96 54.4 122.453 54.4ZM122.613 53.5C123.773 53.5 124.733 53.0533 125.493 52.16C126.267 51.2667 126.827 50.1867 127.173 48.92C127.533 47.64 127.713 46.4133 127.713 45.24C127.713 43.9733 127.46 43 126.953 42.32C126.447 41.64 125.713 41.3 124.753 41.3C123.607 41.3 122.647 41.7533 121.873 42.66C121.113 43.5533 120.553 44.6467 120.193 45.94C119.847 47.22 119.673 48.4333 119.673 49.58C119.673 50.8333 119.92 51.8 120.413 52.48C120.92 53.16 121.653 53.5 122.613 53.5ZM140.484 44.1L138.744 54H137.744L138.804 47.96C139.404 44.5333 139.704 42.7733 139.704 42.68C139.704 41.8267 139.19 41.4 138.164 41.4H138.064L138.164 40.8H139.564C140.31 40.8 140.904 40.9 141.344 41.1C141.784 41.2867 142.124 41.5867 142.364 42L147.844 50L149.464 40.8H150.464L148.124 54.06H147.204L140.484 44.1Z" fill="black"/>
</g>
<g filter="url(#filter2_d_9_28)">
<path d="M43.1219 23.9648C45.7098 3.18298 82.7305 0.296634 88 0C87.8158 2.18809 86.8083 11.0704 82.5433 19.5637L71.701 23.9973H79.9584C79.0343 25.3647 78.0045 26.6829 76.8596 27.9236L61.9212 31.9965H72.1946C68.5758 34.502 64.1448 36.2543 58.7024 36.7076C54.4475 37.1101 50.1672 37.3092 45.8838 37.3209L38.9578 43C36.8329 42.3518 36.2047 41.6437 36 39.8205L36.6119 39.2482L63.0203 17.6472C63.6564 17.1264 63.6564 16.2824 63.0203 15.7616C62.3843 15.2408 61.3513 15.2408 60.7153 15.7616L42.5123 30.6508C42.6293 28.4177 42.8074 26.1863 43.1219 23.9648Z" fill="black"/>
</g>
<defs>
<filter id="filter0_d_9_28" x="25.4863" y="39.8982" width="13.4287" height="12.8977" filterUnits="userSpaceOnUse" color-interpolation-filters="sRGB">
<feFlood flood-opacity="0" result="BackgroundImageFix"/>
<feColorMatrix in="SourceAlpha" type="matrix" values="0 0 0 0 0 0 0 0 0 0 0 0 0 0 0 0 0 0 127 0" result="hardAlpha"/>
<feOffset dy="0.5"/>
<feComposite in2="hardAlpha" operator="out"/>
<feColorMatrix type="matrix" values="0 0 0 0 1 0 0 0 0 1 0 0 0 0 1 0 0 0 1 0"/>
<feBlend mode="normal" in2="BackgroundImageFix" result="effect1_dropShadow_9_28"/>
<feBlend mode="normal" in="SourceGraphic" in2="effect1_dropShadow_9_28" result="shape"/>
</filter>
<filter id="filter1_d_9_28" x="0.0205078" y="40.3999" width="197.443" height="118" filterUnits="userSpaceOnUse" color-interpolation-filters="sRGB">
<feFlood flood-opacity="0" result="BackgroundImageFix"/>
<feColorMatrix in="SourceAlpha" type="matrix" values="0 0 0 0 0 0 0 0 0 0 0 0 0 0 0 0 0 0 127 0" result="hardAlpha"/>
<feOffset dy="57"/>
<feGaussianBlur stdDeviation="23.5"/>
<feComposite in2="hardAlpha" operator="out"/>
<feColorMatrix type="matrix" values="0 0 0 0 0 0 0 0 0 0 0 0 0 0 0 0 0 0 0.25 0"/>
<feBlend mode="normal" in2="BackgroundImageFix" result="effect1_dropShadow_9_28"/>
<feBlend mode="normal" in="SourceGraphic" in2="effect1_dropShadow_9_28" result="shape"/>
</filter>
<filter id="filter2_d_9_28" x="36" y="0" width="52" height="43.5" filterUnits="userSpaceOnUse" color-interpolation-filters="sRGB">
<feFlood flood-opacity="0" result="BackgroundImageFix"/>
<feColorMatrix in="SourceAlpha" type="matrix" values="0 0 0 0 0 0 0 0 0 0 0 0 0 0 0 0 0 0 127 0" result="hardAlpha"/>
<feOffset dy="0.5"/>
<feComposite in2="hardAlpha" operator="out"/>
<feColorMatrix type="matrix" values="0 0 0 0 1 0 0 0 0 1 0 0 0 0 1 0 0 0 1 0"/>
<feBlend mode="normal" in2="BackgroundImageFix" result="effect1_dropShadow_9_28"/>
<feBlend mode="normal" in="SourceGraphic" in2="effect1_dropShadow_9_28" result="shape"/>
</filter>
</defs>
</svg>
