<svg xmlns="http://www.w3.org/2000/svg" version="1.1" xmlns:xlink="http://www.w3.org/1999/xlink" xmlns:svgjs="http://svgjs.com/svgjs" width="1440" height="560" preserveAspectRatio="none" viewBox="0 0 1440 560"><g clip-path="url(&quot;#SvgjsClipPath1015&quot;)" fill="none"><circle r="93.335" cx="20.78" cy="-20.6" stroke="#ffd900" stroke-opacity="1" stroke-width="2"></circle><circle r="93.335" cx="302.14" cy="424.9" stroke="#ffd900" stroke-opacity="1" stroke-width="2"></circle><circle r="93.335" cx="766.49" cy="822.59" stroke="#ffd900" stroke-opacity="1" stroke-width="2"></circle><circle r="115.555" cx="1058.54" cy="251.55" stroke="#ffd900" stroke-opacity="1" stroke-width="2"></circle><circle r="182.415" cx="201.42" cy="418.89" stroke="#ffd900" stroke-opacity="1" stroke-width="2"></circle><circle r="65.61" cx="174.01" cy="484.91" stroke="#ffd900" stroke-opacity="1" stroke-width="2"></circle><circle r="88.855" cx="94.75" cy="396.33" stroke="#ffd900" stroke-opacity="1" stroke-width="2"></circle><circle r="58.73" cx="796.55" cy="32.44" stroke="#ffd900" stroke-opacity="1" stroke-width="2"></circle><circle r="49.18" cx="1195.07" cy="420.02" stroke="#ffd900" stroke-opacity="1" stroke-width="2"></circle><circle r="91.295" cx="408.89" cy="484.76" stroke="#ffd900" stroke-opacity="1" stroke-width="2"></circle><circle r="150.625" cx="1123.56" cy="65.85" stroke="#ffd900" stroke-opacity="1" stroke-width="2"></circle><circle r="70.595" cx="50.29" cy="150.84" stroke="#ffd900" stroke-opacity="1" stroke-width="2"></circle><circle r="74.405" cx="909.24" cy="310.46" stroke="#ffd900" stroke-opacity="1" stroke-width="2"></circle><circle r="129.86" cx="1246.7" cy="166.02" stroke="#ffd900" stroke-opacity="1" stroke-width="2"></circle><circle r="155.625" cx="27.82" cy="489.58" stroke="#ffd900" stroke-opacity="1" stroke-width="2"></circle><circle r="62.91" cx="996.61" cy="109.42" stroke="#ffd900" stroke-opacity="1" stroke-width="2"></circle><circle r="157.29" cx="759.46" cy="293.77" stroke="#ffd900" stroke-opacity="1" stroke-width="2"></circle><circle r="55.94" cx="789.66" cy="476.22" stroke="#ffd900" stroke-opacity="1" stroke-width="2"></circle><circle r="53.995" cx="909.55" cy="57.98" stroke="#ffd900" stroke-opacity="1" stroke-width="2"></circle><circle r="62.785" cx="1331.47" cy="259.89" stroke="#ffd900" stroke-opacity="1" stroke-width="2"></circle><circle r="171.595" cx="984.35" cy="377.62" stroke="#ffd900" stroke-opacity="1" stroke-width="2"></circle><circle r="79.44" cx="947.63" cy="369.89" stroke="#ffd900" stroke-opacity="1" stroke-width="2"></circle><circle r="147.5" cx="1145.39" cy="7.46" stroke="#ffd900" stroke-opacity="1" stroke-width="2"></circle><circle r="72.265" cx="362.46" cy="35.13" stroke="#ffd900" stroke-opacity="1" stroke-width="2"></circle><circle r="156.595" cx="1237.03" cy="38.88" stroke="#ffd900" stroke-opacity="1" stroke-width="2"></circle><circle r="172.64" cx="347.17" cy="289.77" stroke="#ffd900" stroke-opacity="1" stroke-width="2"></circle><circle r="145.62" cx="1134.14" cy="178.64" stroke="#ffd900" stroke-opacity="1" stroke-width="2"></circle><circle r="166.725" cx="1423.81" cy="365.41" stroke="#ffd900" stroke-opacity="1" stroke-width="2"></circle></g><defs><clipPath id="SvgjsClipPath1015"><rect width="1440" height="560" x="0" y="0"></rect></clipPath></defs></svg>