<svg xmlns="http://www.w3.org/2000/svg" version="1.1" xmlns:xlink="http://www.w3.org/1999/xlink" xmlns:svgjs="http://svgjs.com/svgjs" width="1440" height="560" preserveAspectRatio="none" viewBox="0 0 1440 560"><g mask="url(&quot;#SvgjsMask1048&quot;)" fill="none"><rect width="1440" height="560" x="0" y="0" fill="rgba(255, 255, 255, 1)"></rect><path d="M-104.96 542.12L-104.96 542.12" stroke="rgba(130, 130, 130, 1)" stroke-width="1.5"></path><path d="M-104.96 542.12L-96.9 685.69" stroke="rgba(130, 130, 130, 1)" stroke-width="1.5"></path><path d="M-104.96 542.12L48.06 545.05" stroke="rgba(130, 130, 130, 1)" stroke-width="1.5"></path><path d="M-96.9 685.69L-96.9 685.69" stroke="rgba(130, 130, 130, 1)" stroke-width="1.5"></path><path d="M-96.9 685.69L52.15 668.68" stroke="rgba(130, 130, 130, 1)" stroke-width="1.5"></path><path d="M85.42 384.16L85.42 384.16" stroke="rgba(130, 130, 130, 1)" stroke-width="1.5"></path><path d="M85.42 384.16L48.06 545.05" stroke="rgba(130, 130, 130, 1)" stroke-width="1.5"></path><path d="M85.42 384.16L254.13 410.09" stroke="rgba(130, 130, 130, 1)" stroke-width="1.5"></path><path d="M48.06 545.05L48.06 545.05" stroke="rgba(130, 130, 130, 1)" stroke-width="1.5"></path><path d="M48.06 545.05L52.15 668.68" stroke="rgba(130, 130, 130, 1)" stroke-width="1.5"></path><path d="M52.15 668.68L52.15 668.68" stroke="rgba(130, 130, 130, 1)" stroke-width="1.5"></path><path d="M52.15 668.68L211.52 693.59" stroke="rgba(130, 130, 130, 1)" stroke-width="1.5"></path><path d="M52.15 668.68L202.33 545.39" stroke="rgba(130, 130, 130, 1)" stroke-width="1.5"></path><path d="M52.15 668.68L-104.96 542.12" stroke="rgba(130, 130, 130, 1)" stroke-width="1.5"></path><path d="M254.13 410.09L254.13 410.09" stroke="rgba(130, 130, 130, 1)" stroke-width="1.5"></path><path d="M254.13 410.09L347.26 368.86" stroke="rgba(130, 130, 130, 1)" stroke-width="1.5"></path><path d="M254.13 410.09L202.33 545.39" stroke="rgba(130, 130, 130, 1)" stroke-width="1.5"></path><path d="M254.13 410.09L377.89 539.04" stroke="rgba(130, 130, 130, 1)" stroke-width="1.5"></path><path d="M254.13 410.09L48.06 545.05" stroke="rgba(130, 130, 130, 1)" stroke-width="1.5"></path><path d="M254.13 410.09L211.52 693.59" stroke="rgba(130, 130, 130, 1)" stroke-width="1.5"></path><path d="M202.33 545.39L202.33 545.39" stroke="rgba(130, 130, 130, 1)" stroke-width="1.5"></path><path d="M202.33 545.39L211.52 693.59" stroke="rgba(130, 130, 130, 1)" stroke-width="1.5"></path><path d="M202.33 545.39L48.06 545.05" stroke="rgba(130, 130, 130, 1)" stroke-width="1.5"></path><path d="M202.33 545.39L377.89 539.04" stroke="rgba(130, 130, 130, 1)" stroke-width="1.5"></path><path d="M211.52 693.59L211.52 693.59" stroke="rgba(130, 130, 130, 1)" stroke-width="1.5"></path><path d="M347.26 368.86L347.26 368.86" stroke="rgba(130, 130, 130, 1)" stroke-width="1.5"></path><path d="M347.26 368.86L377.89 539.04" stroke="rgba(130, 130, 130, 1)" stroke-width="1.5"></path><path d="M347.26 368.86L539.31 359.73" stroke="rgba(130, 130, 130, 1)" stroke-width="1.5"></path><path d="M347.26 368.86L533.63 494.2" stroke="rgba(130, 130, 130, 1)" stroke-width="1.5"></path><path d="M347.26 368.86L202.33 545.39" stroke="rgba(130, 130, 130, 1)" stroke-width="1.5"></path><path d="M377.89 539.04L377.89 539.04" stroke="rgba(130, 130, 130, 1)" stroke-width="1.5"></path><path d="M377.89 539.04L533.63 494.2" stroke="rgba(130, 130, 130, 1)" stroke-width="1.5"></path><path d="M539.31 359.73L539.31 359.73" stroke="rgba(130, 130, 130, 1)" stroke-width="1.5"></path><path d="M539.31 359.73L663.27 372.45" stroke="rgba(130, 130, 130, 1)" stroke-width="1.5"></path><path d="M539.31 359.73L533.63 494.2" stroke="rgba(130, 130, 130, 1)" stroke-width="1.5"></path><path d="M533.63 494.2L533.63 494.2" stroke="rgba(130, 130, 130, 1)" stroke-width="1.5"></path><path d="M533.63 494.2L536.38 642.5" stroke="rgba(130, 130, 130, 1)" stroke-width="1.5"></path><path d="M536.38 642.5L536.38 642.5" stroke="rgba(130, 130, 130, 1)" stroke-width="1.5"></path><path d="M536.38 642.5L637.93 695.19" stroke="rgba(130, 130, 130, 1)" stroke-width="1.5"></path><path d="M536.38 642.5L686 551.91" stroke="rgba(130, 130, 130, 1)" stroke-width="1.5"></path><path d="M536.38 642.5L377.89 539.04" stroke="rgba(130, 130, 130, 1)" stroke-width="1.5"></path><path d="M536.38 642.5L790.98 527.4" stroke="rgba(130, 130, 130, 1)" stroke-width="1.5"></path><path d="M536.38 642.5L539.31 359.73" stroke="rgba(130, 130, 130, 1)" stroke-width="1.5"></path><path d="M663.27 372.45L663.27 372.45" stroke="rgba(130, 130, 130, 1)" stroke-width="1.5"></path><path d="M663.27 372.45L806.43 349.68" stroke="rgba(130, 130, 130, 1)" stroke-width="1.5"></path><path d="M663.27 372.45L533.63 494.2" stroke="rgba(130, 130, 130, 1)" stroke-width="1.5"></path><path d="M663.27 372.45L686 551.91" stroke="rgba(130, 130, 130, 1)" stroke-width="1.5"></path><path d="M663.27 372.45L790.71 238.49" stroke="rgba(130, 130, 130, 1)" stroke-width="1.5"></path><path d="M663.27 372.45L790.98 527.4" stroke="rgba(130, 130, 130, 1)" stroke-width="1.5"></path><path d="M686 551.91L686 551.91" stroke="rgba(130, 130, 130, 1)" stroke-width="1.5"></path><path d="M686 551.91L790.98 527.4" stroke="rgba(130, 130, 130, 1)" stroke-width="1.5"></path><path d="M686 551.91L637.93 695.19" stroke="rgba(130, 130, 130, 1)" stroke-width="1.5"></path><path d="M686 551.91L533.63 494.2" stroke="rgba(130, 130, 130, 1)" stroke-width="1.5"></path><path d="M637.93 695.19L637.93 695.19" stroke="rgba(130, 130, 130, 1)" stroke-width="1.5"></path><path d="M637.93 695.19L838.43 669.55" stroke="rgba(130, 130, 130, 1)" stroke-width="1.5"></path><path d="M637.93 695.19L533.63 494.2" stroke="rgba(130, 130, 130, 1)" stroke-width="1.5"></path><path d="M637.93 695.19L790.98 527.4" stroke="rgba(130, 130, 130, 1)" stroke-width="1.5"></path><path d="M790.71 238.49L790.71 238.49" stroke="rgba(130, 130, 130, 1)" stroke-width="1.5"></path><path d="M790.71 238.49L806.43 349.68" stroke="rgba(130, 130, 130, 1)" stroke-width="1.5"></path><path d="M790.71 238.49L963.89 208.66" stroke="rgba(130, 130, 130, 1)" stroke-width="1.5"></path><path d="M806.43 349.68L806.43 349.68" stroke="rgba(130, 130, 130, 1)" stroke-width="1.5"></path><path d="M806.43 349.68L790.98 527.4" stroke="rgba(130, 130, 130, 1)" stroke-width="1.5"></path><path d="M790.98 527.4L790.98 527.4" stroke="rgba(130, 130, 130, 1)" stroke-width="1.5"></path><path d="M838.43 669.55L838.43 669.55" stroke="rgba(130, 130, 130, 1)" stroke-width="1.5"></path><path d="M838.43 669.55L790.98 527.4" stroke="rgba(130, 130, 130, 1)" stroke-width="1.5"></path><path d="M838.43 669.55L992.01 680.69" stroke="rgba(130, 130, 130, 1)" stroke-width="1.5"></path><path d="M838.43 669.55L686 551.91" stroke="rgba(130, 130, 130, 1)" stroke-width="1.5"></path><path d="M838.43 669.55L988.16 544.99" stroke="rgba(130, 130, 130, 1)" stroke-width="1.5"></path><path d="M962.56 -50.83L962.56 -50.83" stroke="rgba(130, 130, 130, 1)" stroke-width="1.5"></path><path d="M962.56 -50.83L983.47 51.08" stroke="rgba(130, 130, 130, 1)" stroke-width="1.5"></path><path d="M962.56 -50.83L1092.99 -65.35" stroke="rgba(130, 130, 130, 1)" stroke-width="1.5"></path><path d="M962.56 -50.83L1090.43 73.34" stroke="rgba(130, 130, 130, 1)" stroke-width="1.5"></path><path d="M962.56 -50.83L963.89 208.66" stroke="rgba(130, 130, 130, 1)" stroke-width="1.5"></path><path d="M983.47 51.08L983.47 51.08" stroke="rgba(130, 130, 130, 1)" stroke-width="1.5"></path><path d="M983.47 51.08L1090.43 73.34" stroke="rgba(130, 130, 130, 1)" stroke-width="1.5"></path><path d="M983.47 51.08L963.89 208.66" stroke="rgba(130, 130, 130, 1)" stroke-width="1.5"></path><path d="M963.89 208.66L963.89 208.66" stroke="rgba(130, 130, 130, 1)" stroke-width="1.5"></path><path d="M982.84 405.15L982.84 405.15" stroke="rgba(130, 130, 130, 1)" stroke-width="1.5"></path><path d="M982.84 405.15L988.16 544.99" stroke="rgba(130, 130, 130, 1)" stroke-width="1.5"></path><path d="M982.84 405.15L806.43 349.68" stroke="rgba(130, 130, 130, 1)" stroke-width="1.5"></path><path d="M982.84 405.15L1135.37 515.41" stroke="rgba(130, 130, 130, 1)" stroke-width="1.5"></path><path d="M988.16 544.99L988.16 544.99" stroke="rgba(130, 130, 130, 1)" stroke-width="1.5"></path><path d="M988.16 544.99L992.01 680.69" stroke="rgba(130, 130, 130, 1)" stroke-width="1.5"></path><path d="M988.16 544.99L1135.37 515.41" stroke="rgba(130, 130, 130, 1)" stroke-width="1.5"></path><path d="M992.01 680.69L992.01 680.69" stroke="rgba(130, 130, 130, 1)" stroke-width="1.5"></path><path d="M992.01 680.69L1119.06 664.04" stroke="rgba(130, 130, 130, 1)" stroke-width="1.5"></path><path d="M992.01 680.69L1135.37 515.41" stroke="rgba(130, 130, 130, 1)" stroke-width="1.5"></path><path d="M992.01 680.69L790.98 527.4" stroke="rgba(130, 130, 130, 1)" stroke-width="1.5"></path><path d="M1092.99 -65.35L1092.99 -65.35" stroke="rgba(130, 130, 130, 1)" stroke-width="1.5"></path><path d="M1092.99 -65.35L1090.43 73.34" stroke="rgba(130, 130, 130, 1)" stroke-width="1.5"></path><path d="M1092.99 -65.35L983.47 51.08" stroke="rgba(130, 130, 130, 1)" stroke-width="1.5"></path><path d="M1092.99 -65.35L1271.52 -90.4" stroke="rgba(130, 130, 130, 1)" stroke-width="1.5"></path><path d="M1092.99 -65.35L1273.26 108.07" stroke="rgba(130, 130, 130, 1)" stroke-width="1.5"></path><path d="M1090.43 73.34L1090.43 73.34" stroke="rgba(130, 130, 130, 1)" stroke-width="1.5"></path><path d="M1090.43 73.34L1162.04 213.99" stroke="rgba(130, 130, 130, 1)" stroke-width="1.5"></path><path d="M1162.04 213.99L1162.04 213.99" stroke="rgba(130, 130, 130, 1)" stroke-width="1.5"></path><path d="M1162.04 213.99L1267.77 230.4" stroke="rgba(130, 130, 130, 1)" stroke-width="1.5"></path><path d="M1162.04 213.99L1273.26 108.07" stroke="rgba(130, 130, 130, 1)" stroke-width="1.5"></path><path d="M1135.37 515.41L1135.37 515.41" stroke="rgba(130, 130, 130, 1)" stroke-width="1.5"></path><path d="M1135.37 515.41L1119.06 664.04" stroke="rgba(130, 130, 130, 1)" stroke-width="1.5"></path><path d="M1135.37 515.41L1301.53 523.74" stroke="rgba(130, 130, 130, 1)" stroke-width="1.5"></path><path d="M1119.06 664.04L1119.06 664.04" stroke="rgba(130, 130, 130, 1)" stroke-width="1.5"></path><path d="M1119.06 664.04L1289.14 707.07" stroke="rgba(130, 130, 130, 1)" stroke-width="1.5"></path><path d="M1119.06 664.04L988.16 544.99" stroke="rgba(130, 130, 130, 1)" stroke-width="1.5"></path><path d="M1271.52 -90.4L1271.52 -90.4" stroke="rgba(130, 130, 130, 1)" stroke-width="1.5"></path><path d="M1271.52 -90.4L1435.67 -42.92" stroke="rgba(130, 130, 130, 1)" stroke-width="1.5"></path><path d="M1273.26 108.07L1273.26 108.07" stroke="rgba(130, 130, 130, 1)" stroke-width="1.5"></path><path d="M1273.26 108.07L1267.77 230.4" stroke="rgba(130, 130, 130, 1)" stroke-width="1.5"></path><path d="M1267.77 230.4L1267.77 230.4" stroke="rgba(130, 130, 130, 1)" stroke-width="1.5"></path><path d="M1267.77 230.4L1295.75 351.51" stroke="rgba(130, 130, 130, 1)" stroke-width="1.5"></path><path d="M1267.77 230.4L1430.55 251.51" stroke="rgba(130, 130, 130, 1)" stroke-width="1.5"></path><path d="M1267.77 230.4L1434.1 354.4" stroke="rgba(130, 130, 130, 1)" stroke-width="1.5"></path><path d="M1295.75 351.51L1295.75 351.51" stroke="rgba(130, 130, 130, 1)" stroke-width="1.5"></path><path d="M1295.75 351.51L1434.1 354.4" stroke="rgba(130, 130, 130, 1)" stroke-width="1.5"></path><path d="M1295.75 351.51L1430.55 251.51" stroke="rgba(130, 130, 130, 1)" stroke-width="1.5"></path><path d="M1301.53 523.74L1301.53 523.74" stroke="rgba(130, 130, 130, 1)" stroke-width="1.5"></path><path d="M1301.53 523.74L1451.63 508.8" stroke="rgba(130, 130, 130, 1)" stroke-width="1.5"></path><path d="M1301.53 523.74L1295.75 351.51" stroke="rgba(130, 130, 130, 1)" stroke-width="1.5"></path><path d="M1301.53 523.74L1415.23 660.91" stroke="rgba(130, 130, 130, 1)" stroke-width="1.5"></path><path d="M1301.53 523.74L1289.14 707.07" stroke="rgba(130, 130, 130, 1)" stroke-width="1.5"></path><path d="M1289.14 707.07L1289.14 707.07" stroke="rgba(130, 130, 130, 1)" stroke-width="1.5"></path><path d="M1289.14 707.07L1415.23 660.91" stroke="rgba(130, 130, 130, 1)" stroke-width="1.5"></path><path d="M1289.14 707.07L1135.37 515.41" stroke="rgba(130, 130, 130, 1)" stroke-width="1.5"></path><path d="M1435.67 -42.92L1435.67 -42.92" stroke="rgba(130, 130, 130, 1)" stroke-width="1.5"></path><path d="M1435.67 -42.92L1431.98 69.7" stroke="rgba(130, 130, 130, 1)" stroke-width="1.5"></path><path d="M1435.67 -42.92L1556.19 44.74" stroke="rgba(130, 130, 130, 1)" stroke-width="1.5"></path><path d="M1435.67 -42.92L1575.75 -100.29" stroke="rgba(130, 130, 130, 1)" stroke-width="1.5"></path><path d="M1435.67 -42.92L1273.26 108.07" stroke="rgba(130, 130, 130, 1)" stroke-width="1.5"></path><path d="M1435.67 -42.92L1430.55 251.51" stroke="rgba(130, 130, 130, 1)" stroke-width="1.5"></path><path d="M1431.98 69.7L1431.98 69.7" stroke="rgba(130, 130, 130, 1)" stroke-width="1.5"></path><path d="M1431.98 69.7L1556.19 44.74" stroke="rgba(130, 130, 130, 1)" stroke-width="1.5"></path><path d="M1430.55 251.51L1430.55 251.51" stroke="rgba(130, 130, 130, 1)" stroke-width="1.5"></path><path d="M1430.55 251.51L1434.1 354.4" stroke="rgba(130, 130, 130, 1)" stroke-width="1.5"></path><path d="M1434.1 354.4L1434.1 354.4" stroke="rgba(130, 130, 130, 1)" stroke-width="1.5"></path><path d="M1434.1 354.4L1565.23 356.9" stroke="rgba(130, 130, 130, 1)" stroke-width="1.5"></path><path d="M1434.1 354.4L1451.63 508.8" stroke="rgba(130, 130, 130, 1)" stroke-width="1.5"></path><path d="M1451.63 508.8L1451.63 508.8" stroke="rgba(130, 130, 130, 1)" stroke-width="1.5"></path><path d="M1451.63 508.8L1547.56 506.75" stroke="rgba(130, 130, 130, 1)" stroke-width="1.5"></path><path d="M1415.23 660.91L1415.23 660.91" stroke="rgba(130, 130, 130, 1)" stroke-width="1.5"></path><path d="M1415.23 660.91L1451.63 508.8" stroke="rgba(130, 130, 130, 1)" stroke-width="1.5"></path><path d="M1415.23 660.91L1575.24 645.03" stroke="rgba(130, 130, 130, 1)" stroke-width="1.5"></path><path d="M1415.23 660.91L1547.56 506.75" stroke="rgba(130, 130, 130, 1)" stroke-width="1.5"></path><path d="M1415.23 660.91L1119.06 664.04" stroke="rgba(130, 130, 130, 1)" stroke-width="1.5"></path><path d="M1575.75 -100.29L1575.75 -100.29" stroke="rgba(130, 130, 130, 1)" stroke-width="1.5"></path><path d="M1575.75 -100.29L1556.19 44.74" stroke="rgba(130, 130, 130, 1)" stroke-width="1.5"></path><path d="M1575.75 -100.29L1431.98 69.7" stroke="rgba(130, 130, 130, 1)" stroke-width="1.5"></path><path d="M1575.75 -100.29L1271.52 -90.4" stroke="rgba(130, 130, 130, 1)" stroke-width="1.5"></path><path d="M1575.75 -100.29L1598.19 212.02" stroke="rgba(130, 130, 130, 1)" stroke-width="1.5"></path><path d="M1556.19 44.74L1556.19 44.74" stroke="rgba(130, 130, 130, 1)" stroke-width="1.5"></path><path d="M1556.19 44.74L1598.19 212.02" stroke="rgba(130, 130, 130, 1)" stroke-width="1.5"></path><path d="M1556.19 44.74L1430.55 251.51" stroke="rgba(130, 130, 130, 1)" stroke-width="1.5"></path><path d="M1556.19 44.74L1273.26 108.07" stroke="rgba(130, 130, 130, 1)" stroke-width="1.5"></path><path d="M1598.19 212.02L1598.19 212.02" stroke="rgba(130, 130, 130, 1)" stroke-width="1.5"></path><path d="M1598.19 212.02L1565.23 356.9" stroke="rgba(130, 130, 130, 1)" stroke-width="1.5"></path><path d="M1598.19 212.02L1430.55 251.51" stroke="rgba(130, 130, 130, 1)" stroke-width="1.5"></path><path d="M1565.23 356.9L1565.23 356.9" stroke="rgba(130, 130, 130, 1)" stroke-width="1.5"></path><path d="M1565.23 356.9L1547.56 506.75" stroke="rgba(130, 130, 130, 1)" stroke-width="1.5"></path><path d="M1547.56 506.75L1547.56 506.75" stroke="rgba(130, 130, 130, 1)" stroke-width="1.5"></path><path d="M1547.56 506.75L1575.24 645.03" stroke="rgba(130, 130, 130, 1)" stroke-width="1.5"></path><path d="M1575.24 645.03L1575.24 645.03" stroke="rgba(130, 130, 130, 1)" stroke-width="1.5"></path><path d="M1575.24 645.03L1451.63 508.8" stroke="rgba(130, 130, 130, 1)" stroke-width="1.5"></path><path d="M1575.24 645.03L1565.23 356.9" stroke="rgba(130, 130, 130, 1)" stroke-width="1.5"></path><circle r="5" cx="-104.96" cy="542.12" fill="rgba(130, 130, 130, 1)"></circle><circle r="5" cx="-96.9" cy="685.69" fill="rgba(130, 130, 130, 1)"></circle><circle r="5" cx="85.42" cy="384.16" fill="rgba(130, 130, 130, 1)"></circle><circle r="5" cx="48.06" cy="545.05" fill="rgba(130, 130, 130, 1)"></circle><circle r="5" cx="52.15" cy="668.68" fill="rgba(130, 130, 130, 1)"></circle><circle r="5" cx="254.13" cy="410.09" fill="rgba(130, 130, 130, 1)"></circle><circle r="5" cx="202.33" cy="545.39" fill="rgba(130, 130, 130, 1)"></circle><circle r="5" cx="211.52" cy="693.59" fill="rgba(130, 130, 130, 1)"></circle><circle r="5" cx="347.26" cy="368.86" fill="rgba(130, 130, 130, 1)"></circle><circle r="5" cx="377.89" cy="539.04" fill="rgba(130, 130, 130, 1)"></circle><circle r="5" cx="539.31" cy="359.73" fill="rgba(130, 130, 130, 1)"></circle><circle r="5" cx="533.63" cy="494.2" fill="rgba(130, 130, 130, 1)"></circle><circle r="5" cx="536.38" cy="642.5" fill="rgba(130, 130, 130, 1)"></circle><circle r="5" cx="663.27" cy="372.45" fill="rgba(130, 130, 130, 1)"></circle><circle r="5" cx="686" cy="551.91" fill="rgba(130, 130, 130, 1)"></circle><circle r="5" cx="637.93" cy="695.19" fill="rgba(130, 130, 130, 1)"></circle><circle r="5" cx="790.71" cy="238.49" fill="rgba(130, 130, 130, 1)"></circle><circle r="5" cx="806.43" cy="349.68" fill="rgba(130, 130, 130, 1)"></circle><circle r="5" cx="790.98" cy="527.4" fill="rgba(130, 130, 130, 1)"></circle><circle r="5" cx="838.43" cy="669.55" fill="rgba(130, 130, 130, 1)"></circle><circle r="5" cx="962.56" cy="-50.83" fill="rgba(130, 130, 130, 1)"></circle><circle r="5" cx="983.47" cy="51.08" fill="rgba(130, 130, 130, 1)"></circle><circle r="5" cx="963.89" cy="208.66" fill="rgba(130, 130, 130, 1)"></circle><circle r="5" cx="982.84" cy="405.15" fill="rgba(130, 130, 130, 1)"></circle><circle r="5" cx="988.16" cy="544.99" fill="rgba(130, 130, 130, 1)"></circle><circle r="5" cx="992.01" cy="680.69" fill="rgba(130, 130, 130, 1)"></circle><circle r="5" cx="1092.99" cy="-65.35" fill="rgba(130, 130, 130, 1)"></circle><circle r="5" cx="1090.43" cy="73.34" fill="rgba(130, 130, 130, 1)"></circle><circle r="5" cx="1162.04" cy="213.99" fill="rgba(130, 130, 130, 1)"></circle><circle r="5" cx="1135.37" cy="515.41" fill="rgba(130, 130, 130, 1)"></circle><circle r="5" cx="1119.06" cy="664.04" fill="rgba(130, 130, 130, 1)"></circle><circle r="5" cx="1271.52" cy="-90.4" fill="rgba(130, 130, 130, 1)"></circle><circle r="5" cx="1273.26" cy="108.07" fill="rgba(130, 130, 130, 1)"></circle><circle r="5" cx="1267.77" cy="230.4" fill="rgba(130, 130, 130, 1)"></circle><circle r="5" cx="1295.75" cy="351.51" fill="rgba(130, 130, 130, 1)"></circle><circle r="5" cx="1301.53" cy="523.74" fill="rgba(130, 130, 130, 1)"></circle><circle r="5" cx="1289.14" cy="707.07" fill="rgba(130, 130, 130, 1)"></circle><circle r="5" cx="1435.67" cy="-42.92" fill="rgba(130, 130, 130, 1)"></circle><circle r="5" cx="1431.98" cy="69.7" fill="rgba(130, 130, 130, 1)"></circle><circle r="5" cx="1430.55" cy="251.51" fill="rgba(130, 130, 130, 1)"></circle><circle r="5" cx="1434.1" cy="354.4" fill="rgba(130, 130, 130, 1)"></circle><circle r="5" cx="1451.63" cy="508.8" fill="rgba(130, 130, 130, 1)"></circle><circle r="5" cx="1415.23" cy="660.91" fill="rgba(130, 130, 130, 1)"></circle><circle r="5" cx="1575.75" cy="-100.29" fill="rgba(130, 130, 130, 1)"></circle><circle r="5" cx="1556.19" cy="44.74" fill="rgba(130, 130, 130, 1)"></circle><circle r="5" cx="1598.19" cy="212.02" fill="rgba(130, 130, 130, 1)"></circle><circle r="5" cx="1565.23" cy="356.9" fill="rgba(130, 130, 130, 1)"></circle><circle r="5" cx="1547.56" cy="506.75" fill="rgba(130, 130, 130, 1)"></circle><circle r="5" cx="1575.24" cy="645.03" fill="rgba(130, 130, 130, 1)"></circle><path d="M-101.5 491.77L-101.5 491.77" stroke="hsl(51.10000000000002, 100%, 65%)" stroke-width="1.5"></path><path d="M-101.5 491.77L-49.27 690.55" stroke="hsl(51.10000000000002, 100%, 65%)" stroke-width="1.5"></path><path d="M-101.5 491.77L96.45 558.56" stroke="hsl(51.10000000000002, 100%, 65%)" stroke-width="1.5"></path><path d="M102.19 692.56L102.19 692.56" stroke="hsl(51.10000000000002, 100%, 65%)" stroke-width="1.5"></path><path d="M102.19 692.56L96.45 558.56" stroke="hsl(51.10000000000002, 100%, 65%)" stroke-width="1.5"></path><path d="M102.19 692.56L-49.27 690.55" stroke="hsl(51.10000000000002, 100%, 65%)" stroke-width="1.5"></path><path d="M102.19 692.56L261.22 700.14" stroke="hsl(51.10000000000002, 100%, 65%)" stroke-width="1.5"></path><path d="M261.22 700.14L261.22 700.14" stroke="hsl(51.10000000000002, 100%, 65%)" stroke-width="1.5"></path><path d="M261.22 700.14L396.66 691.92" stroke="hsl(51.10000000000002, 100%, 65%)" stroke-width="1.5"></path><path d="M261.22 700.14L358.18 526.53" stroke="hsl(51.10000000000002, 100%, 65%)" stroke-width="1.5"></path><path d="M261.22 700.14L219.63 495.79" stroke="hsl(51.10000000000002, 100%, 65%)" stroke-width="1.5"></path><path d="M261.22 700.14L96.45 558.56" stroke="hsl(51.10000000000002, 100%, 65%)" stroke-width="1.5"></path><path d="M826.59 558.28L826.59 558.28" stroke="hsl(51.10000000000002, 100%, 65%)" stroke-width="1.5"></path><path d="M826.59 558.28L821.08 674.54" stroke="hsl(51.10000000000002, 100%, 65%)" stroke-width="1.5"></path><path d="M826.59 558.28L952.04 653.11" stroke="hsl(51.10000000000002, 100%, 65%)" stroke-width="1.5"></path><path d="M826.59 558.28L666.27 500.7" stroke="hsl(51.10000000000002, 100%, 65%)" stroke-width="1.5"></path><path d="M826.59 558.28L791.88 380.17" stroke="hsl(51.10000000000002, 100%, 65%)" stroke-width="1.5"></path><path d="M826.59 558.28L1007.39 542.59" stroke="hsl(51.10000000000002, 100%, 65%)" stroke-width="1.5"></path><path d="M821.08 674.54L821.08 674.54" stroke="hsl(51.10000000000002, 100%, 65%)" stroke-width="1.5"></path><path d="M821.08 674.54L706.84 710.64" stroke="hsl(51.10000000000002, 100%, 65%)" stroke-width="1.5"></path><path d="M821.08 674.54L952.04 653.11" stroke="hsl(51.10000000000002, 100%, 65%)" stroke-width="1.5"></path><path d="M821.08 674.54L1007.39 542.59" stroke="hsl(51.10000000000002, 100%, 65%)" stroke-width="1.5"></path><path d="M952.04 653.11L952.04 653.11" stroke="hsl(51.10000000000002, 100%, 65%)" stroke-width="1.5"></path><path d="M952.04 653.11L1007.39 542.59" stroke="hsl(51.10000000000002, 100%, 65%)" stroke-width="1.5"></path><path d="M1153.29 513.9L1153.29 513.9" stroke="hsl(51.10000000000002, 100%, 65%)" stroke-width="1.5"></path><path d="M1153.29 513.9L1271.5 513.18" stroke="hsl(51.10000000000002, 100%, 65%)" stroke-width="1.5"></path><path d="M1153.29 513.9L1007.39 542.59" stroke="hsl(51.10000000000002, 100%, 65%)" stroke-width="1.5"></path><path d="M1153.29 513.9L1135.59 675.7" stroke="hsl(51.10000000000002, 100%, 65%)" stroke-width="1.5"></path><path d="M1153.29 513.9L1245.12 681.52" stroke="hsl(51.10000000000002, 100%, 65%)" stroke-width="1.5"></path><path d="M1153.29 513.9L1290.23 376.34" stroke="hsl(51.10000000000002, 100%, 65%)" stroke-width="1.5"></path><path d="M1153.29 513.9L998.16 340.27" stroke="hsl(51.10000000000002, 100%, 65%)" stroke-width="1.5"></path><path d="M1255.52 255.1L1255.52 255.1" stroke="hsl(51.10000000000002, 100%, 65%)" stroke-width="1.5"></path><path d="M1255.52 255.1L1290.23 376.34" stroke="hsl(51.10000000000002, 100%, 65%)" stroke-width="1.5"></path><path d="M1255.52 255.1L1280.59 109.03" stroke="hsl(51.10000000000002, 100%, 65%)" stroke-width="1.5"></path><path d="M1255.52 255.1L1097.73 234.57" stroke="hsl(51.10000000000002, 100%, 65%)" stroke-width="1.5"></path><path d="M1255.52 255.1L1412.86 338.63" stroke="hsl(51.10000000000002, 100%, 65%)" stroke-width="1.5"></path><path d="M1255.52 255.1L1455.01 213.92" stroke="hsl(51.10000000000002, 100%, 65%)" stroke-width="1.5"></path><path d="M1255.52 255.1L1159.53 69.66" stroke="hsl(51.10000000000002, 100%, 65%)" stroke-width="1.5"></path><path d="M1245.12 681.52L1245.12 681.52" stroke="hsl(51.10000000000002, 100%, 65%)" stroke-width="1.5"></path><path d="M1245.12 681.52L1135.59 675.7" stroke="hsl(51.10000000000002, 100%, 65%)" stroke-width="1.5"></path><path d="M1245.12 681.52L1406.04 645.1" stroke="hsl(51.10000000000002, 100%, 65%)" stroke-width="1.5"></path><path d="M1245.12 681.52L1271.5 513.18" stroke="hsl(51.10000000000002, 100%, 65%)" stroke-width="1.5"></path><path d="M1245.12 681.52L1401.8 516.7" stroke="hsl(51.10000000000002, 100%, 65%)" stroke-width="1.5"></path><path d="M1412.86 338.63L1412.86 338.63" stroke="hsl(51.10000000000002, 100%, 65%)" stroke-width="1.5"></path><path d="M1412.86 338.63L1290.23 376.34" stroke="hsl(51.10000000000002, 100%, 65%)" stroke-width="1.5"></path><path d="M1412.86 338.63L1455.01 213.92" stroke="hsl(51.10000000000002, 100%, 65%)" stroke-width="1.5"></path><path d="M1608.65 372.74L1608.65 372.74" stroke="hsl(51.10000000000002, 100%, 65%)" stroke-width="1.5"></path><path d="M1608.65 372.74L1575.06 502.17" stroke="hsl(51.10000000000002, 100%, 65%)" stroke-width="1.5"></path><path d="M1608.65 372.74L1589.49 196.97" stroke="hsl(51.10000000000002, 100%, 65%)" stroke-width="1.5"></path><path d="M1608.65 372.74L1412.86 338.63" stroke="hsl(51.10000000000002, 100%, 65%)" stroke-width="1.5"></path><path d="M1575.06 502.17L1575.06 502.17" stroke="hsl(51.10000000000002, 100%, 65%)" stroke-width="1.5"></path><path d="M1575.06 502.17L1401.8 516.7" stroke="hsl(51.10000000000002, 100%, 65%)" stroke-width="1.5"></path><path d="M-49.27 690.55L-49.27 690.55" stroke="hsl(51.10000000000002, 100%, 65%)" stroke-width="1.5"></path><path d="M-49.27 690.55L96.45 558.56" stroke="hsl(51.10000000000002, 100%, 65%)" stroke-width="1.5"></path><path d="M-49.27 690.55L261.22 700.14" stroke="hsl(51.10000000000002, 100%, 65%)" stroke-width="1.5"></path><path d="M-49.27 690.55L219.63 495.79" stroke="hsl(51.10000000000002, 100%, 65%)" stroke-width="1.5"></path><path d="M96.45 558.56L96.45 558.56" stroke="hsl(51.10000000000002, 100%, 65%)" stroke-width="1.5"></path><path d="M96.45 558.56L219.63 495.79" stroke="hsl(51.10000000000002, 100%, 65%)" stroke-width="1.5"></path><path d="M219.63 495.79L219.63 495.79" stroke="hsl(51.10000000000002, 100%, 65%)" stroke-width="1.5"></path><path d="M219.63 495.79L358.18 526.53" stroke="hsl(51.10000000000002, 100%, 65%)" stroke-width="1.5"></path><path d="M219.63 495.79L102.19 692.56" stroke="hsl(51.10000000000002, 100%, 65%)" stroke-width="1.5"></path><path d="M219.63 495.79L396.66 691.92" stroke="hsl(51.10000000000002, 100%, 65%)" stroke-width="1.5"></path><path d="M219.63 495.79L491.25 504.46" stroke="hsl(51.10000000000002, 100%, 65%)" stroke-width="1.5"></path><path d="M358.18 526.53L358.18 526.53" stroke="hsl(51.10000000000002, 100%, 65%)" stroke-width="1.5"></path><path d="M358.18 526.53L491.25 504.46" stroke="hsl(51.10000000000002, 100%, 65%)" stroke-width="1.5"></path><path d="M358.18 526.53L396.66 691.92" stroke="hsl(51.10000000000002, 100%, 65%)" stroke-width="1.5"></path><path d="M358.18 526.53L504.39 639.21" stroke="hsl(51.10000000000002, 100%, 65%)" stroke-width="1.5"></path><path d="M396.66 691.92L396.66 691.92" stroke="hsl(51.10000000000002, 100%, 65%)" stroke-width="1.5"></path><path d="M396.66 691.92L504.39 639.21" stroke="hsl(51.10000000000002, 100%, 65%)" stroke-width="1.5"></path><path d="M396.66 691.92L491.25 504.46" stroke="hsl(51.10000000000002, 100%, 65%)" stroke-width="1.5"></path><path d="M491.25 504.46L491.25 504.46" stroke="hsl(51.10000000000002, 100%, 65%)" stroke-width="1.5"></path><path d="M491.25 504.46L504.39 639.21" stroke="hsl(51.10000000000002, 100%, 65%)" stroke-width="1.5"></path><path d="M504.39 639.21L504.39 639.21" stroke="hsl(51.10000000000002, 100%, 65%)" stroke-width="1.5"></path><path d="M504.39 639.21L666.27 500.7" stroke="hsl(51.10000000000002, 100%, 65%)" stroke-width="1.5"></path><path d="M504.39 639.21L706.84 710.64" stroke="hsl(51.10000000000002, 100%, 65%)" stroke-width="1.5"></path><path d="M504.39 639.21L261.22 700.14" stroke="hsl(51.10000000000002, 100%, 65%)" stroke-width="1.5"></path><path d="M673.48 399.25L673.48 399.25" stroke="hsl(51.10000000000002, 100%, 65%)" stroke-width="1.5"></path><path d="M673.48 399.25L666.27 500.7" stroke="hsl(51.10000000000002, 100%, 65%)" stroke-width="1.5"></path><path d="M673.48 399.25L791.88 380.17" stroke="hsl(51.10000000000002, 100%, 65%)" stroke-width="1.5"></path><path d="M673.48 399.25L491.25 504.46" stroke="hsl(51.10000000000002, 100%, 65%)" stroke-width="1.5"></path><path d="M673.48 399.25L826.59 558.28" stroke="hsl(51.10000000000002, 100%, 65%)" stroke-width="1.5"></path><path d="M666.27 500.7L666.27 500.7" stroke="hsl(51.10000000000002, 100%, 65%)" stroke-width="1.5"></path><path d="M666.27 500.7L791.88 380.17" stroke="hsl(51.10000000000002, 100%, 65%)" stroke-width="1.5"></path><path d="M706.84 710.64L706.84 710.64" stroke="hsl(51.10000000000002, 100%, 65%)" stroke-width="1.5"></path><path d="M706.84 710.64L826.59 558.28" stroke="hsl(51.10000000000002, 100%, 65%)" stroke-width="1.5"></path><path d="M706.84 710.64L666.27 500.7" stroke="hsl(51.10000000000002, 100%, 65%)" stroke-width="1.5"></path><path d="M791.88 380.17L791.88 380.17" stroke="hsl(51.10000000000002, 100%, 65%)" stroke-width="1.5"></path><path d="M998.16 340.27L998.16 340.27" stroke="hsl(51.10000000000002, 100%, 65%)" stroke-width="1.5"></path><path d="M998.16 340.27L1097.73 234.57" stroke="hsl(51.10000000000002, 100%, 65%)" stroke-width="1.5"></path><path d="M998.16 340.27L1007.39 542.59" stroke="hsl(51.10000000000002, 100%, 65%)" stroke-width="1.5"></path><path d="M998.16 340.27L791.88 380.17" stroke="hsl(51.10000000000002, 100%, 65%)" stroke-width="1.5"></path><path d="M998.16 340.27L1255.52 255.1" stroke="hsl(51.10000000000002, 100%, 65%)" stroke-width="1.5"></path><path d="M998.16 340.27L826.59 558.28" stroke="hsl(51.10000000000002, 100%, 65%)" stroke-width="1.5"></path><path d="M1007.39 542.59L1007.39 542.59" stroke="hsl(51.10000000000002, 100%, 65%)" stroke-width="1.5"></path><path d="M1159.53 69.66L1159.53 69.66" stroke="hsl(51.10000000000002, 100%, 65%)" stroke-width="1.5"></path><path d="M1159.53 69.66L1280.59 109.03" stroke="hsl(51.10000000000002, 100%, 65%)" stroke-width="1.5"></path><path d="M1159.53 69.66L1097.73 234.57" stroke="hsl(51.10000000000002, 100%, 65%)" stroke-width="1.5"></path><path d="M1097.73 234.57L1097.73 234.57" stroke="hsl(51.10000000000002, 100%, 65%)" stroke-width="1.5"></path><path d="M1135.59 675.7L1135.59 675.7" stroke="hsl(51.10000000000002, 100%, 65%)" stroke-width="1.5"></path><path d="M1135.59 675.7L1007.39 542.59" stroke="hsl(51.10000000000002, 100%, 65%)" stroke-width="1.5"></path><path d="M1135.59 675.7L952.04 653.11" stroke="hsl(51.10000000000002, 100%, 65%)" stroke-width="1.5"></path><path d="M1135.59 675.7L1271.5 513.18" stroke="hsl(51.10000000000002, 100%, 65%)" stroke-width="1.5"></path><path d="M1135.59 675.7L1406.04 645.1" stroke="hsl(51.10000000000002, 100%, 65%)" stroke-width="1.5"></path><path d="M1280.59 109.03L1280.59 109.03" stroke="hsl(51.10000000000002, 100%, 65%)" stroke-width="1.5"></path><path d="M1280.59 109.03L1459.52 101.86" stroke="hsl(51.10000000000002, 100%, 65%)" stroke-width="1.5"></path><path d="M1280.59 109.03L1455.01 213.92" stroke="hsl(51.10000000000002, 100%, 65%)" stroke-width="1.5"></path><path d="M1280.59 109.03L1097.73 234.57" stroke="hsl(51.10000000000002, 100%, 65%)" stroke-width="1.5"></path><path d="M1280.59 109.03L1394.25 -95.32" stroke="hsl(51.10000000000002, 100%, 65%)" stroke-width="1.5"></path><path d="M1290.23 376.34L1290.23 376.34" stroke="hsl(51.10000000000002, 100%, 65%)" stroke-width="1.5"></path><path d="M1290.23 376.34L1271.5 513.18" stroke="hsl(51.10000000000002, 100%, 65%)" stroke-width="1.5"></path><path d="M1290.23 376.34L1401.8 516.7" stroke="hsl(51.10000000000002, 100%, 65%)" stroke-width="1.5"></path><path d="M1290.23 376.34L1455.01 213.92" stroke="hsl(51.10000000000002, 100%, 65%)" stroke-width="1.5"></path><path d="M1271.5 513.18L1271.5 513.18" stroke="hsl(51.10000000000002, 100%, 65%)" stroke-width="1.5"></path><path d="M1271.5 513.18L1401.8 516.7" stroke="hsl(51.10000000000002, 100%, 65%)" stroke-width="1.5"></path><path d="M1271.5 513.18L1406.04 645.1" stroke="hsl(51.10000000000002, 100%, 65%)" stroke-width="1.5"></path><path d="M1394.25 -95.32L1394.25 -95.32" stroke="hsl(51.10000000000002, 100%, 65%)" stroke-width="1.5"></path><path d="M1394.25 -95.32L1554.74 -84.68" stroke="hsl(51.10000000000002, 100%, 65%)" stroke-width="1.5"></path><path d="M1394.25 -95.32L1459.52 101.86" stroke="hsl(51.10000000000002, 100%, 65%)" stroke-width="1.5"></path><path d="M1394.25 -95.32L1538.76 85.6" stroke="hsl(51.10000000000002, 100%, 65%)" stroke-width="1.5"></path><path d="M1394.25 -95.32L1159.53 69.66" stroke="hsl(51.10000000000002, 100%, 65%)" stroke-width="1.5"></path><path d="M1459.52 101.86L1459.52 101.86" stroke="hsl(51.10000000000002, 100%, 65%)" stroke-width="1.5"></path><path d="M1459.52 101.86L1538.76 85.6" stroke="hsl(51.10000000000002, 100%, 65%)" stroke-width="1.5"></path><path d="M1459.52 101.86L1455.01 213.92" stroke="hsl(51.10000000000002, 100%, 65%)" stroke-width="1.5"></path><path d="M1459.52 101.86L1589.49 196.97" stroke="hsl(51.10000000000002, 100%, 65%)" stroke-width="1.5"></path><path d="M1459.52 101.86L1554.74 -84.68" stroke="hsl(51.10000000000002, 100%, 65%)" stroke-width="1.5"></path><path d="M1455.01 213.92L1455.01 213.92" stroke="hsl(51.10000000000002, 100%, 65%)" stroke-width="1.5"></path><path d="M1455.01 213.92L1589.49 196.97" stroke="hsl(51.10000000000002, 100%, 65%)" stroke-width="1.5"></path><path d="M1455.01 213.92L1538.76 85.6" stroke="hsl(51.10000000000002, 100%, 65%)" stroke-width="1.5"></path><path d="M1401.8 516.7L1401.8 516.7" stroke="hsl(51.10000000000002, 100%, 65%)" stroke-width="1.5"></path><path d="M1401.8 516.7L1406.04 645.1" stroke="hsl(51.10000000000002, 100%, 65%)" stroke-width="1.5"></path><path d="M1401.8 516.7L1412.86 338.63" stroke="hsl(51.10000000000002, 100%, 65%)" stroke-width="1.5"></path><path d="M1406.04 645.1L1406.04 645.1" stroke="hsl(51.10000000000002, 100%, 65%)" stroke-width="1.5"></path><path d="M1406.04 645.1L1554.85 704.27" stroke="hsl(51.10000000000002, 100%, 65%)" stroke-width="1.5"></path><path d="M1554.74 -84.68L1554.74 -84.68" stroke="hsl(51.10000000000002, 100%, 65%)" stroke-width="1.5"></path><path d="M1554.74 -84.68L1538.76 85.6" stroke="hsl(51.10000000000002, 100%, 65%)" stroke-width="1.5"></path><path d="M1554.74 -84.68L1589.49 196.97" stroke="hsl(51.10000000000002, 100%, 65%)" stroke-width="1.5"></path><path d="M1554.74 -84.68L1455.01 213.92" stroke="hsl(51.10000000000002, 100%, 65%)" stroke-width="1.5"></path><path d="M1554.74 -84.68L1280.59 109.03" stroke="hsl(51.10000000000002, 100%, 65%)" stroke-width="1.5"></path><path d="M1538.76 85.6L1538.76 85.6" stroke="hsl(51.10000000000002, 100%, 65%)" stroke-width="1.5"></path><path d="M1538.76 85.6L1589.49 196.97" stroke="hsl(51.10000000000002, 100%, 65%)" stroke-width="1.5"></path><path d="M1589.49 196.97L1589.49 196.97" stroke="hsl(51.10000000000002, 100%, 65%)" stroke-width="1.5"></path><path d="M1554.85 704.27L1554.85 704.27" stroke="hsl(51.10000000000002, 100%, 65%)" stroke-width="1.5"></path><path d="M1554.85 704.27L1575.06 502.17" stroke="hsl(51.10000000000002, 100%, 65%)" stroke-width="1.5"></path><path d="M1554.85 704.27L1401.8 516.7" stroke="hsl(51.10000000000002, 100%, 65%)" stroke-width="1.5"></path><path d="M1554.85 704.27L1245.12 681.52" stroke="hsl(51.10000000000002, 100%, 65%)" stroke-width="1.5"></path><path d="M1554.85 704.27L1608.65 372.74" stroke="hsl(51.10000000000002, 100%, 65%)" stroke-width="1.5"></path><path d="M1554.85 704.27L1271.5 513.18" stroke="hsl(51.10000000000002, 100%, 65%)" stroke-width="1.5"></path><circle r="25" cx="-101.5" cy="491.77" fill="url(#SvgjsRadialGradient1049)"></circle><circle r="25" cx="102.19" cy="692.56" fill="url(#SvgjsRadialGradient1049)"></circle><circle r="25" cx="261.22" cy="700.14" fill="url(#SvgjsRadialGradient1049)"></circle><circle r="25" cx="826.59" cy="558.28" fill="url(#SvgjsRadialGradient1049)"></circle><circle r="25" cx="821.08" cy="674.54" fill="url(#SvgjsRadialGradient1049)"></circle><circle r="25" cx="952.04" cy="653.11" fill="url(#SvgjsRadialGradient1049)"></circle><circle r="25" cx="1153.29" cy="513.9" fill="url(#SvgjsRadialGradient1049)"></circle><circle r="25" cx="1255.52" cy="255.1" fill="url(#SvgjsRadialGradient1049)"></circle><circle r="25" cx="1245.12" cy="681.52" fill="url(#SvgjsRadialGradient1049)"></circle><circle r="25" cx="1412.86" cy="338.63" fill="url(#SvgjsRadialGradient1049)"></circle><circle r="25" cx="1608.65" cy="372.74" fill="url(#SvgjsRadialGradient1049)"></circle><circle r="25" cx="1575.06" cy="502.17" fill="url(#SvgjsRadialGradient1049)"></circle><circle r="5" cx="-49.27" cy="690.55" fill="#ffec80"></circle><circle r="5" cx="96.45" cy="558.56" fill="#ffec80"></circle><circle r="5" cx="219.63" cy="495.79" fill="#ffec80"></circle><circle r="5" cx="358.18" cy="526.53" fill="#ffec80"></circle><circle r="5" cx="396.66" cy="691.92" fill="#ffec80"></circle><circle r="5" cx="491.25" cy="504.46" fill="#ffec80"></circle><circle r="5" cx="504.39" cy="639.21" fill="#ffec80"></circle><circle r="5" cx="673.48" cy="399.25" fill="#ffec80"></circle><circle r="5" cx="666.27" cy="500.7" fill="#ffec80"></circle><circle r="5" cx="706.84" cy="710.64" fill="#ffec80"></circle><circle r="5" cx="791.88" cy="380.17" fill="#ffec80"></circle><circle r="5" cx="998.16" cy="340.27" fill="#ffec80"></circle><circle r="5" cx="1007.39" cy="542.59" fill="#ffec80"></circle><circle r="5" cx="1159.53" cy="69.66" fill="#ffec80"></circle><circle r="5" cx="1097.73" cy="234.57" fill="#ffec80"></circle><circle r="5" cx="1135.59" cy="675.7" fill="#ffec80"></circle><circle r="5" cx="1280.59" cy="109.03" fill="#ffec80"></circle><circle r="5" cx="1290.23" cy="376.34" fill="#ffec80"></circle><circle r="5" cx="1271.5" cy="513.18" fill="#ffec80"></circle><circle r="5" cx="1394.25" cy="-95.32" fill="#ffec80"></circle><circle r="5" cx="1459.52" cy="101.86" fill="#ffec80"></circle><circle r="5" cx="1455.01" cy="213.92" fill="#ffec80"></circle><circle r="5" cx="1401.8" cy="516.7" fill="#ffec80"></circle><circle r="5" cx="1406.04" cy="645.1" fill="#ffec80"></circle><circle r="5" cx="1554.74" cy="-84.68" fill="#ffec80"></circle><circle r="5" cx="1538.76" cy="85.6" fill="#ffec80"></circle><circle r="5" cx="1589.49" cy="196.97" fill="#ffec80"></circle><circle r="5" cx="1554.85" cy="704.27" fill="#ffec80"></circle></g><defs><mask id="SvgjsMask1048"><rect width="1440" height="560" fill="#ffffff"></rect></mask><radialGradient id="SvgjsRadialGradient1049"><stop stop-color="#ffffff" offset="0.1"></stop><stop stop-color="rgba(255, 217, 0, 1)" offset="0.2"></stop><stop stop-color="rgba(255, 217, 0, 0)" offset="1"></stop></radialGradient></defs></svg>