<svg width="1759" height="1773" viewBox="0 0 1759 1773" fill="none" xmlns="http://www.w3.org/2000/svg">
<path d="M805.296 1045.27C713.971 1009.51 668.924 906.489 704.68 815.164" stroke="#FFD900" stroke-width="5" stroke-linecap="round"/>
<path d="M1430.04 1099.08C1308.98 1408.29 960.179 1560.81 650.972 1439.74" stroke="#FFD900" stroke-width="5" stroke-linecap="round"/>
<path d="M1099.15 1042.37C1188.97 915.837 1159.21 740.452 1032.68 650.634C906.149 560.815 730.765 590.574 640.946 717.103" stroke="black" stroke-width="5" stroke-linecap="round"/>
<path d="M372.292 1026.85C291.159 752.061 448.149 463.53 722.937 382.398" stroke="#FFD900" stroke-width="5" stroke-linecap="round"/>
<path d="M710.394 495.196C497.913 583.412 397.176 827.175 485.391 1039.66C573.607 1252.14 817.37 1352.87 1029.85 1264.66" stroke="#FFD900" stroke-width="5" stroke-linecap="round"/>
<path d="M986.993 826.561C979.487 809.921 968.527 795.067 954.842 782.986C941.157 770.904 925.059 761.871 907.616 756.486C890.174 751.101 871.785 749.486 853.671 751.75" stroke="#FFD900" stroke-width="5" stroke-linecap="round"/>
<path d="M916.554 833.39C904.462 821.087 888.022 814.026 870.775 813.727C853.527 813.428 836.852 819.916 824.342 831.792" stroke="black" stroke-width="5" stroke-linecap="round"/>
<circle cx="870.04" cy="879.906" r="16.951" stroke="black" stroke-width="5" stroke-linecap="round"/>
<path d="M1341.9 1152.33C1191.44 1412.93 858.212 1502.22 597.614 1351.76C337.015 1201.31 247.727 868.079 398.184 607.48" stroke="black" stroke-width="5" stroke-linecap="round"/>
<path d="M1349.51 879.906C1349.51 1144.71 1134.84 1359.38 870.039 1359.38C605.235 1359.38 390.569 1144.71 390.569 879.906" stroke="black" stroke-width="5" stroke-linecap="round"/>
<path d="M1427.88 1201.97C1605.75 893.889 1500.19 499.941 1192.11 322.068C884.021 144.195 490.074 249.753 312.2 557.838" stroke="black" stroke-width="5" stroke-linecap="round"/>
<path d="M1427.81 879.906C1427.81 571.86 1178.09 322.139 870.039 322.139" stroke="#097054" stroke-width="5" stroke-linecap="round"/>
<path d="M1450.41 879.906C1450.41 1200.44 1190.57 1460.27 870.04 1460.27C549.512 1460.27 289.672 1200.44 289.672 879.906" stroke="black" stroke-width="5" stroke-linecap="round"/>
<path d="M1189.15 691.665C1085.19 515.422 858.04 456.828 681.797 560.791C505.555 664.754 446.96 891.905 550.923 1068.15" stroke="black" stroke-width="5" stroke-linecap="round"/>
<path d="M1137.88 1333.96C887.113 1481.88 563.911 1398.51 415.988 1147.75C268.064 896.979 351.435 573.777 602.201 425.854" stroke="#FF9900" stroke-width="5" stroke-linecap="round"/>
<path d="M1021.97 1137.47C879.724 1221.38 696.386 1174.09 612.476 1031.84C528.566 889.591 575.859 706.254 718.107 622.344" stroke="#097054" stroke-width="5" stroke-linecap="round"/>
<path d="M1389.25 1230.73C1195.5 1517.49 805.969 1592.88 519.214 1399.12C232.46 1205.37 157.07 815.836 350.825 529.081" stroke="#097054" stroke-width="5" stroke-linecap="round"/>
<path d="M1234.36 665.059C1353.09 866.339 1286.17 1125.76 1084.89 1244.49" stroke="#097054" stroke-width="7.07495" stroke-linecap="round"/>
<path d="M996.391 805.374C1037.55 875.155 1014.35 965.094 944.572 1006.26C874.79 1047.42 784.852 1024.22 743.688 954.439" stroke="#FF9900" stroke-width="5" stroke-linecap="round"/>
<path d="M1038.98 780.251C1094.02 873.554 1063 993.809 969.695 1048.85C876.392 1103.89 756.137 1072.87 701.099 979.562" stroke="black" stroke-width="5" stroke-linecap="round"/>
<path d="M989.657 1082.69C877.664 1148.75 733.321 1111.52 667.257 999.524C601.194 887.531 638.428 743.188 750.421 677.125" stroke="#097054" stroke-width="5" stroke-linecap="round"/>
<circle cx="870.04" cy="879.906" r="678.845" stroke="black" stroke-width="5" stroke-linecap="round"/>
<path d="M1450.41 879.906C1450.41 559.378 1190.57 299.538 870.04 299.538C549.512 299.538 289.672 559.378 289.672 879.906" stroke="#F20000" stroke-width="5" stroke-linecap="round"/>
<path d="M870.039 1336.77C617.718 1336.77 413.171 1132.23 413.171 879.906C413.171 627.585 617.718 423.038 870.039 423.038" stroke="#FF9900" stroke-width="5" stroke-linecap="round"/>
<path d="M870.04 1573.28C487.099 1573.28 176.665 1262.85 176.665 879.907C176.665 496.966 487.099 186.532 870.04 186.532" stroke="#097054" stroke-width="5" stroke-linecap="round"/>
<path d="M990.374 430.808C1238.4 497.268 1385.6 752.212 1319.14 1000.24C1252.68 1248.27 997.733 1395.46 749.703 1329" stroke="#FF9900" stroke-width="5" stroke-linecap="round"/>
<path d="M990.374 430.808C1238.4 497.268 1385.6 752.212 1319.14 1000.24C1252.68 1248.27 997.733 1395.46 749.703 1329" stroke="#FF9900" stroke-width="5" stroke-linecap="round"/>
<path d="M1489.15 879.906C1489.15 537.98 1211.97 260.793 870.039 260.793C528.112 260.793 250.926 537.98 250.926 879.906" stroke="#FF9900" stroke-width="5" stroke-linecap="round"/>
<path d="M1489.15 879.906C1489.15 537.98 1211.97 260.793 870.039 260.793C528.112 260.793 250.926 537.98 250.926 879.906" stroke="#FF9900" stroke-width="5" stroke-linecap="round"/>
<path d="M474.527 695.311C576.204 477.078 835.541 382.591 1053.77 484.268C1272.01 585.945 1366.49 845.283 1264.82 1063.52" stroke="black" stroke-width="5" stroke-linecap="round"/>
<path d="M979.616 1069.4C1084.05 1009.11 1119.83 875.57 1059.54 771.138C999.241 666.705 865.704 630.924 761.271 691.218" stroke="black" stroke-width="5" stroke-linecap="round"/>
<path d="M1201.79 880.31C1201.79 1063.31 1053.44 1211.66 870.443 1211.66C687.443 1211.66 539.092 1063.31 539.092 880.31" stroke="#FFD900" stroke-width="5" stroke-linecap="round"/>
<path d="M1067.84 1310.11C830.065 1419.43 548.689 1315.29 439.372 1077.51" stroke="#FF9900" stroke-width="5" stroke-linecap="round"/>
<path d="M427.152 445.189C667.4 200.43 1060.58 196.773 1305.34 437.021" stroke="#FF9900" stroke-width="5" stroke-linecap="round"/>
<path d="M979.95 1118.97C847.979 1179.64 691.811 1121.84 631.139 989.869C570.467 857.898 628.266 701.73 760.236 641.058" stroke="#FF9900" stroke-width="5" stroke-linecap="round"/>
<path d="M800.923 730.043C883.674 691.999 981.599 728.242 1019.64 810.993" stroke="#FF9900" stroke-width="5" stroke-linecap="round"/>
<path d="M890.003 922.981C913.63 912.119 923.978 884.16 913.115 860.533" stroke="#FF9900" stroke-width="5" stroke-linecap="round"/>
<path d="M869.686 972.733C818.196 972.761 776.433 931.044 776.405 879.554" stroke="#097054" stroke-width="5" stroke-linecap="round"/>
<path d="M861.966 907.493C846.599 903.376 837.48 887.581 841.597 872.214C845.715 856.847 861.51 847.728 876.877 851.846" stroke="#F20000" stroke-width="5" stroke-linecap="round"/>
<path d="M546.878 732.411C628.43 553.979 839.189 475.442 1017.62 556.994C1196.05 638.546 1274.59 849.304 1193.04 1027.74" stroke="#097054" stroke-width="5" stroke-linecap="round"/>
<path d="M731.444 400.063C996.455 323.687 1273.2 476.605 1349.58 741.616C1425.96 1006.63 1273.04 1283.38 1008.03 1359.75" stroke="#097054" stroke-width="5" stroke-linecap="round"/>
<path d="M849.514 808.911C809.973 820.307 787.157 861.599 798.553 901.139C809.949 940.679 851.24 963.495 890.781 952.1" stroke="#097054" stroke-width="5" stroke-linecap="round"/>
<path d="M870.017 1437.32C1178 1437.37 1427.71 1187.74 1427.76 879.763" stroke="#097054" stroke-width="5" stroke-linecap="round"/>
<path d="M869.822 1269.89C654.454 1269.85 479.893 1095.23 479.929 879.862C479.965 664.493 654.585 489.933 869.953 489.969" stroke="#097054" stroke-width="5" stroke-linecap="round"/>
<path d="M1025.88 772.211C1084.34 857.263 1061.83 974.246 975.615 1033.5" stroke="#FF9900" stroke-width="5" stroke-linecap="round"/>
<path d="M1170.23 283.726C1495 447.424 1623.77 847.018 1457.83 1176.24C1291.89 1505.47 894.083 1639.66 569.306 1475.96" stroke="#FF9900" stroke-width="5" stroke-linecap="round"/>
<path d="M1127.3 702.553C1223.65 842.746 1186.55 1035.58 1044.44 1133.25C902.325 1230.92 709.01 1196.45 612.656 1056.26" stroke="#FF9900" stroke-width="5" stroke-linecap="round"/>
<path d="M1301.88 778.756C1246.55 543.483 1008.35 398.229 769.854 454.322" stroke="#FF9900" stroke-width="5" stroke-linecap="round"/>
<path d="M1006.45 879.907C1006.45 851.709 997.716 824.205 981.443 801.178C965.17 778.151 942.161 760.732 915.582 751.318C889.002 741.905 860.159 740.959 833.02 748.611C805.881 756.263 781.78 772.136 764.033 794.048" stroke="#097054" stroke-width="5" stroke-linecap="round"/>
</svg>
